<?xml version="1.0" encoding="utf-8"?>
<!-- Generator: Adobe Illustrator 22.0.1, SVG Export Plug-In . SVG Version: 6.00 Build 0)  -->
<svg version="1.1" id="Layer_1" xmlns="http://www.w3.org/2000/svg" xmlns:xlink="http://www.w3.org/1999/xlink" x="0px" y="0px"
	 viewBox="0 0 30 30" style="enable-background:new 0 0 30 30;" xml:space="preserve">
<style type="text/css">
	.st0{fill:#F63637;}
	.st1{fill:#0ED483;}
</style>
<path class="st1" d="M15.042,29.977C6.765,29.995,0.015,23.301,0,15.058C-0.015,6.812,6.699,0.061,14.955,0.023
	C23.172-0.014,30,6.77,30,14.972C30,23.244,23.307,29.958,15.042,29.977z M5.823,14.43c-0.479,0.106-1.11,0.419-1.492,1.177
	c-0.481,0.954-0.201,1.759,0.46,2.448c1.285,1.342,2.601,2.655,3.932,3.951c1.574,1.533,2.453,1.536,4.007-0.007
	c3.515-3.492,6.993-7.02,10.523-10.496c1.067-1.051,1.641-2.178,0.495-3.387c-1.271-1.341-2.446-0.633-3.529,0.47
	c-2.316,2.355-4.668,4.676-7.006,7.009c-2.423,2.418-2.425,2.419-4.833,0.087C7.738,15.061,7.145,14.361,5.823,14.43z"/>
</svg>
