<?xml version="1.0" encoding="utf-8"?>
<!-- Generator: Adobe Illustrator 22.0.1, SVG Export Plug-In . SVG Version: 6.00 Build 0)  -->
<svg version="1.1" id="Layer_1" xmlns="http://www.w3.org/2000/svg" xmlns:xlink="http://www.w3.org/1999/xlink" x="0px" y="0px"
	 viewBox="0 0 100 100" style="enable-background:new 0 0 100 100;" xml:space="preserve">
<style type="text/css">
	.st0{fill:#FFFFFF;}
	.st1{fill:#E89528;}
	.st2{fill:#FDFBFC;}
	.st3{fill:#FDFDFD;}
	.st4{fill:none;}
</style>
<g id="bGOCLc.tif">
	<g>
		<path class="st0" d="M39.824,49.175c-7.415,0-14.83-0.005-22.245,0.004c-1.69,0.002-2.868,1.174-2.864,2.787
			c0.004,1.612,1.195,2.778,2.877,2.779c14.767,0.004,29.534,0.005,44.301,0c1.994-0.001,3.286-1.789,2.698-3.698
			c-0.363-1.176-1.403-1.872-2.837-1.872C54.444,49.172,47.134,49.174,39.824,49.175z M30.338,33.16
			c-0.969,0-1.937,0.013-2.906-0.007c-0.364-0.008-0.478,0.119-0.463,0.474c0.024,0.589,0.027,1.18-0.001,1.768
			c-0.018,0.385,0.107,0.517,0.498,0.505c0.841-0.025,1.685,0.005,2.526-0.014c0.342-0.008,0.472,0.085,0.486,0.454
			c0.056,1.521,0.007,1.625-1.427,2.229c-0.29,0.122-0.589,0.233-0.893,0.311c-2.132,0.547-4.142-0.226-4.995-2.059
			c-0.931-1.999-0.978-4.09-0.071-6.112c0.719-1.604,2.168-2.192,3.823-2.201c1.494-0.008,2.709,0.595,3.311,2.069
			c0.131,0.32,0.317,0.339,0.586,0.289c0.765-0.144,1.528-0.305,2.297-0.422c0.381-0.058,0.366-0.239,0.277-0.523
			c-0.504-1.614-1.469-2.828-3.05-3.494c-1.225-0.516-2.521-0.656-3.834-0.6c-3.13,0.133-5.391,1.568-6.627,4.5
			c-0.57,1.352-0.705,2.778-0.567,4.212c0.279,2.905,1.434,5.335,4.289,6.477c3.5,1.399,6.766,0.644,9.784-1.47
			c0.229-0.161,0.299-0.371,0.298-0.649c-0.01-1.748-0.015-3.495,0.003-5.243c0.004-0.387-0.112-0.514-0.501-0.504
			C32.233,33.175,31.285,33.159,30.338,33.16z M46.13,30.595c0.357-0.02,0.717-0.078,1.071-0.051
			c0.514,0.039,0.607-0.198,0.547-0.641c-0.217-1.614-1.045-2.826-2.532-3.448c-2.147-0.899-4.368-0.931-6.508,0.013
			c-2.721,1.2-3.257,4.593-1.106,6.656c1.016,0.974,2.335,1.299,3.639,1.64c0.995,0.26,2.022,0.428,2.959,0.868
			c1,0.47,1.223,1.556,0.532,2.422c-0.24,0.301-0.541,0.527-0.895,0.683c-2.173,0.956-4.269,0.013-4.942-2.241
			c-0.08-0.268-0.169-0.396-0.466-0.364c-0.775,0.082-1.551,0.148-2.327,0.21c-0.27,0.022-0.359,0.131-0.316,0.408
			c0.328,2.104,1.289,3.751,3.393,4.479c2.014,0.697,4.067,0.651,6.077-0.02c1.808-0.603,2.955-2.223,2.988-4.055
			c0.04-2.201-0.858-3.626-2.791-4.42c-0.76-0.312-1.549-0.536-2.343-0.745c-0.975-0.257-1.968-0.455-2.892-0.878
			c-0.523-0.239-0.959-0.582-0.944-1.219c0.015-0.639,0.472-0.968,1.003-1.172c0.976-0.375,1.975-0.384,2.969-0.07
			c0.53,0.167,0.88,0.537,1.14,1.028c0.163,0.307,0.042,0.8,0.424,0.921c0.322,0.102,0.707,0.005,1.065-0.004
			C45.962,30.594,46.046,30.596,46.13,30.595z M54.292,35.024c0,1.936,0.017,3.873-0.012,5.809
			c-0.007,0.483,0.135,0.624,0.603,0.594c0.587-0.038,1.182-0.05,1.766,0.002c0.598,0.053,0.785-0.125,0.78-0.75
			c-0.03-3.788-0.006-7.577-0.026-11.365c-0.002-0.49,0.121-0.65,0.626-0.634c1.156,0.038,2.315,0.004,3.472,0.017
			c0.305,0.004,0.472-0.052,0.46-0.407c-0.021-0.61-0.015-1.221-0.002-1.831c0.007-0.3-0.103-0.397-0.405-0.396
			c-3.809,0.009-7.619,0.008-11.428,0.001c-0.295-0.001-0.415,0.085-0.405,0.392c0.018,0.547,0.033,1.096-0.004,1.641
			c-0.031,0.455,0.083,0.626,0.58,0.608c1.156-0.04,2.315,0.005,3.472-0.022c0.418-0.01,0.534,0.121,0.53,0.533
			C54.281,31.151,54.292,33.088,54.292,35.024z"/>
		<path class="st0" d="M71.751,0.001c1.995,0.333,3.226,1.813,3.227,3.893c0.001,15.525,0.004,31.05-0.012,46.575
			c-0.001,0.57,0.072,0.848,0.732,0.844c0.765-0.005,1.403,0.379,1.947,0.92c2.896,2.882,5.8,5.757,8.696,8.64
			c1.654,1.647,1.657,3.308,0.017,4.944c-3.639,3.629-7.277,7.26-10.928,10.877c-0.325,0.322-0.465,0.641-0.462,1.103
			c0.02,2.928,0.012,5.856,0.01,8.784c-0.001,2.459-1.572,4.038-4.016,4.039c-2.907,0.001-5.814,0.015-8.721-0.013
			c-0.556-0.005-0.937,0.165-1.314,0.56c-1.033,1.081-2.119,2.112-3.157,3.188c-0.312,0.324-0.484,0.378-0.837,0.023
			c-4.179-4.191-8.373-8.369-12.58-12.532c-0.369-0.366-0.321-0.552,0.017-0.888c4.795-4.767,9.577-9.548,14.361-14.325
			c1.59-1.582,3.182-3.163,4.768-4.748c0.085-0.085,0.132-0.209,0.197-0.315c1.066-0.86,1.946-1.92,2.976-2.813
			c0.704-0.611,0.898-1.285,0.896-2.192c-0.026-16.136-0.023-32.271-0.003-48.407c0.001-0.652-0.171-0.794-0.801-0.793
			C53.621,7.386,40.477,7.386,27.333,7.366c-0.622-0.001-0.758,0.169-0.753,0.769c0.029,3.77,0.016,7.541,0.014,11.312
			c-0.001,2.012-1.171,3.186-3.171,3.187c-4.234,0-8.468,0.01-12.702-0.012c-0.534-0.003-0.657,0.152-0.657,0.67
			c0.013,19.717,0.014,39.433-0.004,59.15c-0.001,0.594,0.194,0.678,0.717,0.677c10.638-0.014,21.275-0.01,31.913-0.01
			c0.757,0,0.753-0.001,0.539,0.732c-0.601,2.06-1.21,4.118-1.788,6.184c-0.115,0.412-0.273,0.58-0.725,0.579
			C29.32,90.59,17.924,90.598,6.528,90.588c-1.878-0.002-3.19-1.004-3.77-2.783c-0.037-0.113-0.012-0.261-0.16-0.319
			c0-22.795,0-45.591,0-68.386c0.299-0.924,0.765-1.724,1.486-2.41C9.55,11.483,14.998,6.256,20.448,1.032
			C21.046,0.459,21.739,0.105,22.56,0c0.063,0.007,0.125,0.02,0.188,0.02c16.019-0.002,32.039-0.005,48.058-0.009
			C71.121,0.011,71.436,0.004,71.751,0.001z"/>
		<path class="st0" d="M97.402,54.241c-0.037,0.018-0.101,0.029-0.108,0.056c-0.385,1.411-1.602,2.16-2.514,3.147
			c-0.599,0.649-1.249,1.252-1.885,1.865c-1.385,1.336-3.187,1.334-4.555-0.018c-2.92-2.886-5.836-5.776-8.745-8.674
			c-1.51-1.504-1.502-3.274-0.003-4.772c1.102-1.101,2.2-2.208,3.307-3.304c1.391-1.378,3.211-1.385,4.599-0.007
			c2.913,2.893,5.807,5.806,8.738,8.682c0.559,0.548,0.813,1.237,1.167,1.886C97.402,53.482,97.402,53.862,97.402,54.241z"/>
		<path class="st0" d="M38.623,100c0.367-1.812,0.975-3.558,1.471-5.334c0.322-1.152,0.682-2.293,1-3.446
			c0.105-0.381,0.171-0.532,0.527-0.172c1.969,1.987,3.951,3.962,5.94,5.929c0.36,0.356,0.208,0.414-0.181,0.524
			c-2.766,0.782-5.526,1.586-8.287,2.386c-0.077,0.022-0.145,0.074-0.218,0.112C38.792,100,38.708,100,38.623,100z"/>
		<path class="st0" d="M39.824,49.175c7.31-0.001,14.619-0.002,21.929,0.001c1.434,0.001,2.474,0.696,2.837,1.872
			c0.589,1.908-0.703,3.697-2.698,3.698c-14.767,0.005-29.534,0.004-44.301,0c-1.682,0-2.873-1.167-2.877-2.779
			c-0.004-1.613,1.173-2.785,2.864-2.787C24.994,49.17,32.409,49.175,39.824,49.175z"/>
		<path class="st0" d="M63.698,61.571c-0.065,0.106-0.112,0.23-0.197,0.315c-1.587,1.585-3.178,3.166-4.768,4.748
			c-0.216-0.262-0.512-0.137-0.767-0.137c-13.374-0.007-26.748-0.006-40.121-0.007c-1.352,0-2.407-0.479-2.965-1.81
			c-0.7-1.671,0.569-3.689,2.382-3.752c0.147-0.005,0.295-0.002,0.442-0.002c14.722,0,29.443,0.001,44.165-0.002
			C62.559,60.925,63.217,60.989,63.698,61.571z"/>
		<path class="st0" d="M30.338,33.16c0.948,0,1.895,0.016,2.842-0.008c0.389-0.01,0.505,0.117,0.501,0.504
			c-0.018,1.747-0.013,3.495-0.003,5.243c0.002,0.278-0.068,0.488-0.298,0.649c-3.019,2.114-6.285,2.869-9.784,1.47
			c-2.855-1.141-4.011-3.572-4.289-6.477c-0.138-1.434-0.002-2.86,0.567-4.212c1.235-2.932,3.497-4.368,6.627-4.5
			c1.313-0.056,2.609,0.084,3.834,0.6c1.581,0.666,2.546,1.879,3.05,3.494c0.089,0.284,0.104,0.465-0.277,0.523
			c-0.769,0.117-1.532,0.278-2.297,0.422c-0.269,0.051-0.455,0.031-0.586-0.289c-0.602-1.473-1.816-2.077-3.311-2.069
			c-1.655,0.009-3.104,0.597-3.823,2.201c-0.906,2.021-0.859,4.113,0.071,6.112c0.853,1.833,2.864,2.605,4.995,2.059
			c0.304-0.078,0.603-0.189,0.893-0.311c1.434-0.604,1.483-0.708,1.427-2.229c-0.014-0.369-0.144-0.461-0.486-0.454
			c-0.842,0.019-1.685-0.011-2.526,0.014c-0.39,0.012-0.516-0.12-0.498-0.505c0.028-0.588,0.025-1.18,0.001-1.768
			c-0.015-0.356,0.099-0.482,0.463-0.474C28.401,33.173,29.369,33.16,30.338,33.16z"/>
		<path class="st0" d="M46.13,30.595c-0.084,0-0.169-0.002-0.253,0c-0.357,0.008-0.743,0.106-1.065,0.004
			c-0.382-0.121-0.261-0.614-0.424-0.921c-0.26-0.491-0.61-0.861-1.14-1.028c-0.995-0.314-1.994-0.305-2.969,0.07
			c-0.531,0.204-0.988,0.533-1.003,1.172c-0.015,0.637,0.421,0.98,0.944,1.219c0.924,0.423,1.917,0.622,2.892,0.878
			c0.794,0.209,1.583,0.433,2.343,0.745c1.933,0.794,2.831,2.219,2.791,4.42c-0.033,1.832-1.18,3.452-2.988,4.055
			c-2.011,0.67-4.063,0.717-6.077,0.02c-2.104-0.728-3.065-2.375-3.393-4.479c-0.043-0.276,0.046-0.386,0.316-0.408
			c0.776-0.062,1.553-0.128,2.327-0.21c0.297-0.031,0.386,0.096,0.466,0.364c0.673,2.254,2.769,3.196,4.942,2.241
			c0.355-0.156,0.655-0.382,0.895-0.683c0.691-0.866,0.468-1.952-0.532-2.422c-0.937-0.44-1.963-0.608-2.959-0.868
			c-1.304-0.341-2.623-0.665-3.639-1.64c-2.151-2.063-1.616-5.456,1.106-6.656c2.14-0.944,4.36-0.912,6.508-0.013
			c1.487,0.623,2.315,1.834,2.532,3.448c0.06,0.442-0.034,0.679-0.547,0.641C46.848,30.518,46.488,30.575,46.13,30.595z"/>
		<path class="st0" d="M54.292,35.024c0-1.936-0.011-3.873,0.009-5.809c0.004-0.411-0.112-0.542-0.53-0.533
			c-1.157,0.027-2.316-0.018-3.472,0.022c-0.498,0.017-0.612-0.153-0.58-0.608c0.038-0.545,0.022-1.094,0.004-1.641
			c-0.01-0.307,0.109-0.392,0.405-0.392c3.809,0.008,7.619,0.008,11.428-0.001c0.303-0.001,0.412,0.097,0.405,0.396
			c-0.014,0.61-0.019,1.221,0.002,1.831c0.012,0.355-0.155,0.41-0.46,0.407c-1.157-0.013-2.316,0.02-3.472-0.017
			c-0.505-0.016-0.629,0.144-0.626,0.634c0.019,3.788-0.004,7.577,0.026,11.365c0.005,0.625-0.182,0.803-0.78,0.75
			c-0.585-0.052-1.179-0.04-1.766-0.002c-0.468,0.03-0.61-0.111-0.603-0.594C54.309,38.897,54.292,36.96,54.292,35.024z"/>
	</g>
</g>
</svg>
