<?xml version="1.0" encoding="utf-8"?>
<!-- Generator: Adobe Illustrator 22.0.1, SVG Export Plug-In . SVG Version: 6.00 Build 0)  -->
<svg version="1.1" id="Layer_1" xmlns="http://www.w3.org/2000/svg" xmlns:xlink="http://www.w3.org/1999/xlink" x="0px" y="0px"
	 viewBox="0 0 30 30" style="enable-background:new 0 0 30 30;" xml:space="preserve">
<style type="text/css">
	.st0{fill:#FFFFFF;}
	.st1{fill-rule:evenodd;clip-rule:evenodd;fill:#FFFFFF;}
</style>
<g>
	<path class="st0" d="M14.996,0.004C6.711,0.004,0,6.719,0,15c0,8.289,6.711,14.996,14.996,14.996S30,23.289,30,15
		C30,6.719,23.281,0.004,14.996,0.004z M19.322,8.087c-0.606-0.14-1.186-0.214-1.739-0.214s-0.939,0.132-1.174,0.395
		c-0.247,0.247-0.358,0.742-0.358,1.467v1.005h2.83v2.983h-2.83v11.313h-3.786V13.723h-2.105V10.74h2.105V9.669
		c0-1.211,0.132-2.109,0.379-2.694c0.26-0.601,0.729-1.063,1.421-1.442c0.68-0.379,1.549-0.56,2.608-0.56
		c1.075,0,2.122,0.157,3.16,0.478L19.322,8.087z"/>
</g>
</svg>
