<?xml version="1.0" encoding="utf-8"?>
<!-- Generator: Adobe Illustrator 22.0.1, SVG Export Plug-In . SVG Version: 6.00 Build 0)  -->
<svg version="1.1" id="Layer_1" xmlns="http://www.w3.org/2000/svg" xmlns:xlink="http://www.w3.org/1999/xlink" x="0px" y="0px"
	 viewBox="0 0 100 100" style="enable-background:new 0 0 100 100;" xml:space="preserve">
<style type="text/css">
	.st0{fill:#FFFFFF;}
	.st1{fill:#E89528;}
	.st2{fill:#FDFBFC;}
	.st3{fill:#FDFDFD;}
	.st4{fill:none;}
</style>
<g id="bMZtBB.tif">
	<g>
		<path class="st0" d="M0.031,65.32c0.003-1.522,0.006-3.043,0.008-4.565c-0.003-0.509-0.006-1.017-0.008-1.526
			c0.003-1.522,0.006-3.043,0.008-4.565c-0.003-0.509-0.006-1.017-0.008-1.526c0.003-1.522,0.006-3.043,0.008-4.565
			c-0.003-0.509-0.006-1.017-0.008-1.526c0.003-1.522,0.006-3.043,0.008-4.565c-0.003-0.509-0.006-1.017-0.008-1.526
			c0.003-1.522,0.006-3.043,0.008-4.565c-0.003-0.509-0.006-1.017-0.008-1.526c0.003-1.522,0.006-3.043,0.008-4.565
			c-0.003-0.509-0.006-1.017-0.008-1.526c0.003-1.522,0.006-3.043,0.008-4.565c-0.003-0.509-0.006-1.017-0.008-1.526
			c-0.193-1.242,0.531-1.532,1.561-1.502c0.505,0.144,1.012,0.149,1.52,0.013c1.524,0.131,3.048,0.145,4.571-0.013
			c0.505,0.144,1.012,0.149,1.52,0.013c1.524,0.131,3.048,0.145,4.571-0.013c0.505,0.144,1.012,0.149,1.52,0.013
			c1.524,0.131,3.048,0.145,4.571-0.013c0.505,0.144,1.012,0.149,1.52,0.013c1.524,0.131,3.048,0.145,4.571-0.013
			c0.505,0.144,1.012,0.149,1.52,0.013c1.524,0.131,3.048,0.145,4.571-0.013c0.505,0.144,1.012,0.149,1.52,0.013
			c1.524,0.131,3.048,0.145,4.571-0.013c0.505,0.144,1.012,0.149,1.52,0.013c1.524,0.131,3.048,0.145,4.572-0.013
			c0.505,0.144,1.012,0.149,1.52,0.013c1.524,0.131,3.048,0.145,4.572-0.013c0.505,0.144,1.012,0.149,1.52,0.013
			c1.524,0.131,3.048,0.145,4.572-0.013c0.505,0.144,1.012,0.149,1.52,0.013c1.524,0.131,3.048,0.145,4.572-0.013
			c0.505,0.144,1.012,0.149,1.52,0.013c1.524,0.131,3.048,0.145,4.572-0.013c0.505,0.144,1.012,0.149,1.52,0.013
			c1.524,0.131,3.048,0.145,4.572-0.013c0.505,0.144,1.012,0.149,1.52,0.013c1.524,0.131,3.048,0.145,4.572-0.013
			c0.505,0.144,1.012,0.149,1.52,0.013c1.524,0.131,3.048,0.145,4.572-0.013c0.505,0.144,1.012,0.149,1.52,0.013
			c1.524,0.131,3.048,0.145,4.572-0.013c0.505,0.144,1.012,0.149,1.52,0.013c1.524,0.131,3.048,0.146,4.571-0.013
			c0.258,0.014,0.515,0.028,0.773,0.042c0.056,1.4,0.113,2.801,0.169,4.201c0.003,0.509,0.006,1.017,0.008,1.526
			c-0.003,1.522-0.006,3.043-0.008,4.565c0.003,0.509,0.006,1.017,0.008,1.526c-0.003,1.522-0.006,3.043-0.008,4.565
			c0.003,0.509,0.006,1.017,0.008,1.526c-0.003,1.522-0.006,3.043-0.008,4.565c0.003,0.509,0.006,1.017,0.008,1.526
			c-0.003,1.522-0.006,3.043-0.008,4.565c0.003,0.509,0.006,1.017,0.008,1.526c-0.003,1.522-0.006,3.043-0.008,4.565
			c0.003,0.509,0.006,1.017,0.008,1.526c-0.003,1.522-0.006,3.043-0.008,4.565c0.003,0.509,0.006,1.017,0.008,1.526
			c-0.003,1.522-0.006,3.043-0.008,4.565c0.003,0.509,0.006,1.017,0.008,1.526c-0.003,1.522-0.006,3.043-0.008,4.565
			c0.002,0.509,0.005,1.017,0.007,1.526c-0.294,1.763-1.246,2.88-3.077,3.134c-0.51,0-1.021,0-1.531,0
			c-1.52,0.003-3.04,0.006-4.559,0.009c-0.511-0.003-1.021-0.006-1.532-0.009c-1.52,0.003-3.04,0.006-4.559,0.009
			c-0.511-0.003-1.021-0.006-1.532-0.009c-1.52,0.003-3.04,0.006-4.559,0.009c-0.511-0.003-1.021-0.006-1.532-0.009
			c-1.52,0.003-3.04,0.006-4.559,0.009c-0.511-0.003-1.021-0.006-1.532-0.009c-1.52,0.003-3.04,0.006-4.559,0.009
			c-0.511-0.003-1.021-0.006-1.532-0.009c-1.52,0.003-3.04,0.006-4.559,0.009c-0.511-0.003-1.021-0.006-1.532-0.009
			c-1.52,0.003-3.04,0.006-4.559,0.009c-0.511-0.003-1.021-0.006-1.532-0.009c-1.52,0.003-3.04,0.006-4.559,0.009
			c-0.511-0.003-1.021-0.006-1.532-0.009c-1.52,0.003-3.04,0.006-4.559,0.009c-0.511-0.003-1.021-0.006-1.532-0.009
			c-1.52,0.003-3.04,0.006-4.559,0.009c-0.511-0.003-1.021-0.006-1.532-0.009c-1.52,0.003-3.04,0.006-4.559,0.009
			c-0.511-0.003-1.021-0.006-1.532-0.009c-1.52,0.003-3.04,0.006-4.559,0.009c-0.511-0.003-1.021-0.006-1.532-0.009
			c-1.52,0.003-3.04,0.006-4.559,0.009c-0.511-0.003-1.021-0.006-1.532-0.009c-1.52,0.003-3.04,0.006-4.559,0.009
			c-0.511-0.003-1.021-0.006-1.532-0.009c-1.621,0.003-3.243,0.006-4.864,0.009c-0.409-0.003-0.818-0.006-1.227-0.009
			c-1.234,0.017-2.371-0.241-3.281-1.15c-0.11-0.158-0.221-0.317-0.331-0.475c-0.513-1.383-0.208-2.837-0.372-4.251
			c-0.003-0.509-0.006-1.017-0.008-1.526c0.003-1.522,0.006-3.043,0.008-4.565C0.037,66.337,0.034,65.829,0.031,65.32z
			 M40.268,42.524c-1.645-0.283-3.291-0.56-4.934-0.851c-1.033-0.183-1.561,0.235-1.552,1.283c0.015,1.974,0.046,3.947,0.071,5.921
			c-0.129,0.508-0.122,1.015,0.013,1.521c-0.151,1.523-0.14,3.046-0.011,4.57c0.031,1.09,0.594,1.332,1.539,0.968
			c1.056-0.126,2.139-0.308,2.414,1.173c-0.033,0.455,0.178,0.832,0.386,1.21c0.286,1.151,0.623,2.284,1.159,3.348
			c0.371,1.146,0.647,2.336,1.137,3.429c0.681,1.52,2.445,2.168,3.97,1.61c1.525-0.558,2.529-2.241,2.06-3.766
			c-0.576-1.872-1.117-3.766-1.989-5.535c-0.08-0.486,0.085-0.733,0.612-0.625c0.244,0.266,0.555,0.355,0.904,0.342
			c1.048,0.59,2.178,0.966,3.334,1.277c0.369,0.283,0.785,0.445,1.247,0.492c1.08,0.511,2.172,0.991,3.348,1.243
			c0.239,0.275,0.555,0.35,0.901,0.344c1.048,0.592,2.182,0.959,3.334,1.281c0.374,0.271,0.784,0.45,1.249,0.487
			c1.682,0.663,3.358,1.344,5.049,1.985c1.162,0.44,1.752-0.033,1.746-1.244c-0.012-2.471-0.048-4.941-0.073-7.412
			c0.129-0.508,0.122-1.015-0.013-1.521c0.152-1.523,0.137-3.046,0.013-4.57c0.129-0.508,0.122-1.015-0.013-1.521
			c0.152-1.523,0.137-3.046,0.013-4.57c0.129-0.508,0.122-1.015-0.013-1.521c0.152-1.523,0.137-3.046,0.013-4.57
			c0.129-0.508,0.122-1.015-0.013-1.521c0.242-2.593-0.142-2.908-2.483-2.003c-0.607,0.235-1.193,0.525-1.788,0.789
			c-0.872,0.144-1.671,0.485-2.438,0.909c-2.49,0.781-4.922,1.715-7.308,2.769c-0.875,0.315-1.749,0.63-2.624,0.945
			c-2.374,0.911-4.747,1.821-7.121,2.732C41.692,42.123,40.98,42.324,40.268,42.524z"/>
		<path class="st0" d="M3.407,40.645c1.621-0.003,3.243-0.006,4.864-0.01c0.409,0.003,0.818,0.006,1.227,0.009
			c1.621-0.003,3.243-0.006,4.864-0.009c0.409,0.003,0.818,0.006,1.227,0.009c1.621-0.003,3.243-0.006,4.864-0.009
			c0.409,0.003,0.818,0.006,1.227,0.009c1.621-0.003,3.243-0.006,4.864-0.009c0.409,0.003,0.818,0.006,1.227,0.009
			c1.621-0.003,3.243-0.006,4.864-0.009c0.409,0.003,0.818,0.006,1.227,0.009c1.621-0.003,3.243-0.006,4.864-0.009
			c0.409,0.003,0.818,0.006,1.227,0.009c1.621-0.003,3.243-0.006,4.864-0.009c0.409,0.003,0.818,0.006,1.227,0.009
			c1.621-0.003,3.243-0.006,4.864-0.009c0.409,0.003,0.818,0.006,1.227,0.009c1.621-0.003,3.243-0.006,4.864-0.009
			c0.409,0.003,0.818,0.006,1.227,0.009c1.621-0.003,3.243-0.006,4.864-0.009c0.409,0.003,0.818,0.006,1.227,0.009
			c1.621-0.003,3.243-0.006,4.864-0.009c0.409,0.003,0.818,0.006,1.227,0.009c1.621-0.003,3.243-0.006,4.864-0.009
			c0.409,0.003,0.818,0.006,1.227,0.009c1.621-0.003,3.243-0.006,4.864-0.009c0.409,0.003,0.818,0.006,1.227,0.009
			c1.621-0.003,3.243-0.006,4.864-0.009c0.409,0.003,0.818,0.006,1.227,0.009c1.621-0.003,3.243-0.006,4.864-0.009
			c0.409,0.003,0.818,0.006,1.227,0.009c1.207,0.167,2.467-0.142,3.632,0.403c0.315,0.29,0.631,0.579,0.946,0.869
			c0.638,1.049,0.547,2.233,0.623,3.386c0.003,0.509,0.006,1.017,0.008,1.526c-0.003,1.522-0.006,3.043-0.008,4.565
			c0.003,0.509,0.006,1.017,0.008,1.526c-0.003,1.522-0.006,3.043-0.008,4.565c0.002,0.509,0.005,1.017,0.007,1.526
			c-0.113,0.116-0.226,0.231-0.338,0.347c-0.509,0-1.018,0.001-1.527,0.001c-1.521,0.002-3.043,0.005-4.564,0.007
			c-0.509-0.002-1.018-0.005-1.527-0.007c-1.521,0.002-3.042,0.005-4.564,0.007c-0.509-0.002-1.018-0.005-1.527-0.007
			c-1.521,0.002-3.042,0.005-4.564,0.007c-0.509-0.002-1.018-0.005-1.527-0.007c-1.521,0.002-3.042,0.005-4.564,0.007
			c-0.509-0.002-1.018-0.005-1.527-0.007c-1.521,0.002-3.042,0.005-4.564,0.007c-0.509-0.002-1.018-0.005-1.527-0.007
			c-1.521,0.002-3.042,0.005-4.564,0.007c-0.509-0.002-1.018-0.005-1.527-0.007c-1.521,0.002-3.042,0.005-4.564,0.007
			c-0.509-0.002-1.018-0.005-1.527-0.007c-1.521,0.002-3.042,0.005-4.564,0.007c-0.509-0.002-1.018-0.005-1.527-0.007
			c-1.521,0.002-3.043,0.005-4.564,0.007c-0.509-0.002-1.018-0.005-1.527-0.007c-1.521,0.002-3.043,0.005-4.564,0.007
			c-0.509-0.002-1.018-0.005-1.527-0.007c-1.521,0.002-3.043,0.005-4.564,0.007c-0.509-0.002-1.018-0.005-1.527-0.007
			c-1.521,0.002-3.043,0.005-4.564,0.007c-0.509-0.002-1.018-0.005-1.527-0.007c-1.521,0.002-3.043,0.005-4.564,0.007
			c-0.509-0.002-1.018-0.005-1.527-0.007c-1.521,0.002-3.043,0.005-4.564,0.007c-0.509-0.002-1.018-0.005-1.527-0.007
			c-1.521,0.002-3.043,0.005-4.564,0.007c-0.509-0.002-1.018-0.005-1.527-0.007c-1.521,0.002-3.042,0.005-4.564,0.007
			c-0.509-0.002-1.018-0.005-1.527-0.007c-0.817-0.053-0.548-0.677-0.575-1.125c-0.04-0.654-0.042-1.31-0.061-1.964
			c-0.003-0.509-0.006-1.017-0.008-1.526c0.003-1.522,0.006-3.043,0.008-4.565c-0.003-0.509-0.006-1.017-0.008-1.526
			c0.003-1.522,0.006-3.043,0.009-4.565c0.123-0.605,0.247-1.21,0.37-1.814c0.394-0.409,0.789-0.818,1.183-1.227
			C2.188,40.912,2.798,40.778,3.407,40.645z M39.032,53.223c1.649,0.955,3.275,0.841,4.586-0.322
			c1.307-1.16,1.611-2.748,0.869-4.542c-0.054-0.408-0.273-0.705-0.621-0.914c-1.653-1.692-3.997-1.775-5.58-0.198
			c-1.542,1.537-1.501,3.802,0.099,5.483C38.525,52.994,38.712,53.195,39.032,53.223z M13.147,53.794
			c2.657,0.055,4.175-1.563,3.971-4.231c-0.003-1.281-0.602-2.195-1.721-2.787c-1.728-1.003-3.485-0.841-4.782,0.443
			c-1.321,1.308-1.5,2.997-0.506,4.77C10.764,53.193,11.753,53.834,13.147,53.794z M31.111,50.052
			c0.025-2.13-1.648-3.867-3.778-3.923c-2.226-0.059-4.006,1.619-4.044,3.813c-0.037,2.173,1.727,3.933,3.938,3.928
			C29.364,53.865,31.087,52.171,31.111,50.052z"/>
	</g>
</g>
</svg>
