<?xml version="1.0" encoding="utf-8"?>
<!-- Generator: Adobe Illustrator 22.0.1, SVG Export Plug-In . SVG Version: 6.00 Build 0)  -->
<svg version="1.1" id="Layer_1" xmlns="http://www.w3.org/2000/svg" xmlns:xlink="http://www.w3.org/1999/xlink" x="0px" y="0px"
	 viewBox="0 0 100 100" style="enable-background:new 0 0 100 100;" xml:space="preserve">
<style type="text/css">
	.st0{fill:#FFFFFF;}
	.st1{fill:#E89528;}
	.st2{fill:#FDFBFC;}
	.st3{fill:#FDFDFD;}
	.st4{fill:none;}
</style>
<g>
	<path class="st4" d="M49.398,11.198c8.463-0.23,15.136,3.505,20.422,10.153c0.869-5.756-8.538-14.085-16.878-15.121
		c-13.526-1.68-22.371,7.992-23.45,16.212C34.513,15.441,40.969,11.427,49.398,11.198z"/>
	<path class="st4" d="M34.905,61.422c0.444,0.822,1.445,1.293,2.112,2.034c5.894,6.548,13.328,8.075,20.78,4.26
		c3.322-1.701,5.573-4.607,7.93-7.37c0.332-0.389,0.569-0.878,0.387-1.531c-3.229,1.053-6.386,2.311-9.841,2.246
		c-0.223-0.004-0.514,0.285-0.667,0.511c-0.887,1.307-2.156,1.646-3.645,1.577c-1.152-0.053-2.309-0.004-3.464-0.016
		c-2.221-0.024-3.634-1.18-3.791-3.088c-0.159-1.926,0.937-2.97,3.135-3.571c1.578-0.432,3.023,0.268,4.54,0.088
		c1.172-0.139,2.313-0.036,3.108,1.059c0.239,0.329,0.729,0.487,1.038,0.345c1.079-0.497,2.257-0.321,3.344-0.592
		c2.317-0.579,4.663-1.137,6.708-2.474c0.906-0.593,2.171-0.787,2.618-1.903c1.328-3.317,2.047-6.74,1.483-10.455
		c-0.837,0.406-1.598,0.775-2.486,1.205c0.069-0.574,0.13-1.037,0.179-1.501c0.33-3.114,0.573-6.23,0.111-9.353
		c-0.248-1.676-0.608-3.318-1.737-4.663c-0.63-0.751-1.258-1.074-2.347-0.589c-9.523,4.237-19.099,4.25-28.635,0.056
		c-1.201-0.528-1.88-0.207-2.572,0.647c-0.712,0.88-1.09,1.918-1.341,3.001c-0.404,1.741-0.544,3.512-0.551,5.298
		c-0.009,2.346,0.293,4.672,0.527,7.115c-0.28-0.136-0.449-0.21-0.61-0.297c-2.171-1.178-2.175-1.178-2.169,1.202
		c0.002,0.672-0.036,1.355,0.063,2.015C29.917,52.029,32.383,56.747,34.905,61.422z"/>
	<path class="st0" d="M71.406,70.335c-0.977-0.134-1.525-0.051-1.561,1.126c-0.018,0.591-0.366,1.186-0.625,1.753
		c-3.859,8.44-9.267,15.93-14.476,23.542c-0.04,0.059-0.156,0.067-0.345,0.14c-0.297-4.242-0.575-8.446-0.903-12.646
		c-0.055-0.71,0.416-0.886,0.83-1.188c1.867-1.364,3.023-3.135,3.273-5.681C52.5,79.42,47.543,79.41,42.453,77.39
		c0.237,2.552,1.414,4.313,3.279,5.676c0.415,0.304,0.874,0.487,0.818,1.194c-0.33,4.197-0.608,8.398-0.912,12.724
		c-0.238-0.183-0.371-0.242-0.442-0.345c-4.099-5.932-8.189-11.87-11.728-18.162c-1.317-2.341-2.72-4.669-3.315-7.321
		c-0.196-0.875-0.529-0.918-1.244-0.846C14.173,71.791,2.004,84.531,0.226,99h99.517C97.937,84.366,86.479,72.403,71.406,70.335z"/>
	<path class="st0" d="M64.484,65.961c0.001-0.006,0.004-0.01,0.005-0.016l0,0c-0.004,0.006-0.007,0.013-0.011,0.019
		C64.48,65.964,64.482,65.963,64.484,65.961z"/>
	<path class="st0" d="M64.457,65.977c0.006,0,0.01-0.003,0.015-0.003c0.002-0.003,0.003-0.006,0.005-0.009
		C64.471,65.969,64.464,65.973,64.457,65.977z"/>
	<path class="st0" d="M26.176,52.683c1.117-0.007,1.536,0.383,1.891,1.383c2.196,6.184,5.46,11.669,10.811,15.67
		c7.308,5.463,16.451,5.13,23.348-0.84c0.833-0.721,1.744-1.438,2.138-2.532c-0.032-0.113,0.03-0.26,0.108-0.389
		c-0.006,0-0.01,0.003-0.015,0.003c0,0,0.031-0.032,0.031-0.032c0,0,0,0,0,0l0,0c-0.001,0.006-0.004,0.011-0.005,0.016
		c0.161-0.101,0.357-0.194,0.474-0.076c0.474-0.165,0.819-0.533,1.144-0.943c1.256-1.588,2.449-3.233,3.297-5.066
		c1.058-2.288,2.312-4.355,4.372-5.918c0.789-0.599,1.39-1.278,2.47-1.514c3.713-0.81,5.922-3.657,5.952-7.446
		c0.015-1.877,0.017-3.754-0.006-5.631c-0.031-2.56-1.059-4.933-3.331-5.82c-2.701-1.055-2.701-2.823-2.542-5.017
		c0.077-1.053,0.026-2.117,0.008-3.175c-0.07-4.174-1.158-8.07-3.281-11.663C67.392,4.131,55.64-1.025,44.59,1.408
		C34.087,3.719,26.997,9.864,24.17,20.459c-0.905,3.392-0.595,6.887-0.584,10.345c0.003,1.021-0.195,1.552-1.249,2.018
		c-2.877,1.271-4.468,3.55-4.488,6.785c-0.01,1.588-0.004,3.176-0.003,4.765C17.85,49.615,20.91,52.718,26.176,52.683z M52.941,6.23
		c8.341,1.036,17.747,9.365,16.878,15.121c-5.287-6.648-11.959-10.383-20.422-10.153c-8.428,0.229-14.885,4.242-19.906,11.244
		C30.57,14.222,39.416,4.55,52.941,6.23z M29.049,44.661c-0.006-2.38-0.002-2.38,2.169-1.202c0.161,0.088,0.33,0.161,0.61,0.297
		c-0.234-2.443-0.536-4.768-0.527-7.115c0.007-1.785,0.146-3.556,0.551-5.298c0.252-1.083,0.629-2.121,1.341-3.001
		c0.692-0.854,1.371-1.175,2.572-0.647c9.536,4.194,19.113,4.181,28.635-0.056c1.089-0.484,1.717-0.161,2.347,0.589
		c1.129,1.345,1.489,2.987,1.737,4.663c0.462,3.123,0.219,6.239-0.111,9.353c-0.049,0.464-0.11,0.927-0.179,1.501
		c0.888-0.43,1.649-0.8,2.486-1.205c0.563,3.716-0.155,7.139-1.483,10.455c-0.447,1.116-1.712,1.31-2.618,1.903
		c-2.044,1.338-4.391,1.896-6.708,2.474c-1.087,0.271-2.265,0.095-3.344,0.592c-0.309,0.142-0.799-0.016-1.038-0.345
		c-0.795-1.095-1.936-1.198-3.108-1.059c-1.517,0.18-2.962-0.52-4.54-0.088c-2.198,0.601-3.293,1.646-3.135,3.571
		c0.157,1.908,1.57,3.065,3.791,3.088c1.155,0.012,2.311-0.037,3.464,0.016c1.489,0.069,2.758-0.27,3.645-1.577
		c0.153-0.225,0.445-0.515,0.667-0.511c3.454,0.065,6.612-1.193,9.841-2.246c0.182,0.653-0.055,1.142-0.387,1.531
		c-2.356,2.764-4.608,5.669-7.93,7.37c-7.451,3.815-14.886,2.288-20.78-4.26c-0.667-0.742-1.669-1.212-2.112-2.034
		c-2.522-4.676-4.989-9.393-5.793-14.747C29.013,46.016,29.05,45.333,29.049,44.661z"/>
	<path class="st0" d="M64.365,66.363c0.019,0.066,0.061,0.123,0.174,0.147c0.277,0.061,0.576-0.218,0.493-0.51
		c-0.017-0.059-0.045-0.087-0.074-0.116c-0.145,0.051-0.304,0.08-0.477,0.087C64.45,66.108,64.41,66.238,64.365,66.363z"/>
	<polygon class="st0" points="64.489,65.945 64.457,65.977 64.488,65.945 	"/>
	<path class="st0" d="M64.488,65.945l-0.031,0.031c0.006-0.004,0.014-0.008,0.02-0.012C64.481,65.959,64.485,65.952,64.488,65.945z"
		/>
	<path class="st0" d="M64.473,65.974c-0.078,0.129-0.14,0.277-0.108,0.389c0.045-0.125,0.085-0.255,0.116-0.391
		C64.478,65.973,64.476,65.974,64.473,65.974z"/>
	<polygon class="st0" points="64.484,65.961 64.478,65.965 64.473,65.974 64.481,65.972 	"/>
	<path class="st0" d="M64.484,65.961c-0.001,0.004-0.002,0.007-0.003,0.011c0.173-0.007,0.332-0.037,0.477-0.087
		C64.841,65.767,64.645,65.86,64.484,65.961z"/>
</g>
</svg>
