<?xml version="1.0" encoding="utf-8"?>
<!-- Generator: Adobe Illustrator 22.0.1, SVG Export Plug-In . SVG Version: 6.00 Build 0)  -->
<svg version="1.1" id="Layer_1" xmlns="http://www.w3.org/2000/svg" xmlns:xlink="http://www.w3.org/1999/xlink" x="0px" y="0px"
	 viewBox="0 0 30 30" style="enable-background:new 0 0 30 30;" xml:space="preserve">
<style type="text/css">
	.st0{fill:#FFFFFF;}
	.st1{fill-rule:evenodd;clip-rule:evenodd;fill:#FFFFFF;}
</style>
<g>
	<path class="st0" d="M14.996,0.004C6.711,0.004,0,6.744,0,15.008c0,8.289,6.711,14.988,14.996,14.988
		C23.277,29.996,30,23.297,30,15.008C30,6.744,23.277,0.004,14.996,0.004z M16.891,8.779c0.948,1.409,0.733,3.148-0.531,4.31
		c-0.309,0.272-0.655,0.519-0.923,0.856c-0.49,0.544-0.433,1.063,0.136,1.566c0.449,0.362,0.931,0.716,1.36,1.112
		c1.697,1.541,1.656,3.609-0.082,5.125c-1.701,1.459-5.372,1.772-7.284,0.577c-1.751-1.072-1.879-3.197-0.268-4.491
		c1.141-0.907,2.53-1.105,3.922-1.269c0.14,0,0.293,0,0.573,0c-0.523-0.66-0.762-1.269-0.544-1.986
		c0.132-0.453-0.235-0.255-0.379-0.255c-1.232,0.033-2.311-0.329-3.044-1.401c-1.261-1.788-0.482-4.276,1.644-5.273
		c0.725-0.337,1.491-0.519,2.286-0.543c1.541,0,3.082,0,4.692,0c-0.688,0.634-1.446,0.816-2.41,0.709
		C16.388,8.202,16.668,8.483,16.891,8.779z M23.857,10.188h-1.932v1.904h-1.269v-1.904h-1.916V8.87h1.916V6.966h1.269V8.87h1.932
		V10.188z"/>
	<path class="st0" d="M12.38,7.873c-0.787,0.28-1.215,0.857-1.302,1.68c-0.132,1.186,0.173,2.324,0.894,3.28
		c0.601,0.832,1.5,1.112,2.369,0.775c0.894-0.297,1.302-0.956,1.289-2.266c-0.074-0.931-0.367-2.035-1.199-2.917
		C13.871,7.848,13.175,7.625,12.38,7.873z"/>
	<path class="st0" d="M11.268,17.694c-1.59,0.775-1.73,2.727-0.268,3.749c0.787,0.552,1.685,0.692,2.608,0.75
		c0.663,0.033,1.289-0.082,1.891-0.354c0.704-0.33,1.178-0.857,1.269-1.665c0.115-1.096-1.409-2.974-2.517-3.032
		C13.22,17.085,12.207,17.2,11.268,17.694z"/>
</g>
</svg>
