<?xml version="1.0" encoding="utf-8"?>
<!-- Generator: Adobe Illustrator 22.0.1, SVG Export Plug-In . SVG Version: 6.00 Build 0)  -->
<svg version="1.1" id="Layer_1" xmlns="http://www.w3.org/2000/svg" xmlns:xlink="http://www.w3.org/1999/xlink" x="0px" y="0px"
	 viewBox="0 0 100 100" style="enable-background:new 0 0 100 100;" xml:space="preserve">
<style type="text/css">
	.st0{fill:#FFFFFF;}
	.st1{fill:#E89528;}
	.st2{fill:#FDFBFC;}
	.st3{fill:#FDFDFD;}
	.st4{fill:none;}
</style>
<g id="bJKapK.tif">
	<path class="st0" d="M86.266,51.083c1.031-0.951,1.828-2.138,2.979-2.97c0.594-0.277,1.188-0.553,1.781-0.83
		c1.052-0.245,2.121-0.257,3.193-0.229c0.267,0.064,0.534,0.128,0.802,0.192c0.66,0.289,1.321,0.578,1.981,0.868
		c0.193,0.145,0.386,0.289,0.579,0.434c2.818,3.009,3.154,5.83,1.112,9.328c-2.169,2.517-4.339,5.034-6.508,7.552
		c-2.896,3.289-5.798,6.572-8.687,9.867c-2.475,2.823-4.989,5.614-7.387,8.502c-2.256,2.717-4.889,4.855-8.239,6.049
		c-0.522,0.141-1.045,0.282-1.567,0.423c-1.074,0.139-2.148,0.279-3.221,0.418c-0.403,0-0.806,0-1.209,0.001
		c-0.928-0.069-1.856-0.083-2.784,0.009c-0.403-0.003-0.806-0.006-1.209-0.009c-0.928-0.069-1.856-0.083-2.784,0.009
		c-0.403-0.003-0.806-0.006-1.209-0.009c-0.928-0.069-1.856-0.083-2.784,0.009c-0.403-0.003-0.806-0.006-1.209-0.009
		c-0.928-0.069-1.856-0.083-2.784,0.009c-0.403-0.003-0.806-0.006-1.209-0.009c-0.928-0.069-1.856-0.083-2.784,0.009
		c-0.403-0.003-0.806-0.006-1.209-0.009c-0.928-0.069-1.856-0.083-2.784,0.009c-0.403-0.003-0.806-0.006-1.209-0.009
		c-0.928-0.069-1.856-0.083-2.784,0.009c-0.403-0.003-0.806-0.006-1.209-0.009c-0.928-0.069-1.856-0.083-2.784,0.009
		c-0.403-0.003-0.806-0.006-1.209-0.009c-1.518-0.297-2.701,0.105-3.749,1.347c-1.261,1.494-2.736,2.808-4.124,4.194
		c-0.239,0.239-0.443,0.642-0.886,0.296c-0.13-0.132-0.261-0.263-0.391-0.395c-0.411-0.507-0.869-0.965-1.394-1.355
		c-0.152-0.257-0.353-0.465-0.62-0.606c-0.41-0.519-0.878-0.979-1.407-1.376c-0.147-0.252-0.34-0.457-0.604-0.589
		c-0.414-0.527-0.893-0.987-1.424-1.393c-0.158-0.151-0.315-0.302-0.473-0.453c-0.497-0.6-1.053-1.14-1.67-1.616
		c-0.141-0.256-0.34-0.454-0.598-0.593c-0.396-0.386-0.791-0.772-1.187-1.158c-0.216-0.328-0.493-0.594-0.824-0.804
		c-0.343-0.453-0.747-0.842-1.204-1.179c-0.21-0.322-0.48-0.582-0.805-0.785c-0.409-0.4-0.817-0.799-1.226-1.199
		c-0.242-0.234-0.483-0.468-0.725-0.702c-0.46-0.444-0.92-0.889-1.379-1.333c-0.212-0.206-0.424-0.411-0.636-0.617
		c-0.407-0.513-0.871-0.969-1.395-1.363c-0.154-0.254-0.351-0.463-0.617-0.602c-0.769-0.775-1.517-1.573-2.316-2.317
		c-0.397-0.37-0.352-0.588,0.012-0.948c5.267-5.206,10.509-10.436,15.783-15.636c1.713-1.689,3.789-2.881,5.882-4.035
		c0.596-0.244,1.192-0.488,1.789-0.733c1.332-0.37,2.664-0.739,3.996-1.109c0.401-0.063,0.801-0.126,1.202-0.189
		c1.064-0.07,2.127-0.14,3.191-0.21c0.334,0.006,0.668,0.011,1.002,0.017c0.864,0.077,1.727,0.154,2.591,0.231
		c0.309,0.196,0.654,0.196,1.002,0.188c0.799,0.199,1.597,0.398,2.396,0.596c0.164,0.173,0.37,0.22,0.598,0.203
		c0.765,0.367,1.558,0.651,2.389,0.825c0.147,0.201,0.371,0.193,0.584,0.217c0.898,0.525,1.864,0.274,2.811,0.249
		c0.403,0.088,0.806,0.088,1.21,0.01c0.928,0.07,1.856,0.087,2.783-0.01c0.403,0.088,0.806,0.088,1.21,0.01
		c0.928,0.07,1.856,0.087,2.783-0.01c0.402,0.088,0.806,0.088,1.21,0.01c0.929,0.07,1.859,0.087,2.787-0.011
		c0.401,0.088,0.803,0.087,1.205,0.011c0.928,0.07,1.856,0.087,2.783-0.01c0.402,0.088,0.806,0.088,1.21,0.01
		c0.929,0.023,1.858,0.045,2.788,0.068c0.267,0.067,0.534,0.134,0.802,0.201c0.596,0.276,1.192,0.552,1.788,0.828
		c0.265,0.208,0.529,0.416,0.794,0.624c0.387,0.464,0.774,0.927,1.162,1.391c0.145,0.267,0.29,0.534,0.435,0.801
		c0.173,0.668,0.347,1.337,0.52,2.005c0.025,0.321,0.05,0.642,0.074,0.964c-0.349,0.388-0.142,0.89-0.279,1.333
		c-0.932,3.026-3.03,4.626-6.091,5.087c-0.334,0-0.668,0-1.002,0c-0.997,0.002-1.994,0.004-2.991,0.006
		c-0.334-0.002-0.668-0.004-1.002-0.006c-0.997,0.002-1.994,0.004-2.99,0.006c-0.334-0.002-0.668-0.004-1.002-0.006
		c-0.997,0.002-1.994,0.004-2.99,0.006c-2.64-0.157-3.881,1.118-3.298,3.386c0.287,0.825,0.809,1.393,1.702,1.554
		c0.386,0.213,0.791,0.191,1.202,0.099c0.927,0.08,1.854,0.111,2.78-0.016c0.403,0.109,0.807,0.107,1.212,0.016
		c0.93,0.08,1.859,0.111,2.787-0.016c0.4,0.109,0.802,0.107,1.205,0.016c0.927,0.08,1.854,0.111,2.78-0.016
		c0.4,0.106,0.8,0.119,1.2,0.003c1.166,0.047,2.3-0.116,3.396-0.523c3.902-1.262,6.56-3.78,7.795-7.731
		c0.105-0.272,0.294-0.543,0.301-0.818c0.047-1.845,0.844-3.318,2.163-4.551C80.772,57.404,83.561,54.28,86.266,51.083z"/>
	<path class="st0" d="M68.075,26.421c0.928,0.07,1.856,0.087,2.783-0.01c0.402,0.088,0.806,0.088,1.21,0.01
		c0.928,0.07,1.856,0.087,2.783-0.01c0.402,0.088,0.806,0.088,1.21,0.011c0.798,0.049,1.504,0.351,2.163,0.784
		c0.13,0.13,0.26,0.26,0.39,0.389c0.322,0.537,0.61,1.089,0.742,1.708c-0.017,0.403-0.034,0.805-0.051,1.208
		c-0.35,1.431-0.796,2.832-1.345,4.2c-0.326,0.652-0.652,1.305-0.978,1.957c-1.82,2.951-4.204,5.347-7.11,7.23
		c-0.732,0.38-1.465,0.761-2.197,1.141c-1.466,0.47-2.932,0.94-4.398,1.411c-0.404,0.019-0.817-0.023-1.192,0.184
		c-0.997,0.057-1.994,0.114-2.991,0.171c-0.402-0.027-0.805-0.055-1.207-0.082c-0.795-0.091-1.589-0.182-2.384-0.273
		c-0.291-0.224-0.651-0.17-0.98-0.24c-0.741-0.228-1.481-0.457-2.222-0.685c-0.259-0.1-0.518-0.2-0.777-0.299
		c-0.671-0.321-1.343-0.641-2.014-0.962c-0.155-0.201-0.365-0.312-0.608-0.37c-0.518-0.342-1.036-0.685-1.554-1.027
		c-0.136-0.204-0.318-0.346-0.553-0.419c-0.53-0.467-1.059-0.933-1.589-1.4c-0.235-0.241-0.47-0.482-0.704-0.724
		c-0.404-0.473-0.807-0.947-1.211-1.42c-0.051-0.19-0.16-0.332-0.337-0.421c-0.456-0.712-0.912-1.424-1.368-2.137
		c-0.04-0.174-0.06-0.359-0.246-0.454c-0.29-0.662-0.58-1.324-0.87-1.986c-0.113-0.268-0.226-0.537-0.339-0.805
		c-0.204-0.731-0.407-1.462-0.611-2.193c0.013-0.283,0.009-0.562-0.167-0.806c0.262-2.457,1.136-3.363,3.558-3.692
		c0.402,0.089,0.806,0.088,1.21,0.011c0.928,0.07,1.856,0.087,2.783-0.01c0.401,0.088,0.803,0.088,1.206,0.01
		c0.929,0.07,1.858,0.087,2.787-0.01c0.403,0.088,0.806,0.088,1.21,0.01c0.928,0.07,1.856,0.087,2.783-0.01
		c0.403,0.088,0.806,0.088,1.21,0.01c0.928,0.07,1.856,0.087,2.783-0.01c0.403,0.088,0.806,0.088,1.21,0.01
		c0.928,0.07,1.856,0.087,2.783-0.01c0.402,0.088,0.806,0.088,1.21,0.01c0.929,0.07,1.859,0.087,2.787-0.011
		C67.27,26.498,67.672,26.498,68.075,26.421z"/>
	<path class="st0" d="M52.861,9.159c0.068,1,0.046,1.995-0.149,2.982c-0.208,0.531-0.416,1.063-0.624,1.594
		c-0.737,1.121-1.669,2.045-2.793,2.777c-0.529,0.207-1.059,0.414-1.588,0.621c-0.986,0.131-1.973,0.266-2.969,0.091
		c-0.342-0.085-0.684-0.171-1.026-0.257c-0.593-0.291-1.187-0.582-1.78-0.874c-0.206-0.171-0.411-0.342-0.617-0.513
		c-0.445-0.525-0.889-1.049-1.334-1.574c-0.056-0.097-0.112-0.195-0.168-0.292c-0.292-0.732-0.603-1.457-0.745-2.239
		c-0.047-0.31-0.094-0.62-0.14-0.93c0.114-1.503,0.453-2.935,1.306-4.208c0.557-0.56,1.114-1.119,1.67-1.679
		c1.273-0.848,2.695-1.222,4.204-1.317c0.32,0.042,0.639,0.083,0.959,0.124c0.743,0.241,1.485,0.483,2.228,0.724
		c0.2,0.127,0.401,0.254,0.601,0.382c0.452,0.402,0.903,0.804,1.355,1.206c0.207,0.279,0.414,0.558,0.621,0.837
		c0.266,0.582,0.532,1.164,0.798,1.747C52.69,8.637,52.667,8.924,52.861,9.159z"/>
	<path class="st0" d="M70.858,3.616c0.987-0.164,1.975-0.299,2.979-0.186c0.268,0.053,0.536,0.107,0.805,0.16
		c0.728,0.353,1.456,0.706,2.184,1.058c0.141,0.105,0.281,0.211,0.422,0.316c0.418,0.462,0.835,0.923,1.253,1.385
		c0.177,0.28,0.354,0.559,0.53,0.839c0.212,0.653,0.424,1.306,0.637,1.959c0.034,0.335,0.069,0.671,0.103,1.006
		c-0.078,1.333-0.35,2.615-1.006,3.794c-0.626,0.926-1.425,1.684-2.308,2.359c-1.251,0.655-2.579,1.02-3.994,1.048
		c-0.317-0.049-0.633-0.098-0.95-0.146c-0.682-0.225-1.364-0.45-2.045-0.676c-0.144-0.089-0.287-0.178-0.431-0.266
		c-0.517-0.445-1.034-0.89-1.552-1.334c-0.203-0.268-0.405-0.536-0.608-0.804c-0.272-0.595-0.544-1.19-0.815-1.785
		c0.025-0.29-0.061-0.551-0.2-0.8c-0.023-1.07-0.051-2.14,0.202-3.193c0.229-0.522,0.459-1.044,0.688-1.566
		c0.63-0.94,1.432-1.713,2.328-2.395C69.673,4.131,70.266,3.873,70.858,3.616z"/>
</g>
</svg>
