<?xml version="1.0" encoding="utf-8"?>
<!-- Generator: Adobe Illustrator 22.0.1, SVG Export Plug-In . SVG Version: 6.00 Build 0)  -->
<svg version="1.1" id="Layer_1" xmlns="http://www.w3.org/2000/svg" xmlns:xlink="http://www.w3.org/1999/xlink" x="0px" y="0px"
	 viewBox="0 0 100 100" style="enable-background:new 0 0 100 100;" xml:space="preserve">
<style type="text/css">
	.st0{fill:#FFFFFF;}
	.st1{fill:#E89528;}
	.st2{fill:#FDFBFC;}
	.st3{fill:#FDFDFD;}
	.st4{fill:none;}
</style>
<path class="st0" d="M89.623,17.228c0.523,0.977,0.672,2.015,0.667,3.121c-0.029,5.552,0.019,11.105-0.037,16.657
	c-0.013,1.225,0.382,1.634,1.586,1.578c1.693-0.079,3.393-0.048,5.089-0.007c1.909,0.046,2.566,0.732,2.567,2.658
	c0.007,13.47,0.007,26.939-0.001,40.409c-0.001,2.007-0.577,2.597-2.553,2.601c-6.838,0.014-13.675,0.015-20.513-0.001
	c-1.897-0.005-2.488-0.603-2.499-2.503c-0.022-3.701-0.043-7.404,0.014-11.104c0.017-1.127-0.314-1.544-1.48-1.527
	c-4.009,0.056-8.02,0.045-12.03,0.007c-1.106-0.011-1.471,0.369-1.267,1.468c0.563,3.031,1.105,6.066,1.579,9.111
	c0.171,1.098,0.674,1.484,1.747,1.388c0.816-0.073,1.645-0.033,2.466,0.007c0.967,0.046,1.536,0.559,1.534,1.558
	c-0.003,0.995-0.579,1.498-1.535,1.575c-0.511,0.041-1.027,0.029-1.541,0.029c-11.722,0.001-23.443,0-35.165,0.005
	c-0.718,0-1.436,0.051-2.154,0.078c-1.056-0.197-1.926-0.635-1.773-1.892c0.156-1.28,1.144-1.377,2.196-1.387
	c3.339-0.03,3.328-0.047,3.879-3.399c0.35-2.13,0.727-4.255,1.109-6.38c0.373-2.076,0.33-2.14-1.842-2.14
	c-8.023-0.002-16.047,0.001-24.07-0.002c-3.827-0.002-5.09-1.264-5.09-5.074C0.502,49.555,0.502,35.052,0.503,20.548
	c0-3.465,1.389-4.858,4.854-4.859c26.693-0.002,53.387,0.007,80.08-0.022C87.082,15.665,88.473,16.048,89.623,17.228z
	 M96.918,46.648c0.012-1.437,0.003-2.874,0.044-4.31c0.025-0.879-0.259-1.31-1.229-1.305c-6.004,0.027-12.009,0.027-18.013,0
	c-0.97-0.004-1.254,0.426-1.229,1.305c0.041,1.436,0.032,2.873,0.044,4.31c0.016,10.126,0.032,20.253,0.048,30.379
	c0.003,2.037,0.004,2.041,1.97,2.042c5.449,0.002,10.898,0.002,16.347,0c1.966-0.001,1.967-0.005,1.97-2.042
	C96.887,66.901,96.902,56.775,96.918,46.648z M73.871,59.209c0-1.032,0-2.063,0-3.095c-0.003-0.814-0.006-1.629-0.009-2.443
	c0.004-1.035,0.009-2.069,0.013-3.104c0-0.723,0-1.446,0-2.169c-0.004-1.035-0.009-2.069-0.013-3.104
	c0.003-0.814,0.006-1.628,0.009-2.443c0.03-1.022,0.06-2.044,0.089-3.067c0.628-0.961,1.546-1.246,2.651-1.231
	c2.365,0.032,4.732-0.046,7.094,0.033c1.108,0.037,1.378-0.348,1.367-1.404c-0.051-4.781-0.067-9.563,0.008-14.344
	c0.02-1.276-0.318-1.625-1.611-1.623c-25.398,0.039-50.797,0.04-76.195-0.001c-1.319-0.002-1.592,0.388-1.588,1.638
	c0.046,12.956,0.054,25.913-0.008,38.869c-0.007,1.48,0.348,1.866,1.848,1.862c20.771-0.054,41.542-0.036,62.313-0.036
	C74.076,63.547,74.076,63.547,73.871,59.209z M47.393,67.99c-0.054-1.214-0.607-1.973-1.833-2.091
	c-1.166-0.112-2.176,0.768-2.139,1.906c0.038,1.187,0.673,1.934,1.905,1.985C46.557,69.839,47.199,69.145,47.393,67.99z
	 M88.118,81.546c-0.144-0.848-0.617-1.395-1.524-1.324c-0.814,0.063-1.298,0.584-1.26,1.419c0.041,0.903,0.574,1.395,1.488,1.333
	C87.659,82.916,88.055,82.381,88.118,81.546z"/>
<path class="st0" d="M60.192,52.807c-6.795,0-13.589,0.001-20.383,0.001c-0.012-1.437-0.003-2.875-0.044-4.31
	c-0.025-0.879,0.259-1.31,1.229-1.305c6.004,0.027,12.009,0.027,18.013,0c0.97-0.004,1.254,0.426,1.229,1.305
	C60.195,49.933,60.204,51.371,60.192,52.807z"/>
<path class="st0" d="M60.171,51.551c-6.215-0.006-12.429-0.036-18.644,0.002c-1.272,0.008-1.725-0.43-1.698-1.704
	c0.026-1.247,0.684-1.404,1.685-1.401c5.547,0.019,11.094,0.009,16.641,0.008c0.668,0,1.335-0.006,2.003-0.009
	C60.163,49.481,60.167,50.516,60.171,51.551z"/>
<path class="st0" d="M60.125,51.553c-6.207-0.005-12.414-0.024-18.621-0.001c-1.1,0.004-1.724-0.224-1.719-1.52
	c0.005-1.229,0.487-1.593,1.655-1.585c6.258,0.043,12.516,0.032,18.774,0.04C60.185,49.509,60.155,50.531,60.125,51.553z"/>
<path class="st0" d="M60.158,51.553c-6.215-0.003-12.429-0.016-18.644-0.001c-1.001,0.002-1.658-0.154-1.685-1.401
	c-0.027-1.274,0.426-1.715,1.698-1.704c5.649,0.046,11.299,0.02,16.949,0.018c0.565,0,1.13-0.011,1.695-0.016
	C60.167,49.484,60.163,50.519,60.158,51.553z"/>
<path class="st0" d="M60.169,51.544c-6.215-0.005-12.429-0.035-18.644,0.006c-1.279,0.008-1.717-0.441-1.694-1.708
	c0.023-1.261,0.704-1.39,1.694-1.387c5.65,0.018,11.299,0.008,16.949,0.007c0.565,0,1.13-0.009,1.695-0.013
	C60.169,49.481,60.169,50.513,60.169,51.544z"/>
<path class="st0" d="M50.165,37.508c5.962,0,11.923-0.004,17.885,0.002c2.034,0.002,2.145,0.103,2.147,2.047
	c0.007,6.99-0.025,13.979,0.025,20.969c0.01,1.45-0.46,1.99-1.952,1.985c-12.232-0.042-24.464-0.039-36.695-0.002
	c-1.325,0.004-1.807-0.398-1.797-1.763c0.051-7.195,0.047-14.39,0.003-21.585c-0.008-1.301,0.486-1.68,1.727-1.672
	C37.727,37.532,43.946,37.509,50.165,37.508z"/>
<path class="st0" d="M49.985,52.314c-11.358,0-22.717-0.017-34.075,0.025c-1.177,0.004-1.589-0.257-1.561-1.512
	c0.072-3.132,0.006-3.133,3.151-3.133c22.151,0,44.303,0.013,66.454-0.032c1.341-0.003,1.745,0.291,1.693,1.674
	c-0.113,2.975-0.03,2.979-2.975,2.979C71.777,52.314,60.881,52.314,49.985,52.314z"/>
<path class="st0" d="M49.929,51.541c-3.906,0.001-7.813-0.017-11.719,0.012c-1.137,0.008-1.99-0.034-1.972-1.586
	c0.018-1.459,0.809-1.514,1.89-1.512c7.967,0.018,15.933,0.028,23.9-0.009c1.24-0.006,1.758,0.364,1.731,1.672
	c-0.025,1.223-0.619,1.44-1.65,1.433C58.05,51.524,53.99,51.541,49.929,51.541z"/>
<path class="st0" d="M50.088,42.755c2.108,0,4.217,0.027,6.324-0.011c1.039-0.019,1.487,0.376,1.479,1.446
	c-0.031,3.856-0.029,7.713,0,11.569c0.008,1.024-0.341,1.506-1.425,1.499c-4.319-0.029-8.638-0.023-12.957-0.004
	c-0.964,0.004-1.404-0.365-1.398-1.364c0.024-3.908,0.028-7.816-0.003-11.723c-0.009-1.089,0.482-1.439,1.501-1.423
	C45.768,42.779,47.928,42.755,50.088,42.755z"/>
<path class="st0" d="M49.958,51.225c-2.152-0.001-4.303-0.01-6.455,0.004c-0.832,0.005-1.378-0.214-1.385-1.197
	c-0.006-0.937,0.431-1.267,1.314-1.264c4.355,0.013,8.709,0.011,13.064,0c0.834-0.002,1.369,0.213,1.385,1.195
	c0.018,1.075-0.579,1.278-1.469,1.27C54.261,51.213,52.109,51.226,49.958,51.225z"/>
<path class="st0" d="M50.015,48.774c2.152,0,4.303,0.009,6.455-0.004c0.815-0.005,1.39,0.169,1.412,1.167
	c0.024,1.054-0.53,1.301-1.442,1.298c-4.303-0.016-8.606-0.012-12.91-0.004c-0.814,0.002-1.389-0.172-1.412-1.169
	c-0.024-1.055,0.529-1.305,1.442-1.295C45.711,48.789,47.863,48.773,50.015,48.774z"/>
</svg>
