<?xml version="1.0" encoding="utf-8"?>
<!-- Generator: Adobe Illustrator 22.0.1, SVG Export Plug-In . SVG Version: 6.00 Build 0)  -->
<svg version="1.1" id="Layer_1" xmlns="http://www.w3.org/2000/svg" xmlns:xlink="http://www.w3.org/1999/xlink" x="0px" y="0px"
	 viewBox="0 0 100 100" style="enable-background:new 0 0 100 100;" xml:space="preserve">
<style type="text/css">
	.st0{fill:#FFFFFF;}
	.st1{fill:#E89528;}
	.st2{fill:#FDFBFC;}
	.st3{fill:#FDFDFD;}
	.st4{fill:none;}
</style>
<g>
	<path class="st0" d="M14.806,61.699c-2.186-4.502-4.252-8.749-6.313-13c-1.204-2.484-2.374-4.986-3.615-7.452
		c-0.441-0.876-0.618-1.751-0.616-2.723c0.02-12.383,0.031-24.766-0.005-37.15C4.254,0.3,4.495-0.001,5.609,0.001
		C35.246,0.034,64.883,0.034,94.52,0c1.123-0.001,1.355,0.32,1.352,1.382c-0.04,12.424-0.046,24.849-0.008,37.273
		c0.003,1.129-0.277,1.437-1.421,1.43c-8.462-0.051-16.924-0.044-25.385-0.005c-0.998,0.005-1.2-0.269-1.178-1.244
		c0.092-4.038,0.398-8.094-0.207-12.111c-1.238-8.225-8.394-14.873-16.149-15.362c-9.308-0.587-16.646,5.652-18.763,13.708
		c-0.52,1.977-0.626,3.987-0.614,6.011c0.016,2.682,0.011,5.366,0.101,8.046c0.027,0.816-0.238,0.95-0.967,0.946
		c-5.077-0.028-10.154,0.009-15.231-0.038c-0.922-0.008-1.172,0.225-1.167,1.16c0.039,6.686,0.016,13.373,0.011,20.06
		C14.893,61.296,14.878,61.337,14.806,61.699z"/>
	<path class="st0" d="M46.937,68.276c1.026-3.365,1.978-6.489,2.931-9.614c0.121-0.011,0.242-0.022,0.363-0.033
		c0.96,3.136,1.921,6.272,2.892,9.441c0.549-0.285,0.68-0.795,0.92-1.205c3.105-5.299,6.213-10.596,9.273-15.92
		c0.427-0.743,0.895-0.987,1.743-1.012c4.073-0.119,7.733,1.05,11.005,3.421c3.182,2.306,4.876,5.508,4.913,9.401
		c0.091,9.573,0.022,19.148,0.071,28.721c0.005,1.019-0.528,0.894-1.153,0.894c-10.358,0-20.716,0.005-31.074,0.005
		c-9.491,0-18.983-0.026-28.474,0.022c-1.075,0.005-1.264-0.308-1.26-1.301c0.038-8.996,0.036-17.992,0.017-26.988
		c-0.013-6.21,2.751-10.392,8.502-12.771c2.513-1.039,5.112-1.533,7.843-1.403c0.718,0.034,0.993,0.395,1.296,0.918
		c3.164,5.455,6.341,10.902,9.517,16.35C46.426,67.48,46.607,67.75,46.937,68.276z"/>
	<path class="st0" d="M63.489,33.584c0.108,3.017,0.071,6.002-1.25,8.837c-2.663,5.714-8.678,8.923-14.704,7.757
		c-5.84-1.13-10.524-6.479-10.879-12.518c-0.198-3.372-0.415-6.767,0.283-10.104c1.433-6.849,7.545-11.357,14.478-10.769
		c6.417,0.545,11.755,6.266,12.064,12.964C63.54,31.027,63.489,32.307,63.489,33.584z"/>
	<path class="st0" d="M50.058,94.739c15.389,0,30.777,0.008,46.166-0.02c0.903-0.002,1.265,0.192,1.181,1.152
		c-0.086,0.982-0.075,1.984,0.006,2.967c0.078,0.943-0.271,1.168-1.18,1.161c-4.992-0.043-9.984-0.02-14.976-0.021
		c-25.621-0.003-51.242-0.004-76.862-0.012c-1.878-0.001-1.683,0.249-1.642-1.615c0.026-1.179-0.542-2.754,0.256-3.425
		c0.687-0.576,2.209-0.176,3.361-0.176c14.563-0.004,29.127-0.003,43.69-0.003C50.058,94.746,50.058,94.742,50.058,94.739z"/>
</g>
</svg>
