<?xml version="1.0" encoding="utf-8"?>
<!-- Generator: Adobe Illustrator 22.0.1, SVG Export Plug-In . SVG Version: 6.00 Build 0)  -->
<svg version="1.1" id="Layer_1" xmlns="http://www.w3.org/2000/svg" xmlns:xlink="http://www.w3.org/1999/xlink" x="0px" y="0px"
	 viewBox="0 0 100 100" style="enable-background:new 0 0 100 100;" xml:space="preserve">
<style type="text/css">
	.st0{fill:#FFFFFF;}
	.st1{fill:#E89528;}
	.st2{fill:#FDFBFC;}
	.st3{fill:#FDFDFD;}
	.st4{fill:none;}
</style>
<g id="_x37_DvPma.tif">
	<g>
		<path class="st2" d="M1,49.924C1.027,22.794,22.982,0.975,50.23,1C77.153,1.025,99.027,23.036,99,50.076
			C98.973,77.145,77.022,99.028,49.924,99C22.855,98.972,0.973,77.022,1,49.924z M38.589,51.126c-4.067,0-8.134,0.014-12.2-0.013
			c-0.787-0.005-1.217,0.091-1.21,1.062c0.043,5.353,0.013,10.707,0.027,16.061c0.003,0.961,1.768,2.916,2.635,2.92
			c3.912,0.017,7.825,0.005,11.737,0.01c0.431,0.001,0.719-0.105,1.02-0.498c2.643-3.446,5.759-3.47,8.266-0.051
			c0.735,1.003,1.691,0.474,2.528,0.5c0.918,0.028,0.535-0.84,0.538-1.31c0.027-5.766-0.021-11.532,0.049-17.296
			c0.015-1.225-0.4-1.428-1.498-1.411C46.517,51.164,42.553,51.126,38.589,51.126z M44.076,44.052
			c1.051,0.01,1.766-0.217,2.42-0.822c1.095-1.012,2.28-1.927,3.406-2.907c0.483-0.421,0.96-0.679,1.65-0.646
			c3.549,0.169,7.1,0.317,10.652,0.4c1.122,0.026,1.221,0.327,0.809,1.318c-1.792,4.312-3.52,8.651-5.234,12.995
			c-0.264,0.668-0.716,1.347-0.493,2.032c2.756-0.048,4.594-1.384,5.782-3.717c0.203-0.398,0.53-0.965,0.869-1.019
			c1.357-0.215,3.034-0.068,1.368-2.157c-0.014-0.018,0.045-0.087,0.059-0.135c0.355-1.227,2.129-2.683,3.4-2.796
			c0.334-0.03,0.796,0.119,0.85-0.409c0.035-0.345,0.031-0.971-0.102-1.014c-1.44-0.462-0.399-1.072-0.097-1.564
			c0.484-0.787,1.112-1.49,1.563-2.294c0.49-0.874,1.155-1.124,2.13-1.159c3.24-0.118,6.476-0.351,9.714-0.532
			c1.293-0.072,2.56-0.31,3.766-0.758c0.79-0.293,1.874-0.521,1.84-1.591c-0.033-1.038-1.109-1.243-1.901-1.558
			c-0.568-0.225-1.185-0.341-1.789-0.455c-3.918-0.735-7.909-0.467-11.856-0.815c-0.784-0.069-1.332-0.244-1.762-0.952
			c-0.613-1.009-1.355-1.939-2.018-2.919c-0.286-0.422-0.907-0.937,0.256-1.1c0.488-0.068,0.252-0.592,0.278-0.918
			c0.031-0.381-0.213-0.614-0.566-0.536c-2.048,0.451-2.569-1.24-3.441-2.429c-0.286-0.389-0.712-0.705,0.115-1.159
			c0.361-0.198,0.605-1.418-0.52-1.331c-1.283,0.1-1.916-0.566-2.385-1.517c-1.132-2.296-3.039-3.29-5.724-3.438
			c1.758,5.581,4.254,10.793,6.364,16.315c-3.908,0.146-7.66,0.287-11.412,0.427c-0.257,0.01-0.517,0.001-0.771,0.037
			c-0.587,0.083-0.959-0.28-1.353-0.613c-1.297-1.097-2.597-2.191-3.894-3.288c-0.506-0.428-1.171-0.653-1.674-0.309
			c-0.424,0.29,0.018,0.881,0.215,1.245c1.957,3.608,1.883,7.186-0.046,10.772C44.355,43.091,44.268,43.501,44.076,44.052z
			 M64.525,75.761c4.424,0,8.849,0.009,13.273-0.005c1.616-0.005,2.604-0.795,2.59-2.006c-0.014-1.225-0.96-1.932-2.622-1.935
			c-2.881-0.006-5.762,0.008-8.643-0.012c-0.45-0.003-1.06,0.265-1.198-0.555c-0.25-1.49-1.332-1.787-2.632-1.782
			c-3.704,0.012-7.409,0.029-11.112-0.014c-0.902-0.01-1.402,0.187-1.212,1.182c0.254,1.333-0.349,1.743-1.591,1.543
			c-0.351-0.056-0.719-0.011-1.079-0.008c-1.287,0.009-1.921,0.914-1.496,2.16c0.4,1.174,1.331,1.44,2.449,1.437
			C55.676,75.753,60.101,75.761,64.525,75.761z M30.32,41.136c4.166,0,8.333-0.026,12.499,0.021c0.901,0.01,1.443-0.197,1.676-1.119
			c0.2-0.793,0.56-1.545,0.764-2.338c0.305-1.185-0.629-2.938-1.558-2.941c-4.526-0.016-9.053-0.01-13.579,0
			c-1.026,0.002-1.92,0.445-2.091,1.463c-0.16,0.949-0.624,0.955-1.346,0.949c-3.034-0.026-6.069-0.029-9.104-0.001
			c-1.521,0.014-2.449,1.015-2.173,2.297c0.277,1.288,1.213,1.672,2.414,1.67C21.987,41.132,26.154,41.135,30.32,41.136z
			 M23.331,62.296c0-1.441,0.012-2.883-0.003-4.324c-0.026-2.463,0.289-1.903-2.112-2.187c-2.881-0.34-4.549,0.872-6.438,2.982
			c-2.898,3.238-4.098,6.652-3.605,10.879c0.128,1.096,0.196,1.674,1.492,1.538c1.222-0.128,2.469-0.068,3.703-0.016
			c1.257,0.053,2.391,0.043,3.134-1.282c0.268-0.478,0.977-0.708,1.484-1.053c0.703-0.479,1.947,0.07,2.266-0.846
			c0.289-0.828,0.075-1.832,0.078-2.758C23.334,64.252,23.331,63.274,23.331,62.296z M44.725,69.2
			c-2.039,0.006-3.598,1.578-3.59,3.619c0.008,2.024,1.607,3.62,3.619,3.612c2.013-0.009,3.595-1.612,3.591-3.64
			C48.34,70.755,46.767,69.194,44.725,69.2z M19.196,73.148c0.014,2.023,1.619,3.611,3.633,3.594
			c2.023-0.017,3.586-1.612,3.576-3.648c-0.01-2.043-1.578-3.587-3.629-3.574C20.734,69.533,19.183,71.105,19.196,73.148z"/>
		<path class="st2" d="M43.024,72.803c0.08-0.995,0.596-1.632,1.626-1.67c1.096-0.04,1.765,0.555,1.777,1.661
			c0.012,1.113-0.694,1.734-1.75,1.709C43.696,74.479,43.103,73.851,43.024,72.803z"/>
		<path class="st2" d="M22.871,71.423c0.991,0.115,1.616,0.641,1.618,1.677c0.003,1.117-0.69,1.75-1.742,1.716
			c-1.053-0.033-1.71-0.713-1.633-1.824C21.185,71.966,21.846,71.475,22.871,71.423z"/>
	</g>
</g>
</svg>
