<?xml version="1.0" encoding="utf-8"?>
<!-- Generator: Adobe Illustrator 22.0.1, SVG Export Plug-In . SVG Version: 6.00 Build 0)  -->
<svg version="1.1" id="Layer_1" xmlns="http://www.w3.org/2000/svg" xmlns:xlink="http://www.w3.org/1999/xlink" x="0px" y="0px"
	 viewBox="0 0 100 100" style="enable-background:new 0 0 100 100;" xml:space="preserve">
<style type="text/css">
	.st0{fill:#FFFFFF;}
	.st1{fill:#E89528;}
	.st2{fill:#FDFBFC;}
	.st3{fill:#FDFDFD;}
	.st4{fill:none;}
</style>
<g>
	<path class="st0" d="M49.981,95.325c-9.774,0-19.547,0.019-29.321-0.007C14.212,95.302,9.303,90.3,9.311,83.847
		c0.01-8.386,0.039-16.771-0.022-25.157c-0.011-1.568,0.361-2.205,2.05-2.025c1.653,0.177,3.331,0.124,4.997-0.251
		c2.288-0.515,2.32-0.44,2.32,1.878c0,7.287-0.005,14.574-0.006,21.86c0,1.099-0.009,2.198,0.01,3.296
		c0.035,2.003,0.718,2.7,2.732,2.715c3.065,0.022,6.13,0.003,9.195,0.004c15.788,0.002,31.576,0.005,47.364,0.005
		c3.029,0,3.537-0.506,3.539-3.516c0.006-8.212,0.044-16.425-0.021-24.636c-0.012-1.519,0.46-1.993,1.9-1.685
		c1.932,0.413,3.897,0.523,5.859,0.34c1.047-0.098,1.489,0.203,1.477,1.292c-0.016,1.438,0.121,2.877,0.124,4.316
		c0.014,7.055,0.041,14.111-0.007,21.166c-0.028,4.11-1.551,7.531-5.016,9.938c-1.851,1.286-3.891,1.952-6.159,1.949
		c-9.889-0.011-19.779-0.005-29.668-0.005C49.981,95.329,49.981,95.327,49.981,95.325z"/>
	<path class="st0" d="M99.997,39.983c-0.069-2.51-0.981-4.724-1.674-7.009c-2.169-7.156-4.532-14.252-6.754-21.392
		c-1.398-4.492-3.582-6.976-9.145-6.914C71.67,4.788,60.914,4.703,50.158,4.702C38.94,4.7,27.721,4.75,16.504,4.664
		c-2.72-0.021-6.567,2.191-7.39,5.004c-1.257,4.296-2.961,8.461-4.208,12.759c-1.18,4.066-2.421,8.111-3.819,12.099
		c-1.515,4.325-1.66,8.439,0.949,12.403c5.01,7.613,16.661,8.085,22.029-0.909c0.308-0.516,0.275-1.344,1.106-1.395
		c0.882-0.054,0.723,0.922,1.17,1.32c0.162,0.144,0.212,0.408,0.34,0.598c3.496,5.206,8.158,6.89,13.566,5.908
		c3.95-0.717,6.999-3.234,8.851-6.902c0.713-1.412,1.192-1.135,1.819-0.031c0.199,0.351,0.41,0.695,0.613,1.043
		c1.855,3.178,4.697,5.303,8.179,5.899c6.325,1.082,11.379-1.355,14.428-7.305c0.192-0.374,0.009-1.098,0.652-1.049
		c0.575,0.044,0.682,0.713,0.894,1.167c2.681,5.725,9.099,8.847,15.733,6.719C96.065,50.501,100.133,44.936,99.997,39.983z"/>
</g>
</svg>
