<?xml version="1.0" encoding="utf-8"?>
<!-- Generator: Adobe Illustrator 22.0.1, SVG Export Plug-In . SVG Version: 6.00 Build 0)  -->
<svg version="1.1" id="Layer_1" xmlns="http://www.w3.org/2000/svg" xmlns:xlink="http://www.w3.org/1999/xlink" x="0px" y="0px"
	 viewBox="0 0 100 100" style="enable-background:new 0 0 100 100;" xml:space="preserve">
<style type="text/css">
	.st0{fill:#FFFFFF;}
	.st1{fill:#E89528;}
	.st2{fill:#FDFBFC;}
	.st3{fill:#FDFDFD;}
	.st4{fill:none;}
</style>
<g>
	<path class="st0" d="M0,79.009C0,53.712,0,28.415,0,3.118C1.404,0.774,3.42-0.008,6.182,0c29.253,0.082,58.506,0.05,87.758,0.052
		c4.925,0,6.057,1.12,6.057,6.003c0.003,23.227,0.003,46.453,0,69.68c-0.001,4.956-1.065,6.034-5.946,6.034
		c-29.253,0.001-58.506-0.035-87.758,0.06C3.593,81.836,1.534,81.213,0,79.009z M50.002,65.898c14.445,0,28.891-0.035,43.336,0.04
		c1.99,0.01,2.76-0.329,2.747-2.588c-0.103-18.561-0.054-37.122-0.062-55.683c-0.001-3.318-0.218-3.531-3.508-3.531
		C64.253,4.131,35.99,4.131,7.727,4.136C4.449,4.137,4.251,4.343,4.25,7.697C4.245,26.258,4.295,44.82,4.187,63.38
		c-0.013,2.287,0.788,2.567,2.749,2.557C21.29,65.864,35.646,65.898,50.002,65.898z M54.98,73.881
		c0.013-2.145-1.711-3.951-3.828-4.009c-2.18-0.06-4.156,1.905-4.09,4.066c0.062,2.044,1.991,3.911,4.03,3.899
		C53.195,77.825,54.966,76.023,54.98,73.881z"/>
	<path class="st0" d="M23.158,100c0.057-0.18,0.115-0.36,0.172-0.539c17.837,0,35.675,0,53.512,0c0.057,0.18,0.115,0.36,0.172,0.539
		C59.063,100,41.111,100,23.158,100z"/>
	<path class="st0" d="M76.843,99.461c-17.837,0-35.675,0-53.512,0c-0.497-4.836,0.289-5.725,5.084-5.751
		c0.805-0.004,1.612,0.021,2.416-0.006c3.902-0.133,6.11-2.237,6.299-6.154c0.058-1.2,0.045-1.969,1.663-1.951
		c7.517,0.084,15.036,0.063,22.553,0.013c1.256-0.008,1.639,0.325,1.711,1.635c0.247,4.49,2.329,6.393,6.782,6.461
		c0.626,0.01,1.253-0.002,1.879,0.002C76.489,93.737,77.333,94.685,76.843,99.461z"/>
	<path class="st0" d="M80.166,12.087c4.067,0,7.517,0.014,10.967-0.009c0.912-0.006,0.967,0.539,0.965,1.218
		c-0.008,3.368-0.004,6.736-0.004,10.601c-0.667-0.619-0.966-0.887-1.256-1.166c-3.328-3.197-3.327-3.197-6.68,0.154
		c-6.725,6.721-13.431,13.461-20.195,20.143c-1.085,1.072-1.731,2.018-1.434,3.693c0.446,2.513-0.579,4.585-2.821,5.903
		c-2.122,1.247-4.323,1.201-6.354-0.147c-2.229-1.48-3.173-3.698-2.572-6.292c0.274-1.181-0.069-1.793-0.81-2.527
		c-2.996-2.964-5.941-5.979-8.932-8.948c-1.24-1.231-6.324-1.277-7.554-0.057c-4.202,4.168-8.348,8.394-12.583,12.528
		c-0.899,0.878-0.987,1.681-0.809,2.85c0.555,3.646-1.876,6.701-5.367,6.949c-3.573,0.254-6.552-2.43-6.578-5.925
		c-0.025-3.487,2.882-6.378,6.488-5.917c2.032,0.26,3.112-0.526,4.332-1.792c3.671-3.81,7.389-7.576,11.151-11.296
		c0.905-0.896,1.308-1.718,1.065-3.038c-0.485-2.637,0.482-4.791,2.789-6.187c2.098-1.269,4.283-1.225,6.344,0.129
		c2.261,1.485,3.172,3.686,2.612,6.271c-0.254,1.172,0.034,1.805,0.788,2.553c2.995,2.967,5.936,5.986,8.918,8.966
		c1.457,1.456,6.421,1.408,7.903-0.069c7.559-7.535,15.089-15.1,22.685-22.597c1.036-1.023,1.282-1.687,0.077-2.709
		C82.318,14.533,81.5,13.5,80.166,12.087z"/>
</g>
</svg>
