<?xml version="1.0" encoding="utf-8"?>
<!-- Generator: Adobe Illustrator 22.0.1, SVG Export Plug-In . SVG Version: 6.00 Build 0)  -->
<svg version="1.1" id="Layer_1" xmlns="http://www.w3.org/2000/svg" xmlns:xlink="http://www.w3.org/1999/xlink" x="0px" y="0px"
	 viewBox="0 0 100 100" style="enable-background:new 0 0 100 100;" xml:space="preserve">
<style type="text/css">
	.st0{fill:#FFFFFF;}
	.st1{fill:#E89528;}
	.st2{fill:#FDFBFC;}
	.st3{fill:#FDFDFD;}
	.st4{fill:none;}
</style>
<g id="Z11HI5.tif">
	<g>
		<path class="st3" d="M49.389,3.669c25.913-0.273,46.619,20.465,46.935,45.723c0.322,25.769-20.364,46.65-45.781,46.938
			C25.01,96.62,4.005,76.2,3.676,50.626C3.344,24.85,23.94,4.04,49.389,3.669z M62.471,46.668c0,2.652,0.006,5.293-0.004,7.934
			c-0.002,0.628,0.177,1.2,0.83,1.286c0.581,0.077,0.534,0.374,0.534,0.766c-0.004,4.822,0.005,9.643-0.007,14.465
			c-0.004,1.453,0.6,2.545,1.905,3.152c1.366,0.635,2.669,0.393,3.75-0.656c0.343-0.333,0.451-0.189,0.703,0.045
			c0.75,0.696,1.647,1.037,2.675,0.887c1.829-0.268,2.951-1.606,2.954-3.528c0.008-4.847,0.003-9.694,0.003-14.541
			c0-0.325-0.053-0.612,0.384-0.793c1.58-0.655,2.244-1.907,2.237-3.587c-0.015-3.437,0-6.873-0.01-10.31
			c-0.002-0.51-0.032-1.027-0.123-1.528c-0.503-2.752-2.777-4.815-5.368-4.634c-0.507,0.035-0.762,0.165-0.98,0.626
			c-0.601,1.273-1.264,2.516-1.903,3.771c-0.319-1.248-0.457-2.462-0.678-3.659c-0.129-0.697,0.047-0.87,0.762-0.859
			c2.493,0.038,4.693-1.944,4.939-4.366c0.272-2.676-1.355-5.036-3.859-5.599c-2.523-0.567-5.087,0.831-5.92,3.228
			c-0.954,2.743,0.466,5.607,3.225,6.541c0.207,0.07,0.694-0.042,0.516,0.445c-0.456,1.253-0.947,2.494-1.424,3.739
			c-0.383-0.929-0.599-1.835-0.811-2.741c-0.282-1.205-0.716-1.378-1.775-0.671c-0.272,0.181-0.509,0.429-0.724,0.679
			c-1.319,1.536-2.633,3.075-3.932,4.628c-0.272,0.325-0.577,0.559-0.967,0.718c-2.055,0.844-4.109,1.692-6.154,2.56
			c-0.329,0.139-0.596,0.16-0.932,0.017c-2.069-0.878-4.146-1.737-6.225-2.592c-0.366-0.15-0.65-0.372-0.904-0.676
			c-1.297-1.552-2.618-3.085-3.918-4.635c-0.424-0.505-0.911-0.882-1.563-1.048c-0.501-0.127-0.779-0.083-0.887,0.534
			c-0.191,1.099-0.49,2.18-0.744,3.268c-0.575-1.124-0.979-2.25-1.442-3.352c-0.226-0.537-0.171-0.742,0.442-0.934
			c2.119-0.664,3.435-2.542,3.437-4.754c0.003-2.213-1.347-4.129-3.39-4.812c-2.047-0.685-4.382,0.018-5.656,1.703
			c-1.343,1.775-1.424,4.134-0.154,5.95c1.041,1.489,2.492,2.224,4.326,2.2c0.218-0.003,0.675-0.253,0.579,0.364
			c-0.214,1.374-0.399,2.752-0.625,4.338c-0.762-1.494-1.428-2.807-2.102-4.117c-0.11-0.214-0.161-0.498-0.514-0.478
			c-0.611,0.036-1.224-0.042-1.834,0.124c-2.305,0.627-3.979,2.885-4.009,5.492c-0.035,2.998-0.041,5.997-0.059,8.996
			c-0.003,0.564-0.022,1.129,0.006,1.692c0.035,0.712,0.267,1.298,1.063,1.493c1.217,0.298,2.362,0.054,2.753-0.606
			c0.15-0.253,0.184-0.529,0.183-0.814c-0.001-0.333-0.005-0.667,0.003-1c0.003-0.141-0.046-0.341,0.169-0.363
			c0.286-0.028,0.227,0.21,0.232,0.372c0.029,0.916,0.096,1.842-0.785,2.627c0.741,0,1.3,0,1.858,0c0.564,0,1.129-0.009,1.693,0.002
			c1.428,0.028,2.334,0.945,2.337,2.377c0.006,2.18,0.004,4.36,0.001,6.54c-0.003,1.508-0.927,2.45-2.429,2.464
			c-1.257,0.012-2.514,0.023-3.77-0.008c-0.483-0.012-0.665,0.093-0.656,0.624c0.034,1.846,0.005,3.693,0.02,5.539
			c0.003,0.353,0.049,0.72,0.155,1.056c0.738,2.335,3.549,3.079,5.413,1.456c0.155-0.135,0.247-0.583,0.63-0.191
			c1.106,1.13,2.432,1.408,3.861,0.75c1.45-0.669,1.914-1.91,1.901-3.464c-0.039-4.719-0.018-9.438-0.004-14.157
			c0.001-0.243-0.223-0.623,0.32-0.693c0.769-0.099,1.045-0.615,1.038-1.362c-0.017-1.846-0.006-3.693-0.006-5.54
			c0-0.802,0-1.604,0-2.483c0.45,0.272,0.793,0.476,1.189,0.591c1.301,0.376,2.625,0.701,3.886,1.187
			c1.825,0.703,3.703,0.934,5.632,0.95c0.791,0.007,1.5-0.308,2.227-0.539C58.127,48.074,60.315,47.559,62.471,46.668z
			 M28.873,64.634c1.743,0,3.486,0.007,5.229-0.002c1.386-0.007,2.09-0.697,2.098-2.071c0.012-2.153,0.013-4.306,0-6.459
			c-0.008-1.351-0.733-2.081-2.1-2.087c-3.46-0.014-6.92-0.013-10.38-0.001c-1.421,0.005-2.127,0.725-2.13,2.13
			c-0.005,2.127-0.005,4.255,0,6.382c0.004,1.427,0.684,2.1,2.133,2.106C25.439,64.64,27.156,64.634,28.873,64.634z"/>
	</g>
</g>
</svg>
