<?xml version="1.0" encoding="utf-8"?>
<!-- Generator: Adobe Illustrator 22.0.1, SVG Export Plug-In . SVG Version: 6.00 Build 0)  -->
<svg version="1.1" id="Layer_1" xmlns="http://www.w3.org/2000/svg" xmlns:xlink="http://www.w3.org/1999/xlink" x="0px" y="0px"
	 viewBox="0 0 30 30" style="enable-background:new 0 0 30 30;" xml:space="preserve">
<style type="text/css">
	.st0{fill:#FFFFFF;}
	.st1{fill-rule:evenodd;clip-rule:evenodd;fill:#FFFFFF;}
</style>
<path class="st1" d="M15.008,0C6.713,0,0,6.717,0,15s6.713,15,15.008,15C23.287,30,30,23.283,30,15S23.287,0,15.008,0z
	 M24.601,11.159c-0.144,0.099-0.177,0.198-0.169,0.363c0.042,3.255-0.993,6.148-3.078,8.654c-1.933,2.308-4.418,3.684-7.385,4.154
	c-3.145,0.486-6.099-0.058-8.815-1.714c-0.037-0.033-0.062-0.041-0.099-0.058c1.603,0.115,3.152-0.124,4.624-0.791
	c0.651-0.272,1.257-0.635,1.85-1.096c-0.701-0.033-1.327-0.19-1.904-0.495c-0.997-0.511-1.698-1.302-2.126-2.341
	c-0.099-0.255-0.099-0.255,0.185-0.231c0.684,0.066,1.199,0.049,1.62-0.115c-0.387-0.124-0.742-0.214-1.059-0.396
	c-1.479-0.824-2.266-2.077-2.394-3.775c-0.021-0.206,0.037-0.223,0.218-0.132c0.523,0.28,1.088,0.412,1.747,0.453
	c-0.293-0.239-0.54-0.445-0.758-0.676c-1.228-1.302-1.525-3.42-0.696-5.019C6.47,7.731,6.519,7.731,6.676,7.92
	c2.052,2.365,4.62,3.808,7.71,4.302c0.33,0.049,0.668,0.066,1.001,0.115c0.21,0.041,0.24-0.066,0.207-0.239
	c-0.326-1.846,0.544-3.692,2.201-4.624c1.673-0.973,3.857-0.684,5.233,0.651c0.149,0.14,0.285,0.173,0.474,0.115
	c0.82-0.198,1.607-0.495,2.345-0.915c0.049-0.025,0.103-0.049,0.185-0.107c-0.33,1.038-0.956,1.813-1.875,2.44
	c0.865-0.082,1.628-0.338,2.377-0.626c0.025,0.115-0.053,0.181-0.099,0.247C25.92,9.997,25.306,10.624,24.601,11.159z"/>
</svg>
