<?xml version="1.0" encoding="utf-8"?>
<!-- Generator: Adobe Illustrator 22.0.1, SVG Export Plug-In . SVG Version: 6.00 Build 0)  -->
<svg version="1.1" id="Layer_1" xmlns="http://www.w3.org/2000/svg" xmlns:xlink="http://www.w3.org/1999/xlink" x="0px" y="0px"
	 viewBox="0 0 100 100" style="enable-background:new 0 0 100 100;" xml:space="preserve">
<style type="text/css">
	.st0{fill:#FFFFFF;}
	.st1{fill:#E89528;}
	.st2{fill:#FDFBFC;}
	.st3{fill:#FDFDFD;}
	.st4{fill:none;}
</style>
<g>
	<g>
		<path class="st0" d="M10.708,50.247C0.433,43.121-2.073,29.018,5.096,18.666C12.124,8.517,26.326,5.948,36.48,12.99
			c10.352,7.179,12.927,21.289,5.765,31.597C35.112,54.853,21,57.385,10.708,50.247z M40.512,43.445
			c6.514-9.333,4.244-22.143-5.077-28.653c-9.286-6.486-22.135-4.242-28.592,4.993c-6.573,9.401-4.337,22.208,5.018,28.738
			C21.192,55.035,34.008,52.764,40.512,43.445z"/>
		<path class="st0" d="M31.342,34.263c0.357-0.5,0.744-0.618,1.15-0.348c0.427,0.283,0.462,0.702,0.104,1.235
			c0,0-6.624,9.48-7.432,10.692c-0.838,1.257-1.994,1.198-2.954,0.519c-4.867-3.441-9.773-6.827-14.665-10.233
			c-1.104-0.768-1.264-1.68-0.493-2.788c1.628-2.338,3.257-4.674,4.884-7.012c1.926-2.766,3.849-5.534,5.776-8.3
			c0.684-0.981,1.653-1.155,2.645-0.466c3.509,2.438,7.014,4.881,10.521,7.322c0.574,0.4,0.728,0.863,0.431,1.274
			c-0.284,0.393-0.751,0.401-1.304,0.016c-3.449-2.4-6.902-4.796-10.341-7.211c-0.372-0.261-0.544-0.26-0.813,0.133
			c-1.539,2.246-3.11,4.47-4.666,6.705c-1.946,2.797-3.881,5.601-5.839,8.389c-0.228,0.325-0.203,0.47,0.119,0.693
			c4.913,3.406,9.82,6.822,14.72,10.247c0.332,0.232,0.482,0.175,0.699-0.14C25.528,42.628,30.77,35.063,31.342,34.263z"/>
		<path class="st0" d="M20.305,30.932c0.624-0.271,1.248-0.541,1.872-0.813c0.063-0.028,0.165-0.064,0.172-0.108
			c0.11-0.724,0.724-0.614,1.188-0.698c4.617-0.838,9.237-1.66,13.856-2.494c0.374-0.068,0.715-0.069,0.925,0.296
			c0.151,0.263,0.342,0.101,0.505,0.074c1.035-0.166,1.173-0.073,1.361,0.973c0.065,0.363,0.138,0.724,0.195,1.089
			c0.092,0.589-0.09,0.844-0.676,0.975c-0.367,0.082-0.792,0.019-0.897,0.584c-0.048,0.256-0.413,0.276-0.675,0.323
			c-3.633,0.652-7.265,1.306-10.898,1.959c-0.537,0.097-1.076,0.19-1.613,0.284c-0.141,0.037-0.281,0.074-0.422,0.112
			c-0.476-0.01-0.926,0.156-1.392,0.211c-0.312,0.036-0.634,0.122-0.805-0.272c-0.063-0.145-0.212-0.088-0.328-0.097
			c-0.855-0.065-1.711-0.117-2.565-0.198c-0.329-0.031-0.683,0.062-0.962-0.281c-0.134-0.165-0.431,0.015-0.65,0.054
			c-0.329,0.059-0.628,0.036-0.711-0.335c-0.088-0.391,0.204-0.554,0.523-0.565c0.698-0.025,0.986-0.739,1.594-0.9
			C20.051,31.087,20.186,31.03,20.305,30.932z"/>
		<path class="st0" d="M16.809,27.426c-0.074-0.117-0.148-0.234-0.223-0.351c-0.111-0.325-0.124-0.65,0.003-0.974
			c0.38-0.732,1.121-0.79,1.646-0.494c0.501,0.283,0.682,0.965,0.418,1.519c-0.235,0.493-0.703,0.668-1.483,0.555
			C17.05,27.595,16.929,27.511,16.809,27.426z"/>
		<path class="st0" d="M11.414,33.514c0.362-0.517,1.054-0.642,1.576-0.285c0.538,0.368,0.679,1.111,0.308,1.622
			c-0.357,0.492-1.097,0.626-1.601,0.29C11.171,34.789,11.041,34.046,11.414,33.514z"/>
		<path class="st0" d="M19.629,23.742c-0.537-0.37-0.675-1.034-0.323-1.562c0.369-0.555,1.064-0.696,1.608-0.327
			c0.528,0.359,0.666,1.108,0.3,1.625C20.86,23.977,20.144,24.097,19.629,23.742z"/>
		<path class="st0" d="M14.048,29.733c0.376-0.537,1.103-0.665,1.621-0.285c0.495,0.363,0.621,1.089,0.276,1.599
			c-0.347,0.514-1.128,0.644-1.637,0.274C13.806,30.955,13.69,30.245,14.048,29.733z"/>
	</g>
	<g>
		<path class="st0" d="M63.409,86.932c-10.274-7.126-12.781-21.228-5.612-31.58c7.028-10.149,21.23-12.718,31.384-5.676
			c10.352,7.179,12.927,21.289,5.765,31.597C87.813,91.539,73.701,94.071,63.409,86.932z M93.213,80.131
			c6.514-9.333,4.244-22.143-5.077-28.653c-9.286-6.486-22.135-4.242-28.592,4.993c-6.573,9.401-4.337,22.208,5.018,28.738
			C73.893,91.721,86.709,89.45,93.213,80.131z"/>
		<path class="st0" d="M84.043,70.949c0.357-0.5,0.744-0.618,1.15-0.348c0.427,0.283,0.462,0.702,0.104,1.235
			c0,0-6.624,9.48-7.432,10.692c-0.838,1.257-1.994,1.198-2.954,0.519c-4.867-3.441-9.773-6.827-14.665-10.233
			c-1.104-0.768-1.264-1.68-0.493-2.788c1.628-2.338,3.257-4.674,4.884-7.012c1.926-2.766,3.849-5.534,5.776-8.3
			c0.684-0.981,1.653-1.155,2.645-0.466c3.509,2.438,7.014,4.881,10.521,7.322c0.574,0.4,0.728,0.863,0.431,1.274
			c-0.284,0.393-0.751,0.401-1.304,0.016c-3.449-2.4-6.902-4.796-10.341-7.211c-0.372-0.261-0.544-0.26-0.813,0.133
			c-1.539,2.246-3.11,4.47-4.666,6.705c-1.946,2.797-3.881,5.601-5.839,8.389c-0.228,0.325-0.203,0.47,0.119,0.693
			c4.913,3.406,9.82,6.822,14.72,10.247c0.332,0.232,0.482,0.175,0.699-0.14C78.229,79.314,83.471,71.749,84.043,70.949z"/>
		<path class="st0" d="M73.006,67.617c0.624-0.271,1.248-0.541,1.872-0.813c0.063-0.028,0.165-0.064,0.172-0.108
			c0.11-0.724,0.724-0.614,1.188-0.698c4.617-0.838,9.237-1.66,13.856-2.494c0.374-0.068,0.715-0.069,0.925,0.296
			c0.151,0.263,0.342,0.101,0.505,0.074c1.035-0.166,1.173-0.073,1.361,0.973c0.065,0.363,0.138,0.724,0.195,1.089
			c0.092,0.589-0.09,0.844-0.676,0.975c-0.367,0.082-0.792,0.019-0.897,0.584c-0.048,0.256-0.413,0.276-0.675,0.323
			c-3.633,0.652-7.265,1.306-10.898,1.959c-0.537,0.097-1.076,0.19-1.613,0.284c-0.141,0.037-0.281,0.074-0.422,0.112
			c-0.476-0.01-0.926,0.156-1.392,0.211c-0.312,0.036-0.634,0.122-0.805-0.272c-0.063-0.145-0.212-0.088-0.328-0.097
			c-0.855-0.065-1.711-0.117-2.565-0.198c-0.329-0.031-0.683,0.062-0.962-0.281c-0.134-0.165-0.431,0.015-0.65,0.054
			c-0.329,0.059-0.628,0.036-0.711-0.335c-0.088-0.391,0.204-0.554,0.523-0.565c0.698-0.025,0.986-0.739,1.594-0.9
			C72.752,67.773,72.887,67.715,73.006,67.617z"/>
		<path class="st0" d="M69.51,64.112c-0.074-0.117-0.148-0.234-0.223-0.352c-0.111-0.325-0.124-0.65,0.003-0.974
			c0.38-0.732,1.121-0.79,1.646-0.494c0.501,0.283,0.682,0.965,0.418,1.519c-0.235,0.493-0.703,0.668-1.483,0.555
			C69.751,64.281,69.63,64.196,69.51,64.112z"/>
		<path class="st0" d="M64.115,70.199c0.362-0.517,1.054-0.642,1.576-0.285c0.538,0.368,0.679,1.111,0.308,1.622
			c-0.357,0.492-1.097,0.626-1.601,0.29C63.872,71.475,63.742,70.731,64.115,70.199z"/>
		<path class="st0" d="M72.33,60.427c-0.537-0.37-0.675-1.034-0.323-1.562c0.369-0.555,1.064-0.696,1.608-0.327
			c0.528,0.359,0.666,1.108,0.3,1.625C73.561,60.663,72.845,60.782,72.33,60.427z"/>
		<path class="st0" d="M66.749,66.418c0.376-0.537,1.103-0.665,1.621-0.285c0.495,0.363,0.621,1.089,0.276,1.599
			c-0.347,0.514-1.128,0.644-1.637,0.274C66.507,67.641,66.391,66.93,66.749,66.418z"/>
		<g>
			<line class="st0" x1="73.669" y1="46.854" x2="71.59" y2="47.216"/>
		</g>
	</g>
	<g>
		<line class="st0" x1="58.542" y1="55.562" x2="41.267" y2="43.536"/>
		
			<rect x="48.849" y="39.025" transform="matrix(0.5713 -0.8207 0.8207 0.5713 -19.2734 62.1989)" class="st0" width="2.11" height="21.049"/>
	</g>
</g>
</svg>
