<?xml version="1.0" encoding="utf-8"?>
<!-- Generator: Adobe Illustrator 22.0.1, SVG Export Plug-In . SVG Version: 6.00 Build 0)  -->
<svg version="1.1" id="Layer_1" xmlns="http://www.w3.org/2000/svg" xmlns:xlink="http://www.w3.org/1999/xlink" x="0px" y="0px"
	 viewBox="0 0 100 100" style="enable-background:new 0 0 100 100;" xml:space="preserve">
<style type="text/css">
	.st0{fill:#FFFFFF;}
	.st1{fill:#E89528;}
	.st2{fill:#FDFBFC;}
	.st3{fill:#FDFDFD;}
	.st4{fill:none;}
</style>
<g id="WN6Hrq.tif">
	<g>
		<path class="st0" d="M76.601,35.275c0.527-3.325-1.395-3.369-3.719-3.363C51.488,31.969,30.094,32.005,8.7,31.876
			c-2.946-0.018-3.683,0.823-3.653,3.697c0.146,13.911,0.121,27.824,0.016,41.736c-0.019,2.548,0.361,3.628,3.345,3.608
			c21.627-0.144,43.256-0.128,64.884-0.012c2.704,0.014,3.441-0.795,3.259-3.365c-0.214-3.025,0.229-6.108-0.116-9.108
			c-0.496-4.314,0.895-7.495,4.698-9.698c0.934,0.405,0.458,1.355,0.462,2.064c0.04,7.131-0.039,14.264,0.055,21.394
			c0.036,2.714-1.058,3.739-3.751,3.734c-24.785-0.05-49.569-0.047-74.354-0.003C0.987,85.926-0.005,84.89,0,82.366
			c0.042-21.628,0.037-43.256,0.006-64.885c-0.003-2.337,0.909-3.409,3.321-3.406c25.019,0.032,50.037,0.03,75.056,0.006
			c2.448-0.002,3.308,1.206,3.248,3.493c-0.067,2.57-0.245,5.169,0.039,7.71C82.142,29.518,80.993,32.839,76.601,35.275z
			 M72.78,26.334c2.184-0.019,3.481-1.156,3.606-3.123c0.126-1.963-0.997-3.37-3.078-3.494c-2.19-0.131-3.603,0.994-3.66,3.248
			C69.597,25.036,70.873,26.101,72.78,26.334z M56.179,22.927c-0.391-1.929-1.368-3.274-3.481-3.221
			c-2.23,0.056-3.501,1.329-3.357,3.555c0.132,2.045,1.483,3.116,3.528,3.041C54.97,26.225,55.895,24.86,56.179,22.927z
			 M62.798,26.31c1.912-0.082,3.238-0.998,3.355-3.09c0.115-2.051-0.96-3.315-3.015-3.476c-2.235-0.175-3.611,1.067-3.665,3.215
			C59.423,24.913,60.627,26.149,62.798,26.31z"/>
		<path class="st0" d="M94.887,41.253c-0.507,0.603-0.975,1.253-1.534,1.81c-6.358,6.332-12.715,12.666-19.107,18.964
			c-2.735,2.695-3,2.376-5.546-0.48c-1.417-1.59-2.909-3.399-4.743-4.499c-2.409-1.445-2.528-2.928-0.778-4.689
			c6.655-6.694,13.384-13.315,20.097-19.951c0.715-0.707,1.387-1.736,2.569-0.547c2.794,2.809,5.621,5.585,8.421,8.389
			C94.502,40.485,94.63,40.828,94.887,41.253z"/>
		<path class="st0" d="M31.888,61.596c-6.186,0-12.373,0.02-18.559-0.021c-0.937-0.006-2.357,0.48-2.452-1.147
			c-0.115-1.992,1.534-1.361,2.529-1.364c12.373-0.041,24.746-0.037,37.118-0.006c0.903,0.002,2.298-0.54,2.25,1.26
			c-0.047,1.722-1.397,1.253-2.327,1.258C44.261,61.615,38.074,61.596,31.888,61.596z"/>
		<path class="st0" d="M32.116,67.554c6.059,0,12.119-0.029,18.178,0.03c0.969,0.009,2.579-0.69,2.469,1.384
			c-0.089,1.677-1.405,1.247-2.349,1.249c-12.352,0.025-24.703,0.026-37.055,0.001c-1.059-0.002-2.573,0.446-2.498-1.475
			c0.067-1.727,1.479-1.155,2.378-1.162C19.531,67.531,25.824,67.554,32.116,67.554z"/>
		<path class="st0" d="M100,35.525c-0.223,1.591-1.428,2.427-2.471,3.309c-1.285,1.087-1.848-0.385-2.495-0.995
			c-2.371-2.233-4.68-4.535-6.939-6.882c-0.61-0.634-2.08-1.194-0.826-2.469c1.19-1.209,2.495-3.288,4.302-1.977
			c3.083,2.236,5.755,5.04,8.126,8.07C99.897,34.836,99.912,35.235,100,35.525z"/>
		<path class="st0" d="M31.923,52.953c-6.069,0-12.139,0.033-18.207-0.033c-1.005-0.011-2.677,0.688-2.79-1.1
			c-0.12-1.896,1.6-1.304,2.606-1.308c12.255-0.043,24.51-0.039,36.765-0.003c0.912,0.003,2.373-0.53,2.421,1.13
			c0.058,1.992-1.615,1.27-2.588,1.281C44.062,52.986,37.993,52.953,31.923,52.953z"/>
		<path class="st0" d="M23.762,44.439c-3.607,0-7.214,0.025-10.82-0.019c-0.831-0.01-2.02,0.369-2.089-1.119
			c-0.075-1.618,1.122-1.486,2.164-1.487c7.33-0.008,14.659-0.015,21.989,0.008c0.98,0.003,2.274-0.294,2.242,1.381
			c-0.033,1.75-1.418,1.197-2.317,1.212C31.209,44.474,27.485,44.439,23.762,44.439z"/>
		<path class="st0" d="M62.091,67.906c-1.739,0.865-3.709,1.369-5.995,1.713c0.451-2.181,0.856-4.172,1.948-6.264
			C59.472,64.96,60.766,66.416,62.091,67.906z"/>
	</g>
</g>
</svg>
