<?xml version="1.0" encoding="utf-8"?>
<!-- Generator: Adobe Illustrator 22.0.1, SVG Export Plug-In . SVG Version: 6.00 Build 0)  -->
<svg version="1.1" id="Layer_1" xmlns="http://www.w3.org/2000/svg" xmlns:xlink="http://www.w3.org/1999/xlink" x="0px" y="0px"
	 viewBox="0 0 317.255 178.001" style="enable-background:new 0 0 317.255 178.001;" xml:space="preserve">
<style type="text/css">
	.st0{fill:#CECECF;}
	.st1{fill:#FFFFFF;}
	.st2{fill:#231F20;}
	.st3{fill:#CCCCCC;}
	.st4{fill:#B7B7B7;}
	.st5{fill:#F3EFF0;}
	.st6{fill:#F7C72E;}
	.st7{fill:#333333;}
	.st8{fill:#D70B8C;}
	.st9{fill:none;stroke:#333333;stroke-miterlimit:10;}
	.st10{fill:#F7C72E;stroke:#F7C72E;stroke-miterlimit:10;}
</style>
<g id="XMLID_10_">
	<path id="XMLID_11_" class="st0" d="M158.627,168.444H0v0c0,3.516,3.923,6.522,9.297,7.124l8.38,0.939
		c8.869,0.994,17.855,1.494,26.858,1.494h114.092h114.092c9.003,0,17.988-0.5,26.858-1.494l8.38-0.939
		c5.374-0.602,9.297-3.608,9.297-7.124v0H158.627z"/>
	<path id="XMLID_7_" class="st1" d="M18.424,168.963V14.829C18.424,6.652,25.076,0,33.253,0h250.748
		c8.176,0,14.829,6.652,14.829,14.829v154.134H18.424z"/>
	<path id="XMLID_1_" class="st2" d="M282.533,1.797H34.722c-8.008,0-14.5,6.492-14.5,14.5v150.868h276.812V16.297
		C297.033,8.289,290.541,1.797,282.533,1.797z"/>
	<rect id="XMLID_6_" x="31.006" y="16.987" class="st3" width="255.242" height="138.045"/>
	<path id="XMLID_20_" class="st4" d="M158.627,168.444H0v0c0,3.516,3.923,6.522,9.297,7.124l8.38,0.939
		c8.869,0.994,17.855,1.494,26.858,1.494h114.092h114.092c9.003,0,17.988-0.5,26.858-1.494l8.38-0.939
		c5.374-0.602,9.297-3.608,9.297-7.124v0H158.627z"/>
	<path id="XMLID_23_" class="st1" d="M2.186,172.725h312.882c1.377-1.207,2.186-2.69,2.186-4.281H158.627H0
		C0,170.035,0.809,171.518,2.186,172.725z"/>
</g>
<g>
	<g>
		<rect x="39.381" y="26.657" class="st5" width="239.232" height="127.607"/>
	</g>
	<g id="cnboHc.tif">
		<g>
			<path class="st6" d="M238.819,111.263c1.251,1.123,2.497,2.25,3.753,3.368c3.559,3.168,7.122,6.331,10.683,9.496
				c0.059,0.053,0.126,0.097,0.189,0.146c0,0.027,0,0.054,0,0.081c-0.521,0.559-1.041,1.119-1.588,1.707
				c-4.359-3.826-8.716-7.649-13.11-11.506c-4.343,3.843-8.683,7.682-13.047,11.543c-0.541-0.6-1.06-1.176-1.59-1.764
				c1.828-1.629,3.626-3.232,5.425-4.834c3.025-2.696,6.05-5.391,9.075-8.087c0.049-0.044,0.087-0.099,0.131-0.149
				C238.765,111.263,238.792,111.263,238.819,111.263z"/>
			<path class="st6" d="M238.813,116.877c1.048,0.872,2.092,1.74,3.135,2.609c2.515,2.092,5.032,4.181,7.537,6.285
				c0.149,0.125,0.279,0.371,0.28,0.562c0.015,4.632,0.012,9.264,0.011,13.895c0,0.106-0.01,0.212-0.017,0.341
				c-2.435,0-4.85,0-7.304,0c0-2.423,0-4.84,0-7.287c-2.454,0-4.869,0-7.323,0c0,2.417,0,4.834,0,7.282c-2.455,0-4.871,0-7.335,0
				c-0.006-0.13-0.018-0.272-0.018-0.414c-0.001-4.443-0.004-8.887,0.009-13.33c0.001-0.187,0.086-0.434,0.221-0.553
				c3.553-3.115,7.118-6.217,10.681-9.321C238.711,116.929,238.737,116.919,238.813,116.877z"/>
			<path class="st6" d="M231.062,113.609c0,0.843,0.004,1.648-0.005,2.452c-0.001,0.094-0.05,0.214-0.119,0.275
				c-0.943,0.839-1.893,1.671-2.842,2.503c-0.015,0.013-0.049,0.006-0.095,0.011c0-1.74,0-3.477,0-5.241
				C229.015,113.609,230.014,113.609,231.062,113.609z"/>
		</g>
	</g>
	<g id="lMEEb5.tif">
		<g>
			<path class="st6" d="M153.548,112.386c3.589,0,7.178-0.005,10.766,0.002c2.067,0.004,2.707,0.515,2.831,2.609
				c0.06,1.023,0.422,1.253,1.346,1.222c1.677-0.057,3.357,0.013,5.035-0.023c1.937-0.042,3.304,0.721,4.134,2.528
				c1.182,2.571,2.357,5.154,3.712,7.635c1.395,2.554,1.201,5.268,1.042,7.957c-0.123,2.092-3.831,3.814-5.546,2.727
				c-0.431-0.273-0.253-0.724-0.285-1.105c-0.241-2.832-2.484-4.968-5.246-4.985c-2.765-0.017-5.074,2.094-5.254,4.952
				c-0.06,0.95-0.286,1.327-1.288,1.309c-2.893-0.052-5.789-0.053-8.682,0.001c-0.997,0.019-1.21-0.349-1.299-1.296
				c-0.274-2.904-2.546-4.979-5.273-4.994c-2.724-0.015-4.967,2.026-5.281,4.943c-0.106,0.982-0.521,1.25-1.426,1.29
				c-2.9,0.129-4.082-0.92-4.089-3.803c-0.015-5.673-0.014-11.345,0-17.018c0.007-2.847,1.146-3.945,4.038-3.949
				C146.37,112.382,149.959,112.386,153.548,112.386z M152.984,127.659c3.7,0,7.4-0.028,11.1,0.019
				c0.971,0.012,1.309-0.275,1.295-1.27c-0.049-3.584-0.062-7.169,0.006-10.752c0.022-1.18-0.413-1.452-1.509-1.446
				c-7.053,0.04-14.106,0.037-21.159,0.007c-1.552-0.006-2.203,0.702-2.195,2.199c0.016,3.295,0.039,6.591-0.015,9.886
				c-0.017,1.052,0.307,1.397,1.378,1.38C145.583,127.623,149.284,127.659,152.984,127.659z M172.87,125.822
				c0.288,0,0.575,0,0.863,0c3.09,0,2.984,0.045,1.764-2.826c-0.879-2.07-1.855-3.355-4.471-3.079
				c-1.633,0.172-1.947,0.619-1.916,2.094C169.19,125.82,169.13,125.822,172.87,125.822z"/>
			<path class="st6" d="M153.265,136.039c0,2.264-1.604,3.902-3.778,3.856c-2.028-0.043-3.595-1.625-3.63-3.665
				c-0.04-2.383,1.534-3.76,4.274-3.737C151.751,132.506,153.265,134.219,153.265,136.039z M149.535,134.906
				c-0.693,0.095-1.17,0.447-1.174,1.197c-0.005,0.803,0.421,1.315,1.247,1.278c0.797-0.036,1.251-0.536,1.198-1.346
				C150.757,135.295,150.247,134.974,149.535,134.906z"/>
			<path class="st6" d="M167.868,136.082c0.013-2.387,1.086-3.476,3.405-3.457c2.235,0.019,3.865,1.541,3.824,3.573
				c-0.042,2.074-1.74,3.72-3.813,3.696C169.082,139.868,167.855,138.499,167.868,136.082z M172.656,136.211
				c-0.105-0.779-0.503-1.304-1.314-1.325c-0.722-0.019-1.229,0.41-1.295,1.118c-0.073,0.788,0.361,1.323,1.177,1.398
				C172.061,137.478,172.449,136.938,172.656,136.211z"/>
			<path class="st6" d="M122.505,133.298c-0.716-0.001-1.529-0.014-1.508-0.979c0.018-0.863,0.784-0.848,1.436-0.848
				c4.576,0,9.152-0.003,13.729,0.003c0.693,0.001,1.547-0.071,1.492,0.956c-0.053,0.993-0.91,0.865-1.594,0.867
				C133.801,133.304,124.764,133.301,122.505,133.298z"/>
			<path class="st6" d="M131.701,129.476c-1.559,0-3.118,0.002-4.678-0.001c-0.627-0.001-1.214-0.144-1.217-0.901
				c-0.004-0.754,0.567-0.909,1.204-0.909c3.176,0.002,6.352,0,9.529,0.001c0.658,0,1.172,0.223,1.122,0.981
				c-0.042,0.648-0.53,0.829-1.108,0.829C134.935,129.476,133.318,129.476,131.701,129.476z"/>
			<path class="st6" d="M134.041,125.649c-0.865,0.001-1.73,0.022-2.594-0.006c-0.536-0.018-0.869-0.348-0.86-0.885
				c0.009-0.526,0.331-0.88,0.869-0.886c1.787-0.021,3.574-0.021,5.361,0.001c0.539,0.007,0.854,0.361,0.857,0.891
				c0.003,0.54-0.33,0.861-0.866,0.876C135.886,125.666,134.963,125.647,134.041,125.649z"/>
			<path class="st6" d="M134.03,137.095c-0.865-0.002-1.73,0.024-2.594-0.011c-0.537-0.022-0.845-0.382-0.845-0.908
				c0-0.544,0.342-0.856,0.878-0.86c1.787-0.014,3.574-0.017,5.361,0.008c0.533,0.007,0.864,0.343,0.842,0.89
				c-0.021,0.527-0.332,0.864-0.875,0.877C135.875,137.113,134.953,137.097,134.03,137.095z"/>
		</g>
	</g>
	<g>
		<rect x="155.865" y="61.119" class="st7" width="40.306" height="8.061"/>
		<rect x="178.034" y="91.349" class="st8" width="18.138" height="3.023"/>
		<line class="st9" x1="155.865" y1="73.211" x2="196.172" y2="73.211"/>
		<line class="st9" x1="155.865" y1="77.746" x2="196.172" y2="77.746"/>
		<line class="st9" x1="155.865" y1="82.28" x2="196.172" y2="82.28"/>
		<line class="st9" x1="155.865" y1="86.815" x2="185.087" y2="86.815"/>
		<path class="st8" d="M129.5,57.137c6.679,7.708,10.46,7.786,13.991,1.145c2.257,7.081,2.489,7.136,1.098,13.037
			c-0.635,2.697-0.105,4.538,1.614,6.44c1.331,1.472,2.594,3.04,3.655,4.713c1.08,1.702,3.944,2.91,1.097,5.873
			c-0.801,0.834,0.932,4.103,1.503,6.255c1.262,4.755-0.565,7.18-5.538,7.283c-6.397,0.132-12.724,1.183-19.215-0.022
			c-5.146-0.955-6.685-2.617-5.512-7.679c0.634-2.739,3.754-5.538,0.487-8.606c-0.129-0.121,0.493-1.111,0.837-1.65
			c0.855-1.34,1.608-2.78,2.657-3.953c3.317-3.711,4.714-7.703,2.699-12.583C127.501,64.068,130.297,61.216,129.5,57.137z"/>
		<g id="GwpG4i.tif">
			<g>
				<path d="M190.585,99.41c-1.228,0-2.456,0-3.684,0c0.001-0.011,0.004-0.022,0.004-0.033c0-0.343,0-0.686,0-1.03
					c0-0.012-0.004-0.024-0.006-0.043c-0.119,0-0.236,0-0.361,0c0-0.247,0-0.488,0-0.734c-0.125,0-0.242,0-0.366,0
					c0-0.246,0-0.487,0-0.735c-0.125,0-0.243,0-0.369,0c0-0.247,0-0.488,0-0.737c-0.125,0-0.243,0-0.369,0c0-0.125,0-0.243,0-0.362
					c-0.121,0-0.234,0-0.348,0c0-0.366,0-0.731,0-1.097c0.363,0,0.726,0,1.095,0c0,0.124,0,0.242,0,0.367c0.097,0,0.188,0,0.279,0
					c0.078,0,0.078,0,0.078-0.078c0-1.05,0-2.1,0-3.15c0-0.025,0-0.051,0-0.083c0.126,0,0.244,0,0.361,0c0-0.121,0-0.234,0-0.348
					c0.25,0,0.5,0,0.75,0c0,0.115,0,0.23,0,0.351c0.126,0,0.244,0,0.368,0c0,0.492,0,0.978,0,1.471c0.246,0,0.485,0,0.733,0
					c0,0.125,0,0.243,0,0.367c0.371,0,0.734,0,1.103,0c0,0.125,0,0.243,0,0.367c0.246,0,0.486,0,0.732,0c0,0.124,0,0.243,0,0.367
					c0.125,0,0.243,0,0.368,0c0,0.125,0,0.243,0,0.368c0.127,0,0.248,0,0.368,0c0,0.855,0,1.709,0,2.564c-0.122,0-0.244,0-0.372,0
					c0,0.372,0,0.734,0,1.104c-0.124,0-0.242,0-0.365,0c0,0.031,0,0.055,0,0.079C190.586,98.729,190.585,99.07,190.585,99.41z
					 M190.227,95.368c-0.133,0-0.259,0-0.391,0c0-0.489,0-0.975,0-1.461c-0.24,0-0.474,0-0.712,0c0,0.367,0,0.73,0,1.095
					c-0.131,0-0.257,0-0.388,0c0-0.489,0-0.975,0-1.463c-0.241,0-0.476,0-0.717,0c0,0.491,0,0.977,0,1.461c-0.131,0-0.257,0-0.387,0
					c0-1.103,0-2.201,0-3.299c-0.239,0-0.473,0-0.712,0c0,1.593,0,3.182,0,4.771c-0.131,0-0.257,0-0.39,0c0-0.368,0-0.732,0-1.103
					c-0.125,0-0.243,0-0.366,0c0-0.123,0-0.24,0-0.361c-0.238,0-0.472,0-0.707,0c0,0.244,0,0.484,0,0.729c0.122,0,0.24,0,0.364,0
					c0,0.124,0,0.243,0,0.368c0.124,0,0.242,0,0.367,0c0,0.247,0,0.488,0,0.735c0.126,0,0.244,0,0.369,0c0,0.247,0,0.489,0,0.736
					c0.124,0,0.243,0,0.367,0c0,0.246,0,0.488,0,0.736c0.124,0,0.243,0,0.366,0c0,0.246,0,0.486,0,0.727c0.974,0,1.943,0,2.916,0
					c0-0.245,0-0.485,0-0.73c0.123,0,0.242,0,0.367,0c0-0.37,0-0.734,0-1.104c0.125,0,0.243,0,0.364,0c0-0.857,0-1.709,0-2.567
					c-0.122,0-0.24,0-0.366,0c0-0.126,0-0.245,0-0.364c-0.119,0-0.23,0-0.344,0C190.227,94.639,190.227,95.001,190.227,95.368z"/>
			</g>
		</g>
	</g>
	<g>
		<g>
			<polygon class="st6" points="72.297,138.024 59.815,131.159 59.815,118.676 72.297,125.542 			"/>
			<polygon class="st6" points="86.652,131.159 74.169,138.024 74.169,125.542 86.652,118.676 			"/>
			<polygon class="st6" points="72.921,109.939 59.815,116.804 72.921,123.669 86.652,116.804 			"/>
		</g>
		<path class="st8" d="M74.528,113.612c0.268,1.547,0.916,2.028,2.299,1.858c-0.428,0.936-0.394,0.97-1.319,1.34
			c-0.423,0.169-0.544,0.405-0.466,0.796c0.061,0.303,0.099,0.605,0.089,0.893c-0.009,0.292,0.348,0.762-0.49,0.679
			c-0.236-0.023-0.313,0.495-0.463,0.765c-0.331,0.597-0.93,0.592-1.806-0.022c-1.127-0.789-2.348-1.484-3.337-2.409
			c-0.784-0.733-0.859-1.079-0.068-1.399c0.428-0.173,1.294-0.041,1.082-0.733c-0.008-0.027,0.214-0.041,0.337-0.047
			c0.304-0.017,0.602-0.055,0.92-0.032c1.006,0.073,1.712-0.12,1.927-0.823C73.377,114.001,74.193,114.088,74.528,113.612z"/>
	</g>
	<circle class="st6" cx="153.431" cy="147.385" r="3.745"/>
	<circle class="st6" cx="73.545" cy="147.385" r="3.745"/>
	<circle class="st6" cx="235.189" cy="147.385" r="3.745"/>
	<line class="st10" x1="72.297" y1="147.385" x2="235.189" y2="147.385"/>
	<rect x="38.476" y="16.303" class="st7" width="239.499" height="12.059"/>
	<rect x="50.25" y="38.009" class="st7" width="216.275" height="9.647"/>
	<rect x="91.618" y="38.009" class="st8" width="36.288" height="9.647"/>
</g>
</svg>
