<?xml version="1.0" encoding="utf-8"?>
<!-- Generator: Adobe Illustrator 22.0.1, SVG Export Plug-In . SVG Version: 6.00 Build 0)  -->
<svg version="1.1" id="Layer_1" xmlns="http://www.w3.org/2000/svg" xmlns:xlink="http://www.w3.org/1999/xlink" x="0px" y="0px"
	 viewBox="0 0 317.255 178.001" style="enable-background:new 0 0 317.255 178.001;" xml:space="preserve">
<style type="text/css">
	.st0{fill:#CECECF;}
	.st1{fill:#FFFFFF;}
	.st2{fill:#231F20;}
	.st3{fill:#CCCCCC;}
	.st4{fill:#B7B7B7;}
	.st5{fill:#F3EFF0;}
	.st6{fill:#333333;}
	.st7{fill:#D70B8C;}
	.st8{fill:#00DBAA;}
	.st9{fill:#2E2E2E;}
	.st10{fill:#F6A53E;}
	.st11{fill:#F7E937;}
	.st12{fill:#0787D9;}
	.st13{fill:#FDFEFE;}
	.st14{fill:#F538BA;}
	.st15{fill:#EE0196;}
	.st16{fill:#020202;}
	.st17{fill:#C54A5F;}
	.st18{fill:#010101;}
	.st19{fill:#A70911;}
	.st20{fill:#A70810;}
	.st21{fill:#B4262F;}
	.st22{fill:#FE9B33;}
	.st23{fill:#F45F0D;}
	.st24{fill:#EB223F;}
	.st25{fill:#EB233F;}
	.st26{fill:#FCFCFC;}
	.st27{fill:#009BCC;}
	.st28{fill:#BB1E23;}
</style>
<g id="XMLID_13_">
	<path id="XMLID_19_" class="st0" d="M158.627,168.444H0v0c0,3.516,3.923,6.522,9.297,7.124l8.38,0.939
		c8.869,0.994,17.855,1.494,26.858,1.494h114.092h114.092c9.003,0,17.988-0.5,26.858-1.494l8.38-0.939
		c5.374-0.602,9.297-3.608,9.297-7.124v0H158.627z"/>
	<path id="XMLID_18_" class="st1" d="M18.424,168.963V14.829C18.424,6.652,25.076,0,33.253,0h250.748
		c8.176,0,14.829,6.652,14.829,14.829v154.134H18.424z"/>
	<path id="XMLID_17_" class="st2" d="M282.533,1.797H34.722c-8.008,0-14.5,6.492-14.5,14.5v150.868h276.812V16.297
		C297.033,8.289,290.541,1.797,282.533,1.797z"/>
	<rect id="XMLID_16_" x="31.006" y="16.987" class="st3" width="255.242" height="138.045"/>
	<path id="XMLID_15_" class="st4" d="M158.627,168.444H0v0c0,3.516,3.923,6.522,9.297,7.124l8.38,0.939
		c8.869,0.994,17.855,1.494,26.858,1.494h114.092h114.092c9.003,0,17.988-0.5,26.858-1.494l8.38-0.939
		c5.374-0.602,9.297-3.608,9.297-7.124v0H158.627z"/>
	<path id="XMLID_14_" class="st1" d="M2.186,172.725h312.882c1.377-1.207,2.186-2.69,2.186-4.281H158.627H0
		C0,170.035,0.809,171.518,2.186,172.725z"/>
</g>
<g>
	<rect x="38.423" y="28.362" class="st5" width="239.499" height="126.748"/>
	<rect x="38.423" y="16.303" class="st6" width="239.499" height="12.059"/>
	<rect x="50.196" y="38.009" class="st6" width="216.275" height="9.647"/>
	<rect x="91.564" y="38.009" class="st7" width="36.288" height="9.647"/>
	<rect x="162.874" y="60.954" class="st8" width="104.51" height="34.837"/>
	<rect x="47.549" y="60.954" class="st8" width="104.51" height="34.837"/>
	<g id="i0JRbO.tif_1_">
		<g>
			<path class="st9" d="M197.291,67.371c0.388-0.807,0.855-1.478,1.629-1.93c1.147-0.67,2.343-0.856,3.582-0.438
				c1.384,0.466,2.261,1.351,2.509,2.914c0.17,1.075,0.127,2.127,0.136,3.187c0.023,2.872,0.008,5.743,0.008,8.615
				c0,0.712-0.119,0.828-0.844,0.829c-0.741,0.001-1.482,0.002-2.223-0.001c-0.683-0.002-0.814-0.129-0.813-0.805
				c0.003-2.89,0.009-5.78,0.01-8.67c0-0.333-0.003-0.668-0.03-0.999c-0.081-0.999-0.514-1.518-1.348-1.638
				c-0.886-0.128-1.721,0.349-2.045,1.185c-0.203,0.526-0.246,1.082-0.248,1.64c-0.008,2.797-0.01,5.595-0.014,8.393
				c-0.001,0.762-0.134,0.896-0.902,0.896c-0.741,0-1.482,0.004-2.223-0.001c-0.608-0.004-0.752-0.145-0.752-0.755
				c0.001-2.853,0.007-5.706,0.011-8.559c0.001-0.557-0.017-1.113-0.183-1.65c-0.236-0.764-0.697-1.147-1.424-1.194
				c-0.8-0.052-1.386,0.275-1.715,0.973c-0.241,0.511-0.336,1.061-0.338,1.62c-0.014,2.89-0.019,5.78-0.027,8.67
				c-0.002,0.756-0.141,0.895-0.907,0.896c-0.76,0-1.519-0.011-2.279,0.004c-0.496,0.01-0.699-0.209-0.698-0.701
				c0.007-4.687,0.006-9.375,0.001-14.062c-0.001-0.494,0.218-0.707,0.708-0.699c0.759,0.013,1.519,0.016,2.279-0.001
				c0.53-0.012,0.741,0.231,0.71,0.745c-0.018,0.295-0.004,0.593,0.001,0.889c0.002,0.09,0.008,0.187,0.122,0.218
				c0.118,0.032,0.156-0.059,0.208-0.133c0.201-0.288,0.381-0.594,0.61-0.857c0.807-0.924,1.866-1.155,3.046-1.143
				C195.601,64.827,196.474,65.975,197.291,67.371z M189.944,67.223c-0.012-0.014-0.024-0.028-0.036-0.042
				c-0.013,0.013-0.027,0.025-0.04,0.038c0.018,0.014,0.036,0.029,0.055,0.043C189.93,67.249,189.937,67.236,189.944,67.223z"/>
			<path class="st9" d="M182.909,72.083c0,1.127,0.013,2.072-0.004,3.016c-0.016,0.886,0.216,1.679,0.765,2.381
				c0.135,0.173,0.231,0.376,0.341,0.568c0.15,0.262,0.106,0.481-0.128,0.681c-0.676,0.577-1.343,1.165-2.018,1.742
				c-0.296,0.253-0.595,0.248-0.898-0.011c-0.496-0.426-0.927-0.907-1.262-1.467c-0.154-0.258-0.283-0.272-0.511-0.071
				c-0.349,0.308-0.705,0.615-1.054,0.919c-1.274,1.11-4.501,1.239-5.894,0.149c-1.358-1.063-1.72-2.508-1.578-4.11
				c0.212-2.391,1.834-4.06,4.197-4.531c1.215-0.242,2.435-0.411,3.666-0.517c0.341-0.029,0.453-0.149,0.416-0.478
				c-0.027-0.238,0-0.481-0.007-0.722c-0.032-1.134-0.521-1.763-1.514-1.953c-1.072-0.205-2.148,0.324-2.538,1.251
				c-0.05,0.119-0.087,0.244-0.125,0.368c-0.15,0.492-0.463,0.608-0.961,0.52c-0.691-0.122-1.397-0.164-2.097-0.238
				c-0.496-0.052-0.642-0.306-0.565-0.8c0.26-1.67,2.069-3.382,3.651-3.767c1.179-0.287,2.344-0.42,3.546-0.313
				c0.632,0.056,1.245,0.224,1.825,0.445c1.577,0.603,2.522,1.733,2.693,3.456C182.976,69.822,182.877,71.044,182.909,72.083z
				 M178.942,74.246c0-0.374-0.011-0.634,0.003-0.893c0.013-0.239-0.068-0.323-0.317-0.313c-0.837,0.033-1.664,0.11-2.435,0.473
				c-1.29,0.607-1.839,2.222-1.192,3.496c0.329,0.648,1.075,1.12,1.542,0.996c0.835-0.223,1.541-0.669,1.947-1.499
				C178.859,75.749,178.958,74.954,178.942,74.246z"/>
			<path class="st9" d="M214.324,64.646c1.06-0.004,2.097,0.158,3.06,0.597c1.518,0.692,2.289,1.829,2.394,3.575
				c0.133,2.216,0.036,4.427,0.1,6.638c0.024,0.834,0.376,1.529,0.871,2.178c0.47,0.615,0.403,0.578-0.07,1.154
				c-0.542,0.661-1.304,1.049-1.863,1.68c-0.255,0.288-0.586,0.242-0.89-0.017c-0.484-0.412-0.906-0.878-1.228-1.424
				c-0.175-0.298-0.291-0.272-0.511-0.038c-1.204,1.277-2.698,1.809-4.445,1.766c-2.29-0.057-3.805-1.377-4.098-3.642
				c-0.336-2.593,0.949-4.702,3.431-5.536c1.097-0.368,2.225-0.591,3.406-0.583c0.387,0.003,0.816-0.144,1.231-0.193
				c0.202-0.024,0.218-0.159,0.212-0.32c-0.011-0.333,0.004-0.668-0.026-0.999c-0.099-1.123-0.63-1.702-1.653-1.829
				c-1.072-0.133-2.076,0.432-2.423,1.363c-0.326,0.874-0.325,0.869-1.218,0.765c-0.625-0.073-1.253-0.124-1.878-0.2
				c-0.612-0.075-0.737-0.26-0.599-0.848c0.492-2.098,1.896-3.261,3.905-3.798C212.783,64.735,213.548,64.647,214.324,64.646z
				 M215.924,74.098c0-0.185-0.023-0.374,0.005-0.554c0.068-0.435-0.114-0.533-0.524-0.5c-0.667,0.054-1.336,0.093-1.955,0.357
				c-0.432,0.184-0.943,0.29-1.209,0.724c-0.494,0.803-0.653,1.671-0.389,2.599c0.22,0.774,0.845,1.075,1.521,1.295
				c0.324,0.105,1.451-0.593,1.715-0.935C215.772,76.195,215.927,75.172,215.924,74.098z"/>
			<path class="st9" d="M253.839,67.491c0.392-0.734,0.9-1.314,1.468-1.867c0.877-0.853,1.944-0.905,3.047-0.777
				c0.549,0.063,1.094,0.212,1.572,0.523c0.908,0.591,1.406,1.448,1.618,2.49c0.167,0.821,0.215,1.653,0.216,2.487
				c0.004,3.131,0.002,6.262,0.001,9.392c0,0.689-0.117,0.806-0.804,0.808c-0.778,0.002-1.556,0.004-2.334,0
				c-0.607-0.003-0.74-0.139-0.74-0.76c-0.001-2.853,0-5.706,0-8.559c0-0.613-0.027-1.224-0.241-1.808
				c-0.232-0.631-0.669-1.027-1.357-1.053c-0.685-0.026-1.253,0.206-1.62,0.836c-0.514,0.884-0.609,1.853-0.61,2.843
				c-0.003,2.538,0,5.076-0.001,7.614c0,0.787-0.102,0.886-0.907,0.886c-0.76,0-1.519-0.01-2.279,0.004
				c-0.496,0.009-0.696-0.21-0.696-0.704c0.007-4.687,0.008-9.374,0-14.061c-0.001-0.492,0.186-0.709,0.687-0.697
				c0.759,0.018,1.519,0.017,2.278,0c0.531-0.012,0.73,0.231,0.708,0.746C253.82,66.386,253.839,66.938,253.839,67.491z"/>
			<path class="st9" d="M235.281,73.323c-0.015-1.909,0.164-3.246,0.691-4.51c0.627-1.503,1.543-2.709,3.11-3.435
				c1.96-0.908,3.809-0.737,5.63,0.232c0.955,0.508,1.697,1.305,2.176,2.282c1.543,3.143,1.686,6.356,0.152,9.521
				c-1.594,3.289-5.543,4.45-8.517,2.604c-0.791-0.491-1.365-1.176-1.885-1.968C235.573,76.428,235.339,74.636,235.281,73.323z
				 M243.903,73.096c-0.011-1.405-0.053-2.637-0.387-3.844c-0.236-0.855-0.787-1.399-1.585-1.496
				c-0.841-0.102-1.505,0.247-1.919,1.024c-0.283,0.53-0.404,1.107-0.478,1.698c-0.152,1.216-0.072,2.436-0.076,3.656
				c-0.003,0.99,0.24,1.908,0.673,2.775c0.333,0.666,0.897,1.036,1.671,0.946c0.916-0.106,1.42-0.706,1.706-1.526
				C243.891,75.226,243.885,74.075,243.903,73.096z"/>
			<path class="st10" d="M207.446,92.099c-8.89-0.124-16.75-2.985-23.478-8.849c-0.266-0.232-0.704-0.478-0.405-0.897
				c0.299-0.419,0.673-0.08,0.98,0.094c4.306,2.434,8.894,4.115,13.728,5.133c4.597,0.968,9.244,1.235,13.918,0.826
				c4.767-0.417,9.375-1.535,13.801-3.375c0.205-0.085,0.414-0.167,0.629-0.218c0.363-0.087,0.67,0.042,0.861,0.352
				c0.196,0.32,0.059,0.607-0.183,0.848c-0.104,0.104-0.224,0.193-0.345,0.278c-3.219,2.272-6.793,3.741-10.599,4.69
				C213.428,91.711,210.467,92.112,207.446,92.099z"/>
			<path class="st9" d="M228.677,68.17c-1.573,0-3.048,0.001-4.522,0c-0.75-0.001-0.855-0.109-0.856-0.875c0-0.5-0.005-1,0.001-1.5
				c0.007-0.598,0.153-0.74,0.768-0.74c2.926-0.002,5.852-0.002,8.778,0c0.654,0,0.742,0.141,0.808,0.763
				c0.135,1.264-0.257,2.304-1.018,3.319c-1.453,1.939-2.803,3.955-4.19,5.944c-0.078,0.112-0.223,0.2-0.198,0.408
				c1.071-0.001,2.134,0.076,3.175,0.346c0.648,0.168,1.266,0.409,1.864,0.71c0.426,0.214,0.636,0.535,0.627,1.017
				c-0.013,0.648,0.004,1.296-0.005,1.944c-0.009,0.615-0.299,0.788-0.859,0.53c-3.133-1.441-6.265-1.49-9.398,0
				c-0.572,0.272-0.871,0.087-0.883-0.564c-0.012-0.666-0.001-1.333,0.001-2c0.001-0.613,0.202-1.146,0.558-1.651
				C225.096,73.31,226.849,70.788,228.677,68.17z"/>
			<path class="st10" d="M226.618,83.169c-1.097-0.056-2.177,0.118-3.264,0.223c-0.212,0.02-0.48,0.092-0.575-0.19
				c-0.096-0.287,0.133-0.439,0.333-0.574c1.378-0.93,2.94-1.281,4.562-1.413c1.001-0.081,1.998,0.004,2.981,0.215
				c0.97,0.208,1.241,0.5,1.175,1.491c-0.157,2.392-0.938,4.554-2.522,6.388c-0.193,0.223-0.412,0.428-0.642,0.612
				c-0.183,0.146-0.403,0.326-0.646,0.126c-0.232-0.191-0.056-0.411,0.02-0.608c0.575-1.483,1.178-2.957,1.438-4.54
				c0.2-1.216-0.13-1.652-1.362-1.726C227.619,83.144,227.118,83.169,226.618,83.169z"/>
		</g>
	</g>
	<g id="MbgOWa.tif_2_">
		<g>
			<path class="st11" d="M135.768,91.735c-3.412,0.006-6.824,0.012-10.236,0.018c-0.39,0.001-0.781,0.005-1.171-0.002
				c-0.837-0.016-1.441-0.599-1.472-1.439c-0.019-0.509-0.003-1.019-0.003-1.528c0.003-6.231,0.011-12.462-0.004-18.692
				c-0.001-0.498,0.136-0.609,0.62-0.608c8.523,0.015,17.046,0.014,25.568,0.002c0.446-0.001,0.603,0.088,0.602,0.578
				c-0.015,6.672-0.006,13.344-0.005,20.017c0,1.088-0.58,1.674-1.66,1.672c-2.444-0.005-4.888-0.016-7.332-0.025
				c0.234-1.332,0.473-2.664,0.697-3.998c0.039-0.23,0.129-0.309,0.364-0.303c0.577,0.015,1.154,0.004,1.732,0.002
				c0.505-0.002,0.884-0.234,1.12-0.67c0.34-0.626,0.484-1.305,0.432-2.013c-0.044-0.604-0.312-0.84-0.92-0.851
				c-0.543-0.01-1.087-0.017-1.63,0.002c-0.288,0.01-0.397-0.058-0.329-0.366c0.141-0.646,0.224-1.306,0.388-1.946
				c0.457-1.78,1.456-2.537,3.292-2.561c0.385-0.005,0.767-0.029,1.155-0.105c0.494-0.097,0.6-0.385,0.593-0.786
				c-0.008-0.46-0.123-0.907-0.243-1.349c-0.254-0.941-0.55-1.239-1.51-1.293c-3.038-0.172-5.821,1.024-7.367,3.856
				c-0.707,1.295-0.933,2.719-1.183,4.138c-0.054,0.309-0.155,0.424-0.484,0.414c-2.515-0.075-5.022,0.024-7.515,0.387
				c-0.156,0.023-0.356-0.054-0.436,0.179c1.09,0.163,2.179,0.339,3.271,0.482c0.329,0.043,0.449,0.229,0.446,0.499
				c-0.003,0.306-0.278,0.151-0.428,0.188c-0.498,0.121-1.039-0.007-1.539,0.253c0.648,0.088,1.269,0.181,1.893,0.254
				c0.239,0.028,0.318,0.162,0.323,0.37c0.007,0.258-0.203,0.183-0.332,0.191c-0.762,0.048-1.526,0.082-2.288,0.124
				c-1.334,0.073-2.669,0.148-4.05,0.224c0.15,0.137,0.275,0.103,0.39,0.107c3.189,0.109,6.376,0.316,9.57,0.267
				c0.381-0.006,0.438,0.095,0.368,0.454C136.207,89.159,135.994,90.448,135.768,91.735z M136.217,76.123
				c1.029-0.039,1.982-0.168,2.895-0.526c2.038-0.801,3.4-2.737,3.254-4.647c-0.023-0.298-0.026-0.657-0.479-0.632
				c-0.433,0.023-0.369,0.357-0.373,0.643c-0.015,1.302-0.518,2.372-1.548,3.174c-1.331,1.037-2.881,1.222-4.49,1.074
				c-2.524-0.232-4.213-1.884-4.501-4.36c-0.033-0.28-0.115-0.512-0.438-0.518c-0.345-0.006-0.406,0.26-0.419,0.526
				c-0.049,0.988,0.252,1.885,0.832,2.663C132.272,75.294,134.115,76.039,136.217,76.123z"/>
			<path class="st12" d="M135.768,91.735c0.227-1.286,0.439-2.575,0.689-3.857c0.07-0.359,0.013-0.46-0.368-0.454
				c-3.193,0.048-6.38-0.158-9.57-0.267c-0.115-0.004-0.24,0.03-0.39-0.107c1.381-0.077,2.716-0.152,4.05-0.224
				c0.763-0.042,1.526-0.076,2.288-0.124c0.129-0.008,0.339,0.067,0.332-0.191c-0.006-0.208-0.084-0.342-0.323-0.37
				c-0.623-0.073-1.244-0.166-1.893-0.254c0.5-0.26,1.041-0.132,1.539-0.253c0.15-0.037,0.425,0.118,0.428-0.188
				c0.003-0.27-0.117-0.456-0.446-0.499c-1.093-0.143-2.181-0.319-3.271-0.482c0.08-0.233,0.28-0.156,0.436-0.179
				c2.493-0.363,5-0.462,7.515-0.387c0.329,0.01,0.429-0.105,0.484-0.414c0.25-1.419,0.476-2.843,1.183-4.138
				c1.546-2.832,4.329-4.028,7.367-3.856c0.96,0.054,1.256,0.352,1.51,1.293c0.12,0.442,0.235,0.889,0.243,1.349
				c0.007,0.401-0.099,0.689-0.593,0.786c-0.389,0.076-0.77,0.1-1.155,0.105c-1.836,0.024-2.835,0.781-3.292,2.561
				c-0.164,0.64-0.247,1.3-0.388,1.946c-0.067,0.308,0.041,0.376,0.329,0.366c0.543-0.019,1.087-0.013,1.63-0.002
				c0.608,0.011,0.876,0.247,0.92,0.851c0.052,0.708-0.093,1.387-0.432,2.013c-0.237,0.436-0.615,0.668-1.12,0.67
				c-0.577,0.002-1.155,0.013-1.732-0.002c-0.235-0.006-0.326,0.073-0.364,0.303c-0.225,1.334-0.463,2.666-0.697,3.998
				C139.039,91.729,137.404,91.732,135.768,91.735z"/>
			<path class="st11" d="M136.278,69.225c-4.294,0-8.588,0.001-12.882-0.005c-0.168,0-0.415,0.115-0.492-0.122
				c-0.083-0.258,0.192-0.318,0.341-0.439c0.026-0.021,0.055-0.041,0.085-0.055c1.144-0.521,1.782-1.323,1.482-2.652
				c-0.053-0.234,0.088-0.326,0.281-0.401c0.855-0.335,1.708-0.564,2.657-0.558c5.89,0.035,11.779,0.024,17.669,0.009
				c0.784-0.002,1.432,0.372,2.135,0.604c0.127,0.042,0.188,0.137,0.182,0.273c-0.001,0.034,0.006,0.069-0.002,0.102
				c-0.283,1.272,0.273,2.076,1.405,2.592c0.206,0.094,0.571,0.214,0.487,0.506c-0.087,0.303-0.442,0.139-0.67,0.14
				C144.731,69.228,140.504,69.225,136.278,69.225z"/>
			<path class="st12" d="M73.248,77.564c0.679-0.699,1.36-1.241,2.2-1.559c2.132-0.807,3.933,0.196,4.313,2.44
				c0.335,1.982-0.075,3.828-1.246,5.457c-0.97,1.349-2.406,1.875-4.009,2.001c-0.558,0.044-1.121,0.048-1.675-0.058
				c-0.395-0.075-0.592-0.035-0.628,0.468c-0.063,0.877-0.241,1.745-0.376,2.616c-0.062,0.397-0.304,0.588-0.704,0.587
				c-0.424-0.001-0.849,0.007-1.273,0c-0.634-0.011-0.855-0.266-0.759-0.903c0.156-1.039,0.329-2.076,0.494-3.114
				c0.47-2.946,0.946-5.892,1.404-8.84c0.081-0.52,0.343-0.733,0.854-0.723C73.009,75.959,73.307,75.741,73.248,77.564z
				 M74.213,83.602c1.097,0.076,1.896-0.49,2.384-1.557c0.347-0.757,0.497-1.553,0.404-2.377c-0.067-0.59-0.157-1.231-0.809-1.476
				c-0.633-0.238-1.105,0.173-1.534,0.565c-1.004,0.917-1.657,1.984-1.785,3.408C72.747,83.555,72.674,83.572,74.213,83.602z"/>
			<path class="st12" d="M87.435,85.703c-1.253,0-1.254,0.001-1.718-1.162c-0.289-0.725-0.601-1.442-0.849-2.18
				c-0.162-0.483-0.519-0.319-0.83-0.35c-0.355-0.036-0.306,0.249-0.339,0.445c-0.136,0.82-0.256,1.643-0.389,2.463
				c-0.103,0.632-0.278,0.78-0.904,0.783c-0.374,0.002-0.747,0.007-1.121,0c-0.618-0.012-0.861-0.3-0.765-0.911
				c0.403-2.547,0.808-5.094,1.214-7.64c0.219-1.374,0.457-2.745,0.658-4.121c0.077-0.526,0.349-0.737,0.854-0.727
				c0.373,0.008,0.747-0.004,1.121,0.003c0.661,0.012,0.897,0.28,0.795,0.931c-0.279,1.777-0.569,3.551-0.855,5.327
				c-0.046,0.285-0.077,0.573-0.143,0.853c-0.096,0.412,0.085,0.451,0.425,0.372c0.48-0.112,0.882-0.326,1.196-0.716
				c0.621-0.772,1.167-1.59,1.489-2.532c0.152-0.445,0.42-0.623,0.87-0.607c0.39,0.014,0.781-0.001,1.171,0.004
				c0.724,0.01,0.989,0.371,0.732,1.058c-0.521,1.388-1.354,2.582-2.384,3.634c-0.259,0.265-0.291,0.464-0.156,0.791
				c0.42,1.019,0.808,2.051,1.207,3.078c0.338,0.872,0.11,1.204-0.823,1.204C87.74,85.703,87.587,85.703,87.435,85.703z"/>
			<path class="st12" d="M96.883,84.049c-0.649,0.706-1.307,1.202-2.08,1.541c-2.04,0.894-3.95-0.038-4.396-2.214
				c-0.375-1.829-0.093-3.582,0.906-5.186c1.001-1.607,2.531-2.303,4.353-2.434c1.415-0.101,2.81,0.115,4.196,0.381
				c0.417,0.08,0.606,0.358,0.54,0.78c-0.425,2.732-0.854,5.463-1.282,8.194c-0.005,0.033-0.014,0.067-0.024,0.099
				c-0.153,0.484-0.59,0.62-1.603,0.489c-0.455-0.059-0.629-0.344-0.611-0.783C96.892,84.668,96.883,84.418,96.883,84.049z
				 M93.114,81.503c-0.017,0.521,0.046,1.005,0.286,1.451c0.275,0.51,0.728,0.724,1.234,0.474c1.125-0.554,1.916-1.478,2.35-2.623
				c0.265-0.699,0.267-1.496,0.396-2.248c0.039-0.228-0.021-0.337-0.262-0.387c-2.098-0.433-3.282,0.095-3.879,2.248
				C93.141,80.779,93.098,81.15,93.114,81.503z"/>
			<path class="st12" d="M56.03,72.304c1.103,0,2.206-0.003,3.309,0.001c0.734,0.003,0.951,0.254,0.856,0.97
				c-0.196,1.483-0.196,1.483-1.678,1.483c-1.205,0-2.41,0.01-3.615-0.007c-0.34-0.005-0.471,0.099-0.512,0.447
				c-0.097,0.825-0.223,1.647-0.374,2.464c-0.077,0.416,0.048,0.518,0.456,0.507c1.035-0.027,2.07-0.011,3.106-0.008
				c0.709,0.002,0.919,0.244,0.82,0.93c-0.195,1.349-0.195,1.349-1.526,1.349c-0.967,0-1.935,0.016-2.902-0.009
				c-0.337-0.009-0.434,0.122-0.478,0.425c-0.199,1.359-0.418,2.715-0.63,4.072c-0.092,0.585-0.284,0.752-0.877,0.758
				c-0.424,0.004-0.849,0.006-1.273-0.002c-0.619-0.011-0.864-0.3-0.768-0.909c0.409-2.596,0.821-5.191,1.232-7.786
				c0.196-1.239,0.396-2.478,0.588-3.718c0.133-0.858,0.256-0.969,1.109-0.969C53.926,72.304,54.978,72.304,56.03,72.304z"/>
			<path class="st12" d="M113.361,78.125c-0.86,0.014-0.784-0.132-0.909,0.743c-0.163,1.141-0.356,2.278-0.529,3.417
				c-0.127,0.835,0.126,1.137,0.96,1.163c0.611,0.019,0.772,0.197,0.737,0.819c-0.01,0.169-0.041,0.338-0.044,0.507
				c-0.011,0.545-0.307,0.811-0.818,0.942c-0.805,0.206-1.601,0.281-2.405,0.014c-0.789-0.262-1.22-0.818-1.342-1.63
				c-0.15-0.996,0.125-1.955,0.261-2.926c0.127-0.906,0.274-1.81,0.428-2.712c0.042-0.244-0.017-0.316-0.269-0.346
				c-0.617-0.072-0.783-0.32-0.682-0.927c0.033-0.201,0.061-0.402,0.096-0.602c0.075-0.428,0.32-0.696,0.766-0.639
				c0.46,0.059,0.626-0.154,0.713-0.557c0.089-0.413,0.228-0.816,0.347-1.223c0.019-0.065,0.041-0.129,0.068-0.192
				c0.188-0.448,1.119-0.663,1.931-0.429c0.509,0.147,0.564,0.525,0.449,0.972c-0.012,0.049-0.011,0.101-0.017,0.152
				c-0.055,0.402-0.278,0.902-0.118,1.178c0.153,0.263,0.72,0.058,1.103,0.09c0.197,0.017,0.38,0.079,0.484,0.241
				c0.346,0.536,0.016,1.055-0.098,1.562c-0.076,0.337-0.428,0.395-0.754,0.382C113.599,78.12,113.48,78.124,113.361,78.125z"/>
			<path class="st12" d="M60.014,83.562c0.194-1.254,0.414-2.695,0.639-4.136c0.327-2.095,0.66-4.189,0.986-6.284
				c0.107-0.687,0.268-0.833,0.962-0.837c0.373-0.002,0.747-0.013,1.12,0.001c0.554,0.021,0.805,0.322,0.721,0.863
				c-0.471,3.016-0.947,6.032-1.416,9.048c-0.036,0.233-0.053,0.472-0.051,0.708c0.002,0.323,0.154,0.56,0.484,0.628
				c0.531,0.109,0.658,0.451,0.608,0.941c-0.104,1.025-0.246,1.19-1.262,1.377C61.206,86.166,59.998,85.25,60.014,83.562z"/>
			<path class="st12" d="M104.484,77.795c0.605-0.644,1.218-1.227,1.986-1.612c0.211-0.106,0.43-0.201,0.654-0.274
				c0.723-0.235,1.087,0.073,0.983,0.822c-0.016,0.117-0.055,0.233-0.061,0.35c-0.05,0.949-0.373,1.568-1.452,1.784
				c-0.862,0.172-1.521,0.853-2.096,1.543c-0.187,0.225-0.217,0.49-0.259,0.756c-0.202,1.272-0.414,2.542-0.597,3.816
				c-0.074,0.52-0.339,0.741-0.851,0.723c-0.373-0.013-0.746,0.002-1.119-0.002c-0.658-0.008-0.896-0.272-0.796-0.924
				c0.277-1.809,0.568-3.615,0.854-5.423c0.146-0.92,0.301-1.839,0.437-2.761c0.066-0.446,0.308-0.659,0.751-0.656
				c1.172,0.009,1.639-0.213,1.484,1.467C104.393,77.515,104.352,77.637,104.484,77.795z"/>
			<path class="st12" d="M66.546,85.702c-1.399,0.002-1.458-0.048-1.245-1.447c0.386-2.529,0.794-5.054,1.2-7.58
				c0.098-0.607,0.259-0.731,0.878-0.736c0.39-0.003,0.78-0.01,1.17,0.002c0.527,0.016,0.793,0.31,0.714,0.818
				c-0.432,2.779-0.873,5.557-1.314,8.334c-0.061,0.384-0.285,0.605-0.691,0.608C67.021,85.703,66.783,85.701,66.546,85.702z"/>
			<path class="st12" d="M68.47,72.171c0.926,0,1.361,0.278,1.491,0.869c0.165,0.757-0.216,1.602-0.864,1.881
				c-0.184,0.079-0.385,0.129-0.584,0.16c-0.958,0.15-1.585-0.183-1.713-0.896c-0.17-0.945,0.341-1.748,1.248-1.951
				C68.228,72.194,68.414,72.18,68.47,72.171z"/>
			<path class="st13" d="M136.217,76.123c-2.101-0.084-3.945-0.829-5.266-2.603c-0.579-0.778-0.881-1.675-0.832-2.663
				c0.013-0.265,0.074-0.531,0.419-0.526c0.323,0.005,0.405,0.237,0.438,0.518c0.288,2.476,1.977,4.129,4.501,4.36
				c1.609,0.148,3.159-0.038,4.49-1.074c1.03-0.802,1.532-1.872,1.548-3.174c0.003-0.286-0.061-0.62,0.373-0.643
				c0.453-0.025,0.456,0.334,0.479,0.632c0.146,1.91-1.216,3.846-3.254,4.647C138.199,75.955,137.246,76.084,136.217,76.123z"/>
		</g>
	</g>
	<rect x="162.874" y="111.564" class="st8" width="104.51" height="34.837"/>
	<rect x="47.549" y="111.564" class="st8" width="104.51" height="34.837"/>
</g>
<g id="_x36_6Szj3.tif">
	<g>
		<path class="st14" d="M65.026,129.048c-0.469,1.956-1.028,3.885-1.722,5.773c-0.94,2.557-2.35,5.643-4.244,7.703
			c-0.396,0.431-0.82,0.834-1.308,1.164c-0.413,0.28-0.849,0.505-1.343,0.606c-0.054,0.011-0.117,0.008-0.159,0.057
			c-0.154,0-0.309,0-0.463,0c-0.039-0.04-0.094-0.039-0.143-0.05c-0.518-0.113-0.897-0.421-1.19-0.848
			c-0.224-0.325-0.365-0.689-0.477-1.066c-0.513-1.736-0.365-3.614-0.027-5.367c0.169-0.876,0.57-4.084,1.334-4.628
			c0.057-0.041,0.064-0.107,0.085-0.166c0.153-0.432,0.306-0.864,0.461-1.295c0.029-0.08,0.039-0.16,0.031-0.242
			c0.055-0.025,0.043-0.073,0.039-0.116c0.027-0.005,0.035-0.023,0.035-0.048c0.04-0.03,0.081-0.053,0.1-0.107
			c0.079-0.233,0.196-0.451,0.26-0.69c0.054-0.081,0.082-0.172,0.114-0.263c0.039-0.111,0.069-0.23,0.125-0.329
			c0.08-0.142,0.141-0.293,0.207-0.439c0.348-0.766,0.693-1.533,1.062-2.289c0.669-1.368,1.375-2.716,2.12-4.044
			c0.541-0.964,1.09-1.922,1.739-2.818c0.559-0.771,1.153-1.512,1.909-2.104c0.325-0.255,0.667-0.482,1.076-0.581
			c0.309-0.075,0.608-0.08,0.877,0.125c-0.095,0.038-0.191,0.07-0.278,0.127c-0.279,0.181-0.468,0.439-0.599,0.733
			c-0.254,0.571-0.388,1.174-0.414,1.799c-0.045,0.048-0.032,0.108-0.034,0.164c-0.004,0.121,0.008,0.245-0.011,0.364
			c-0.054,0.338-0.014,0.676-0.026,1.014c-0.001,0.033,0.006,0.063,0.03,0.088c-0.007,0.495,0.035,0.988,0.058,1.482
			c0.022,0.474,0.069,0.946,0.108,1.419c0.024,0.287,0.05,0.575,0.083,0.861c0.058,0.496,0.117,0.992,0.185,1.487
			c0.064,0.47,0.139,0.938,0.211,1.407C64.897,128.304,64.986,128.672,65.026,129.048z"/>
		<path class="st15" d="M91.679,144.351c-0.038-0.044-0.094-0.04-0.142-0.049c-0.6-0.12-1.117-0.411-1.598-0.775
			c-0.703-0.532-1.284-1.183-1.815-1.882c-0.922-1.213-1.658-2.538-2.304-3.913c-0.944-2.011-1.675-4.1-2.286-6.234
			c-0.285-0.994-0.542-1.995-0.774-3.003c0.001-0.188,0.064-0.365,0.104-0.545c0.172-0.774,0.33-1.55,0.477-2.329
			c0.094-0.496,0.181-0.993,0.263-1.491c0.062-0.378,0.111-0.758,0.165-1.138c0.049-0.348,0.084-0.698,0.126-1.046
			c0.051-0.42,0.078-0.841,0.096-1.261c0.025-0.607,0.021-1.216-0.061-1.823c-0.049-0.364-0.122-0.719-0.244-1.063
			c-0.093-0.262-0.234-0.495-0.433-0.696c-0.132-0.133-0.307-0.18-0.458-0.272c0.089-0.045,0.188-0.014,0.281-0.035l0.001,0.001
			c0.006,0.025,0.024,0.03,0.047,0.027c0.188,0.041,0.37,0.099,0.545,0.184c0.458,0.221,0.838,0.544,1.199,0.894
			c0.671,0.652,1.232,1.394,1.752,2.167c0.366,0.544,0.696,1.109,1.023,1.677c0.63,1.097,1.231,2.211,1.81,3.335
			c0.415,0.805,0.81,1.62,1.189,2.442c0.363,0.787,0.71,1.581,1.042,2.381c0.125,0.302,0.23,0.612,0.373,0.907
			c0.001,0.012,0.003,0.024,0.005,0.035c0,0.031,0.001,0.062,0.04,0.072l0.002,0.004c-0.01,0.047-0.006,0.09,0.034,0.124
			c0.064,0.22,0.143,0.434,0.236,0.643c0.027,0.182,0.106,0.35,0.152,0.527c0.007,0.026,0.026,0.042,0.052,0.05
			c0.388,1.082,0.716,2.183,0.992,3.299c0.233,0.942,0.414,1.894,0.53,2.857c0.101,0.831,0.135,1.666,0.081,2.501
			c-0.041,0.63-0.143,1.25-0.372,1.843c-0.123,0.32-0.279,0.621-0.5,0.885c-0.263,0.313-0.583,0.538-0.988,0.632
			c-0.06,0.014-0.129,0.016-0.177,0.065C91.987,144.351,91.833,144.351,91.679,144.351z"/>
		<path class="st16" d="M150.108,134.394c-0.418-0.003-0.835-0.004-1.253-0.009c-0.186-0.002-0.146,0.034-0.218-0.145
			c-0.103-0.256-0.202-0.514-0.304-0.77c-0.021-0.052-0.044-0.103-0.065-0.15c-0.069,0.001-0.083,0.051-0.109,0.084
			c-0.568,0.728-1.322,1.077-2.238,1.094c-0.394,0.008-0.782-0.017-1.158-0.153c-0.739-0.268-1.178-0.802-1.361-1.551
			c-0.098-0.403-0.107-0.82-0.029-1.226c0.144-0.751,0.614-1.238,1.31-1.52c0.45-0.182,0.921-0.277,1.402-0.326
			c0.608-0.061,1.219-0.065,1.83-0.079c0.168-0.004,0.169-0.005,0.169-0.17c0.001-0.199-0.002-0.398-0.054-0.593
			c-0.092-0.347-0.313-0.564-0.656-0.664c-0.305-0.089-0.612-0.06-0.918-0.021c-0.551,0.071-1.08,0.224-1.585,0.457
			c-0.122,0.056-0.125,0.055-0.184-0.062c-0.213-0.424-0.425-0.848-0.641-1.279c0.234-0.138,0.478-0.234,0.724-0.323
			c0.819-0.297,1.666-0.427,2.535-0.381c0.515,0.027,1.023,0.104,1.493,0.336c0.748,0.369,1.189,0.958,1.271,1.798
			c-0.021,0.1,0.008,0.195,0.036,0.289C150.108,130.818,150.108,132.606,150.108,134.394z M147.499,130.831c0,0.008,0,0.016,0,0.024
			c-0.109,0-0.218,0.001-0.327,0c-0.351-0.003-0.688,0.064-1.006,0.215c-0.525,0.25-0.745,0.658-0.66,1.234
			c0.055,0.373,0.248,0.585,0.619,0.667c0.273,0.061,0.548,0.056,0.82-0.008c0.652-0.153,1.087-0.641,1.136-1.292
			c0.019-0.249,0.003-0.5,0.007-0.751c0.001-0.083-0.039-0.093-0.108-0.091C147.82,130.834,147.659,130.831,147.499,130.831z"/>
		<path class="st17" d="M150.108,129.03c-0.029-0.094-0.058-0.189-0.036-0.289c0.012-0.006,0.024-0.013,0.036-0.02
			C150.108,128.824,150.108,128.927,150.108,129.03z"/>
		<path class="st16" d="M110.039,126.59c-0.098,0.035-0.095,0.106-0.113,0.162c-0.319,0.969-0.638,1.939-0.957,2.909
			c-0.5,1.519-0.999,3.037-1.499,4.556c-0.056,0.169-0.056,0.17-0.237,0.17c-0.469,0-0.939,0-1.408,0c-0.174,0-0.174,0-0.223-0.158
			c-0.769-2.483-1.538-4.967-2.309-7.45c-0.023-0.073-0.02-0.165-0.093-0.214c-0.061,0.027-0.044,0.07-0.042,0.105
			c0.133,2.126,0.103,4.255,0.104,6.384c0,0.399,0.001,0.797,0,1.196c0,0.135-0.003,0.137-0.139,0.137
			c-0.54,0.001-1.08-0.001-1.621,0.002c-0.097,0.001-0.146-0.025-0.132-0.129c0.005-0.038,0.001-0.077,0.001-0.116
			c0-3.151,0-6.302,0-9.454c0-0.026,0-0.051,0-0.077c-0.001-0.172-0.011-0.168,0.168-0.168c0.836,0.001,1.672,0,2.508,0.001
			c0.199,0,0.172-0.029,0.234,0.173c0.559,1.816,1.117,3.632,1.676,5.449c0.191,0.62,0.381,1.239,0.573,1.859
			c0.011,0.035,0.006,0.079,0.062,0.11c0.037-0.038,0.044-0.095,0.06-0.144c0.787-2.404,1.572-4.809,2.359-7.212
			c0.093-0.283,0.023-0.233,0.326-0.234c0.804-0.003,1.608-0.001,2.412-0.001c0.204,0,0.193-0.021,0.193,0.181
			c0,3.19,0,6.38,0,9.569c0,0.019-0.002,0.039,0,0.058c0.011,0.095-0.019,0.144-0.126,0.135c-0.102-0.008-0.206-0.002-0.309-0.002
			c-0.444,0-0.887,0-1.331,0c-0.216,0-0.2,0.02-0.201-0.193c0-0.592,0-1.183,0-1.775c0-0.92,0.005-1.839-0.001-2.759
			c-0.006-0.907,0.033-1.813,0.067-2.719C110.043,126.829,110.039,126.717,110.039,126.59z"/>
		<path class="st16" d="M113.792,135.943c0.401,0.074,0.778,0.11,1.156,0.035c0.285-0.056,0.526-0.194,0.731-0.403
			c0.331-0.338,0.497-0.758,0.617-1.203c0.021-0.077-0.013-0.139-0.039-0.203c-0.545-1.372-1.09-2.745-1.635-4.117
			c-0.422-1.062-0.843-2.124-1.264-3.187c-0.012-0.029-0.033-0.056-0.022-0.096c0.032-0.038,0.079-0.021,0.12-0.021
			c0.656-0.001,1.312,0.003,1.968-0.004c0.121-0.001,0.163,0.042,0.2,0.15c0.456,1.357,0.918,2.712,1.376,4.068
			c0.148,0.44,0.233,0.894,0.275,1.357c0.042-0.013,0.049-0.046,0.052-0.077c0.05-0.556,0.23-1.078,0.404-1.602
			c0.412-1.243,0.823-2.487,1.234-3.73c0.053-0.161,0.054-0.162,0.223-0.162c0.637,0,1.273,0,1.91,0c0.038,0,0.077,0,0.114,0
			c0.026,0.061-0.008,0.105-0.025,0.149c-1.078,2.866-2.15,5.735-3.242,8.595c-0.335,0.877-0.918,1.557-1.8,1.94
			c-0.362,0.157-0.743,0.242-1.141,0.247c-0.367,0.005-0.732-0.011-1.094-0.083c-0.069-0.014-0.12-0.025-0.12-0.115
			C113.794,136.974,113.792,136.467,113.792,135.943z"/>
		<path class="st18" d="M122.32,130.57c0-1.184,0-2.367,0-3.551c0-0.045,0.003-0.09-0.001-0.135c-0.007-0.075,0.024-0.107,0.099-0.1
			c0.019,0.002,0.039,0,0.058,0c0.431,0,0.862,0.004,1.293-0.003c0.108-0.002,0.16,0.025,0.189,0.135
			c0.064,0.242,0.144,0.48,0.219,0.719c0.015,0.047,0.018,0.105,0.086,0.112c0.054,0.005,0.08-0.032,0.106-0.07
			c0.369-0.545,0.917-0.812,1.532-0.957c0.632-0.149,1.265-0.117,1.885,0.073c0.552,0.169,0.944,0.532,1.212,1.036
			c0.243,0.457,0.367,0.942,0.366,1.461c-0.002,1.614-0.001,3.229-0.001,4.843c0,0.253,0.014,0.211-0.22,0.212
			c-0.572,0.002-1.145,0.001-1.717,0.001c-0.161,0-0.172,0.026-0.172-0.164c0.001-1.454,0-2.907,0.003-4.361
			c0-0.32-0.061-0.624-0.183-0.919c-0.15-0.36-0.424-0.56-0.798-0.62c-0.455-0.073-0.884-0.012-1.254,0.294
			c-0.281,0.233-0.416,0.549-0.498,0.892c-0.086,0.358-0.121,0.722-0.121,1.09c-0.002,1.19-0.002,2.38-0.003,3.57
			c0,0.039,0.001,0.077,0,0.116c-0.003,0.137-0.003,0.139-0.137,0.14c-0.154,0.002-0.309,0-0.463,0c-0.437,0-0.875,0-1.312,0
			c-0.165,0-0.166-0.002-0.166-0.169c-0.001-0.849,0-1.698,0-2.547C122.32,131.303,122.32,130.936,122.32,130.57z"/>
		<path class="st16" d="M135.932,132.617c0.036,0.038,0.028,0.071,0.028,0.102c0.001,0.437-0.003,0.875,0.003,1.312
			c0.001,0.1-0.03,0.144-0.126,0.178c-0.519,0.186-1.054,0.277-1.604,0.288c-0.348,0.007-0.692,0.005-1.031-0.097
			c-0.795-0.238-1.282-0.748-1.426-1.574c-0.054-0.311-0.077-0.624-0.077-0.94c0.002-1.106,0.001-2.212,0.001-3.318
			c0-0.032,0-0.064,0-0.096c0-0.176,0.014-0.172-0.163-0.171c-0.232,0.001-0.463,0-0.695,0c-0.152,0-0.145,0.005-0.144-0.149
			c0.001-0.206,0.005-0.412-0.002-0.617c-0.003-0.089,0.028-0.139,0.103-0.184c0.303-0.181,0.601-0.371,0.906-0.55
			c0.1-0.059,0.161-0.131,0.201-0.241c0.156-0.435,0.325-0.866,0.481-1.3c0.038-0.106,0.085-0.15,0.204-0.147
			c0.353,0.009,0.707,0.006,1.061,0.001c0.102-0.001,0.13,0.033,0.129,0.133c-0.005,0.437-0.002,0.875-0.002,1.312
			c0,0.224-0.013,0.191,0.199,0.191c0.585,0.001,1.17,0,1.756,0.001c0.154,0,0.156,0.002,0.156,0.159
			c0.001,0.418,0.001,0.836,0,1.254c0,0.135-0.003,0.137-0.138,0.137c-0.592,0.001-1.183,0-1.775,0.001
			c-0.217,0.001-0.198-0.032-0.198,0.191c-0.001,1.177,0.002,2.354-0.003,3.531c-0.002,0.443,0.266,0.752,0.746,0.791
			c0.401,0.032,0.794-0.037,1.182-0.136C135.781,132.656,135.86,132.636,135.932,132.617z"/>
		<path class="st16" d="M142.338,128.596c-0.412-0.076-0.803-0.111-1.191-0.026c-0.823,0.182-1.344,0.638-1.519,1.446
			c-0.027,0.126-0.031,0.255-0.031,0.384c0.001,1.254,0.001,2.508,0.002,3.762c0,0.039,0.001,0.077-0.001,0.116
			c-0.002,0.046-0.028,0.069-0.074,0.069c-0.039,0-0.077,0.001-0.116,0.001c-0.566,0-1.132,0-1.698,0
			c-0.195,0-0.188,0.026-0.188-0.185c0-1.19,0-2.379,0-3.569c0-1.202,0-2.405,0-3.607c0-0.039,0.004-0.078-0.001-0.116
			c-0.01-0.087,0.014-0.125,0.114-0.124c0.444,0.005,0.887,0.005,1.331,0c0.09-0.001,0.123,0.033,0.141,0.116
			c0.075,0.338,0.156,0.676,0.235,1.013c0.011,0.047,0.005,0.11,0.07,0.125c0.072,0.016,0.099-0.04,0.129-0.091
			c0.129-0.216,0.284-0.413,0.466-0.588c0.601-0.579,1.326-0.782,2.141-0.701c0.107,0.011,0.248-0.015,0.311,0.068
			c0.061,0.08,0.011,0.211,0.003,0.318C142.424,127.531,142.381,128.055,142.338,128.596z"/>
		<path class="st19" d="M92.055,130.813c-0.143-0.294-0.248-0.605-0.373-0.907c-0.332-0.8-0.679-1.595-1.042-2.381
			c-0.38-0.822-0.774-1.637-1.189-2.442c-0.58-1.125-1.18-2.238-1.81-3.335c-0.326-0.568-0.657-1.134-1.023-1.677
			c-0.52-0.773-1.081-1.515-1.752-2.167c-0.36-0.35-0.741-0.673-1.199-0.894c-0.175-0.085-0.357-0.142-0.545-0.184
			c-0.01-0.018-0.025-0.029-0.046-0.027l-0.001-0.001c-0.008-0.037-0.041-0.047-0.068-0.061c-0.248-0.126-0.508-0.128-0.77-0.063
			c-0.567,0.142-1.013,0.491-1.434,0.872c-0.679,0.617-1.237,1.337-1.758,2.088c-0.443,0.64-0.841,1.307-1.227,1.982
			c-0.674,1.177-1.318,2.37-1.931,3.58c-0.526,1.038-1.027,2.088-1.494,3.153c-0.028,0.063-0.04,0.138-0.109,0.176
			c-0.016,0.001-0.032,0.003-0.048,0.004c0.087-0.316,0.225-0.614,0.345-0.917c0.896-2.263,1.861-4.496,2.972-6.663
			c0.499-0.972,1.032-1.925,1.676-2.811c0.392-0.539,0.837-1.026,1.388-1.408c0.522-0.361,1.106-0.563,1.727-0.665
			c0.152-0.025,0.304-0.05,0.457-0.068c0.118-0.014,0.239-0.04,0.351,0.035c0.025,0.016,0.062,0.018,0.094,0.019
			c0.355,0.016,0.656,0.167,0.935,0.372c0.928,0.683,1.753,1.466,2.406,2.424c0.707,1.037,1.322,2.127,1.894,3.243
			c1.423,2.775,2.648,5.635,3.609,8.604c0.012,0.037,0.021,0.074,0.031,0.111C92.098,130.807,92.076,130.81,92.055,130.813z"/>
		<path class="st20" d="M65.525,116.986c-0.269-0.205-0.569-0.201-0.878-0.125c-0.409,0.1-0.751,0.326-1.076,0.581
			c-0.756,0.593-1.35,1.333-1.909,2.104c-0.649,0.896-1.199,1.855-1.739,2.818c-0.745,1.328-1.451,2.676-2.12,4.044
			c-0.369,0.756-0.714,1.523-1.062,2.289c-0.066,0.146-0.127,0.297-0.207,0.439c-0.056,0.099-0.086,0.218-0.125,0.329
			c-0.032,0.091-0.06,0.182-0.114,0.263c-0.036,0.002-0.073,0.004-0.109,0.006c0.091-0.247,0.181-0.494,0.272-0.741
			c0.077-0.02,0.062-0.078,0.055-0.133c0.066-0.233,0.162-0.454,0.253-0.678c0.076-0.019,0.063-0.077,0.056-0.131
			c0.114-0.35,0.26-0.688,0.404-1.027c0.078-0.017,0.066-0.075,0.059-0.13c0.177-0.48,0.385-0.948,0.596-1.413
			c0.078-0.015,0.067-0.073,0.061-0.128c0.015-0.08,0.054-0.149,0.092-0.219c0.078-0.015,0.068-0.073,0.062-0.128
			c0.015-0.08,0.056-0.149,0.093-0.219c0.078-0.015,0.067-0.072,0.062-0.127c0.029-0.105,0.079-0.202,0.131-0.297
			c0.076-0.014,0.068-0.071,0.063-0.126c0.052-0.159,0.129-0.306,0.206-0.453c0.078-0.014,0.069-0.071,0.063-0.127
			c0.152-0.368,0.335-0.721,0.511-1.078c0.656-1.331,1.349-2.642,2.163-3.885c0.342-0.522,0.713-1.023,1.154-1.467
			c0.432-0.435,0.92-0.78,1.511-0.963c0.043-0.013,0.088-0.018,0.107-0.069c0.015-0.039,0.049-0.029,0.081-0.029
			c0.305,0.002,0.606-0.023,0.901-0.108c0.022-0.006,0.052-0.001,0.075,0.009c0.279,0.121,0.588,0.139,0.868,0.246
			c0.57,0.217,1.1,0.505,1.553,0.925c0.517,0.48,0.951,1.029,1.339,1.614c1.838,2.771,3.235,5.744,4.097,8.962
			c0.086,0.322,0.167,0.646,0.252,0.969c0.011,0.044,0.026,0.086,0.015,0.132c-0.023-0.013-0.047-0.026-0.07-0.04
			c-0.016-0.035-0.035-0.069-0.049-0.104c-0.285-0.737-0.575-1.472-0.88-2.2c-0.443-1.061-0.895-2.118-1.386-3.158
			c-0.574-1.215-1.185-2.41-1.917-3.54c-0.479-0.74-0.995-1.452-1.635-2.064c-0.327-0.312-0.677-0.593-1.108-0.752
			c-0.231-0.085-0.467-0.142-0.714-0.067C65.564,116.988,65.544,116.987,65.525,116.986z"/>
		<path class="st17" d="M55.863,130.687c0.007,0.084-0.004,0.164-0.032,0.244c-0.155,0.431-0.308,0.863-0.461,1.295
			c-0.021,0.059-0.028,0.125-0.085,0.166c-0.031-0.037-0.009-0.074,0.003-0.108c0.174-0.509,0.35-1.017,0.526-1.525
			C55.823,130.731,55.821,130.693,55.863,130.687z"/>
		<path class="st21" d="M73.271,128.874c0.023,0.013,0.047,0.026,0.07,0.04c0.057,0.046,0.043,0.117,0.059,0.177
			c0.07,0.263,0.135,0.527,0.201,0.791c0.016,0.039-0.008,0.096,0.036,0.115c0.021,0.009,0.044-0.036,0.05-0.068
			c0,0,0.007-0.012,0.007-0.012c0.012-0.001,0.024-0.002,0.035-0.002c-0.014,0.063-0.028,0.127-0.042,0.19
			c-0.024,0.027-0.047,0.054-0.071,0.081c-0.013-0.043-0.027-0.085-0.038-0.128C73.476,129.663,73.418,129.257,73.271,128.874z"/>
		<path class="st21" d="M56.186,129.734c0.036-0.002,0.073-0.004,0.109-0.006c-0.064,0.239-0.181,0.457-0.26,0.69
			c-0.018,0.054-0.06,0.078-0.1,0.107c-0.01,0.004-0.02,0.007-0.03,0.009C55.981,130.261,56.08,129.996,56.186,129.734z"/>
		<path class="st17" d="M73.731,129.914c-0.012,0-0.024,0.001-0.035,0.002c0.147-0.434,0.304-0.863,0.488-1.283
			c0.006,0.004,0.012,0.008,0.018,0.013C74.097,129.089,73.904,129.498,73.731,129.914z"/>
		<path class="st17" d="M92.055,130.813c0.022-0.003,0.043-0.006,0.065-0.008c0.119,0.289,0.207,0.588,0.288,0.889
			c-0.012-0.001-0.023-0.002-0.035-0.003c-0.093-0.209-0.173-0.423-0.236-0.643c0.001-0.045,0.012-0.092-0.034-0.124L92.1,130.92
			c0-0.032-0.002-0.062-0.04-0.072C92.058,130.836,92.056,130.824,92.055,130.813z"/>
		<path class="st21" d="M92.373,131.691c0.012,0.001,0.023,0.002,0.035,0.003c0.059,0.191,0.142,0.375,0.169,0.575
			c-0.026-0.008-0.045-0.024-0.052-0.05C92.479,132.041,92.4,131.873,92.373,131.691z"/>
		<path class="st21" d="M56.513,128.86c0.007,0.055,0.022,0.113-0.055,0.133C56.467,128.945,56.474,128.896,56.513,128.86z"/>
		<path class="st22" d="M73.688,129.929c-0.006,0.032-0.029,0.076-0.05,0.068c-0.044-0.019-0.02-0.077-0.036-0.115
			C73.642,129.877,73.657,129.917,73.688,129.929z"/>
		<path class="st21" d="M56.822,128.051c0.007,0.055,0.02,0.112-0.056,0.131C56.775,128.135,56.783,128.086,56.822,128.051z"/>
		<path class="st21" d="M57.286,126.894c0.007,0.055,0.019,0.114-0.059,0.13C57.236,126.976,57.247,126.929,57.286,126.894z"/>
		<path class="st21" d="M57.943,125.353c0.006,0.055,0.017,0.113-0.061,0.128C57.891,125.433,57.904,125.386,57.943,125.353z"/>
		<path class="st21" d="M58.097,125.005c0.006,0.055,0.016,0.113-0.062,0.128C58.044,125.085,58.058,125.039,58.097,125.005z"/>
		<path class="st21" d="M58.252,124.659c0.005,0.055,0.016,0.113-0.062,0.127C58.2,124.738,58.212,124.692,58.252,124.659z"/>
		<path class="st21" d="M58.446,124.236c0.005,0.055,0.014,0.111-0.063,0.126C58.393,124.314,58.406,124.268,58.446,124.236z"/>
		<path class="st21" d="M58.716,123.656c0.005,0.055,0.015,0.113-0.063,0.127C58.661,123.734,58.676,123.689,58.716,123.656z"/>
		<path class="st17" d="M74.234,128.528c0.016-0.001,0.032-0.003,0.048-0.004c-0.027,0.041-0.055,0.082-0.082,0.123
			c-0.006-0.004-0.012-0.008-0.018-0.013C74.194,128.596,74.181,128.546,74.234,128.528z"/>
		<path class="st17" d="M55.902,130.572c0.003,0.045,0.015,0.093-0.04,0.118C55.855,130.643,55.845,130.596,55.902,130.572z"/>
		<path class="st17" d="M55.906,130.534c0.01-0.001,0.021-0.004,0.03-0.009c0,0.025-0.008,0.043-0.035,0.048
			C55.903,130.56,55.904,130.547,55.906,130.534z"/>
		<path class="st22" d="M74.201,128.647c0.027-0.041,0.054-0.082,0.082-0.123c0.07-0.038,0.082-0.113,0.109-0.176
			c0.468-1.065,0.969-2.115,1.494-3.153c0.613-1.21,1.257-2.403,1.931-3.58c0.387-0.675,0.784-1.343,1.227-1.982
			c0.52-0.751,1.079-1.472,1.758-2.088c0.42-0.382,0.866-0.731,1.434-0.872c0.261-0.065,0.522-0.064,0.77,0.063
			c0.028,0.014,0.06,0.024,0.068,0.061c-0.092,0.021-0.191-0.01-0.281,0.035c-0.165-0.012-0.298,0.069-0.428,0.151
			c-0.309,0.195-0.474,0.497-0.6,0.825c-0.233,0.608-0.278,1.248-0.307,1.888c-0.028,0.602,0.014,1.204,0.062,1.806
			c0.035,0.434,0.076,0.868,0.135,1.298c0.095,0.697,0.209,1.391,0.329,2.085c0.163,0.94,0.354,1.874,0.55,2.807
			c0.055,0.263,0.132,0.522,0.162,0.79c-0.448,1.915-0.975,3.807-1.63,5.662c-0.652,1.845-1.414,3.642-2.389,5.343
			c-0.584,1.018-1.235,1.988-2.029,2.855c-0.431,0.471-0.897,0.903-1.438,1.248c-0.064,0.041-0.12,0.098-0.202,0.106
			c0.013-0.129,0.133-0.182,0.199-0.275c0.433-0.609,0.599-1.307,0.69-2.031c0.026-0.203,0.021-0.41,0.048-0.612
			c0.045-0.327,0.04-0.655,0.018-0.979c-0.03-0.446-0.043-0.893-0.106-1.337c-0.034-0.24-0.047-0.484-0.091-0.722
			c-0.094-0.521-0.18-1.044-0.289-1.563c-0.165-0.783-0.358-1.558-0.571-2.328c-0.246-0.889-0.522-1.769-0.824-2.64
			c-0.128-0.369-0.242-0.743-0.393-1.104c0.014-0.063,0.028-0.127,0.042-0.19C73.904,129.498,74.097,129.089,74.201,128.647z"/>
		<path class="st22" d="M73.271,128.874c0.148,0.383,0.205,0.789,0.308,1.183c0.011,0.043,0.025,0.085,0.038,0.128
			c-0.002,0.013-0.002,0.026-0.007,0.038c-0.362,0.891-0.683,1.797-0.983,2.711c-0.234,0.712-0.451,1.43-0.63,2.158
			c-0.228,0.925-0.429,1.855-0.553,2.802c-0.06,0.457-0.116,0.915-0.135,1.373c-0.035,0.832-0.033,1.667,0.147,2.489
			c0.105,0.477,0.244,0.941,0.497,1.366c0.067,0.112,0.195,0.194,0.191,0.346c-0.214-0.095-0.384-0.255-0.56-0.402
			c-0.68-0.568-1.256-1.233-1.779-1.945c-0.975-1.327-1.747-2.769-2.404-4.276c-0.992-2.275-1.699-4.64-2.21-7.066
			c-0.051-0.244-0.079-0.495-0.167-0.731c-0.04-0.377-0.129-0.745-0.187-1.118c-0.073-0.469-0.147-0.937-0.211-1.407
			c-0.068-0.495-0.127-0.991-0.185-1.487c-0.033-0.286-0.059-0.574-0.083-0.861c-0.039-0.473-0.086-0.945-0.108-1.419
			c-0.023-0.494-0.065-0.987-0.058-1.482c0.002-0.067,0.004-0.134,0.006-0.201c0.056,0.06,0.031,0.134,0.035,0.202
			c0.013,0.275,0.012,0.55,0.03,0.825c0.029,0.44,0.047,0.881,0.085,1.322c0.032,0.376,0.047,0.754,0.087,1.128
			c0.014,0.133,0.025,0.267,0.041,0.4c0.035,0.285,0.07,0.57,0.105,0.855c0.042,0.343,0.078,0.686,0.126,1.028
			c0.042,0.303,0.095,0.605,0.145,0.907c0.067,0.405,0.135,0.811,0.207,1.243c0.043-0.061,0.057-0.1,0.067-0.145
			c0.072-0.332,0.15-0.662,0.221-0.994c0.12-0.57,0.244-1.14,0.352-1.712c0.119-0.628,0.225-1.259,0.334-1.89
			c0.08-0.467,0.154-0.934,0.215-1.404c0.047-0.362,0.081-0.725,0.124-1.087c0.059-0.491,0.063-0.984,0.098-1.475
			c0.018-0.248-0.006-0.499-0.022-0.749c-0.02-0.314-0.043-0.626-0.09-0.936c-0.048-0.318-0.138-0.626-0.26-0.923
			c-0.112-0.272-0.296-0.492-0.517-0.682c0.247-0.075,0.483-0.019,0.714,0.067c0.431,0.159,0.781,0.44,1.108,0.752
			c0.64,0.613,1.156,1.324,1.635,2.064c0.732,1.13,1.342,2.325,1.917,3.54c0.491,1.039,0.943,2.097,1.386,3.158
			c0.305,0.729,0.594,1.464,0.88,2.2C73.236,128.806,73.255,128.84,73.271,128.874z"/>
		<path class="st23" d="M72.146,143.468c0.004-0.152-0.124-0.234-0.191-0.346c-0.254-0.425-0.393-0.889-0.497-1.366
			c-0.18-0.822-0.182-1.656-0.147-2.489c0.019-0.458,0.075-0.916,0.135-1.373c0.124-0.947,0.325-1.877,0.553-2.802
			c0.179-0.728,0.396-1.445,0.63-2.158c0.3-0.914,0.62-1.82,0.983-2.711c0.005-0.012,0.005-0.025,0.007-0.038
			c0.024-0.027,0.047-0.054,0.071-0.081c0.151,0.361,0.265,0.735,0.393,1.104c0.302,0.871,0.578,1.751,0.824,2.64
			c0.213,0.77,0.406,1.545,0.571,2.328c0.109,0.519,0.195,1.042,0.289,1.563c0.043,0.238,0.056,0.482,0.091,0.722
			c0.063,0.444,0.076,0.891,0.106,1.337c0.022,0.324,0.027,0.652-0.018,0.979c-0.028,0.201-0.023,0.408-0.048,0.612
			c-0.091,0.724-0.258,1.421-0.69,2.031c-0.065,0.092-0.186,0.145-0.199,0.275c0,0,0.001,0,0.001,0
			c-0.036-0.004-0.064,0.008-0.075,0.045c-0.554,0.383-1.163,0.483-1.812,0.336c-0.341-0.077-0.614-0.28-0.857-0.525
			c-0.008-0.04-0.035-0.053-0.072-0.051l0,0c-0.007-0.022-0.021-0.034-0.044-0.034L72.146,143.468z"/>
		<path class="st24" d="M82.695,128.481c-0.03-0.268-0.107-0.527-0.162-0.79c-0.196-0.933-0.388-1.867-0.55-2.807
			c-0.12-0.693-0.233-1.388-0.329-2.085c-0.059-0.431-0.1-0.864-0.135-1.298c-0.048-0.602-0.089-1.203-0.062-1.806
			c0.029-0.639,0.074-1.28,0.307-1.888c0.126-0.329,0.291-0.631,0.6-0.825c0.13-0.082,0.264-0.163,0.428-0.151
			c0.151,0.093,0.327,0.139,0.458,0.272c0.199,0.201,0.34,0.433,0.433,0.696c0.123,0.345,0.195,0.699,0.244,1.063
			c0.082,0.607,0.086,1.216,0.061,1.823c-0.018,0.42-0.045,0.842-0.096,1.261c-0.042,0.349-0.076,0.698-0.126,1.046
			c-0.054,0.379-0.103,0.76-0.165,1.138c-0.082,0.498-0.169,0.995-0.263,1.491c-0.147,0.779-0.305,1.555-0.477,2.329
			c-0.04,0.18-0.103,0.357-0.104,0.545C82.738,128.49,82.717,128.485,82.695,128.481z"/>
		<path class="st22" d="M72.19,143.501c0.037-0.002,0.064,0.011,0.072,0.051C72.231,143.545,72.202,143.535,72.19,143.501z"/>
		<path class="st22" d="M74.932,143.74c0.012-0.038,0.039-0.049,0.075-0.045C74.994,143.73,74.964,143.738,74.932,143.74z"/>
		<path class="st22" d="M72.146,143.467c0.024,0,0.037,0.012,0.044,0.034C72.166,143.501,72.15,143.492,72.146,143.467z"/>
		<path class="st25" d="M65.583,116.989c0.221,0.191,0.405,0.41,0.517,0.682c0.122,0.297,0.212,0.605,0.26,0.923
			c0.047,0.311,0.07,0.623,0.09,0.936c0.016,0.25,0.039,0.501,0.022,0.749c-0.035,0.491-0.039,0.984-0.098,1.475
			c-0.043,0.362-0.077,0.725-0.124,1.087c-0.061,0.47-0.135,0.937-0.215,1.404c-0.108,0.63-0.214,1.261-0.334,1.89
			c-0.109,0.572-0.232,1.142-0.352,1.712c-0.07,0.332-0.148,0.662-0.221,0.994c-0.01,0.045-0.024,0.084-0.067,0.145
			c-0.072-0.432-0.14-0.838-0.207-1.243c-0.05-0.302-0.103-0.604-0.145-0.907c-0.047-0.342-0.084-0.685-0.126-1.028
			c-0.035-0.285-0.07-0.57-0.105-0.855c-0.016-0.133-0.027-0.267-0.041-0.4c-0.04-0.375-0.055-0.753-0.087-1.128
			c-0.038-0.44-0.057-0.881-0.085-1.322c-0.018-0.276-0.018-0.55-0.03-0.825c-0.003-0.068,0.022-0.143-0.035-0.202
			c0.001-0.229-0.021-0.462,0.009-0.687c0.033-0.248,0.024-0.494,0.026-0.742c0.026-0.626,0.16-1.228,0.414-1.799
			c0.131-0.294,0.32-0.553,0.599-0.733c0.087-0.057,0.184-0.089,0.278-0.127C65.544,116.987,65.564,116.988,65.583,116.989z"/>
		<path class="st17" d="M64.234,119.645c-0.001,0.247,0.007,0.493-0.026,0.742c-0.03,0.226-0.008,0.458-0.009,0.687
			c-0.002,0.067-0.004,0.134-0.006,0.201c-0.023-0.025-0.031-0.056-0.03-0.088c0.011-0.338-0.028-0.676,0.026-1.014
			c0.019-0.119,0.007-0.243,0.011-0.364C64.202,119.753,64.189,119.693,64.234,119.645z"/>
		<path class="st26" d="M53.73,140.953c-0.004-0.008-0.008-0.015-0.011-0.024c-0.001-0.003,0.006-0.007,0.009-0.011
			C53.735,140.93,53.736,140.941,53.73,140.953z"/>
		<path class="st14" d="M92.102,130.924c0.046,0.032,0.035,0.079,0.034,0.124C92.096,131.014,92.093,130.971,92.102,130.924z"/>
		<path class="st14" d="M92.06,130.848c0.038,0.01,0.041,0.04,0.04,0.072C92.061,130.91,92.06,130.879,92.06,130.848z"/>
		<path class="st24" d="M83.075,116.798c0.022-0.002,0.036,0.009,0.046,0.027C83.099,116.828,83.081,116.822,83.075,116.798z"/>
	</g>
</g>
<path class="st27" d="M205.366,126.422v-0.643c0-0.241-0.08-0.482-0.161-0.643c-0.482-1.045-2.09-0.965-2.653-0.161
	c-0.161,0.241-0.241,0.402-0.241,0.724c-1.126-1.608-3.457-1.849-5.146-0.965c-0.643,0.322-1.206,0.724-1.688,1.286
	c-0.482,0.563-0.884,1.206-1.126,2.01c-0.241,0.724-0.402,1.608-0.402,2.492c0,0.884,0.161,1.769,0.402,2.493
	c0.241,0.724,0.643,1.367,1.126,1.93c1.688,1.93,4.905,2.412,6.754,0.402l0.161-0.161c0.08,0.322,0.161,0.563,0.322,0.724
	c0.161,0.241,0.322,0.322,0.482,0.482c0.482,0.241,1.206,0.241,1.688-0.08c0.241-0.161,0.402-0.322,0.482-0.563
	c0.08-0.241,0.161-0.482,0.161-0.724v-8.604H205.366z M197.084,130.443v-0.322c0.08-0.724,0.241-1.447,0.724-2.01
	c0.482-0.563,1.126-0.965,1.849-0.965s1.447,0.402,1.849,0.965c0.402,0.563,0.643,1.286,0.643,2.01c0,0.884-0.161,1.849-0.643,2.573
	c-0.482,0.643-1.126,1.045-1.93,0.965c-0.804-0.08-1.528-0.563-1.93-1.206C197.245,131.89,197.084,131.166,197.084,130.443
	L197.084,130.443z M207.215,139.448c0.08,0.724,0.241,1.447,1.126,1.688c1.126,0.322,2.09-0.643,2.09-1.688v-3.94
	c0.322,0.241,0.563,0.482,0.884,0.643c0.322,0.161,0.643,0.322,1.045,0.402c0.322,0.08,0.724,0.161,1.045,0.161
	c0.643,0,1.286-0.08,1.769-0.322c0.563-0.241,1.045-0.563,1.447-0.884c0.402-0.402,0.804-0.884,1.126-1.367
	c0.322-0.482,0.563-1.045,0.724-1.689c0.161-0.563,0.241-1.206,0.241-1.769c0-0.643-0.08-1.286-0.241-1.849
	c-0.161-0.643-0.322-1.206-0.643-1.769c-0.241-0.563-0.643-1.045-1.045-1.447c-0.402-0.402-0.884-0.724-1.447-0.965
	c-0.563-0.322-1.126-0.482-1.849-0.482c-0.402,0-0.804,0.08-1.206,0.161c-0.402,0.08-0.724,0.241-1.045,0.482
	c-0.322,0.241-0.563,0.482-0.804,0.804c-0.241-0.804-0.965-1.447-1.93-1.286c-0.884,0.161-1.367,0.965-1.367,1.769v12.543
	C207.215,138.965,207.215,139.207,207.215,139.448L207.215,139.448z M210.431,130.362c0-0.724,0.161-1.447,0.563-2.01
	c0.402-0.563,0.965-1.045,1.688-1.126c0.884-0.08,1.769,0.402,2.251,1.126c0.482,0.724,0.643,1.608,0.563,2.493
	c-0.08,0.724-0.241,1.367-0.724,1.93c-0.402,0.563-1.126,0.965-1.769,0.965c-0.804,0-1.447-0.482-1.93-1.126
	C210.592,131.89,210.431,131.086,210.431,130.362"/>
<path class="st28" d="M242.352,131.488c0.482,0,0.884-0.08,1.045-0.322c0.241-0.241,0.322-0.563,0.322-1.045
	c-0.08-2.653-2.01-5.146-4.583-5.709c-0.402-0.08-0.804-0.161-1.206-0.161c-2.653,0-4.824,2.01-5.548,4.422
	c-0.402,1.367-0.322,2.894,0.161,4.262c0.563,1.447,1.689,2.653,3.136,3.297c1.206,0.482,2.653,0.563,3.94,0.322
	c1.206-0.241,2.653-0.724,3.457-1.769c0.241-0.241,0.322-0.563,0.322-0.804c0-0.643-0.643-1.367-1.286-1.367
	c-0.161,0-0.322,0.08-0.563,0.161c-0.643,0.322-1.206,0.724-1.93,0.965c-0.482,0.161-1.045,0.241-1.608,0.161
	c-1.045-0.08-2.01-0.563-2.493-1.608c0-0.08-0.241-0.724-0.161-0.724h6.995L242.352,131.488L242.352,131.488z M235.438,129.317
	c0.08-0.482,0.161-0.884,0.402-1.206c0.241-0.402,0.482-0.643,0.884-0.884c0.402-0.241,0.804-0.322,1.286-0.322
	c0.482,0,0.965,0.08,1.286,0.322s0.643,0.482,0.884,0.884c0.241,0.402,0.322,0.804,0.402,1.286h-5.146L235.438,129.317
	L235.438,129.317z M257.71,134.704c0,0.563,0.241,1.206,0.804,1.528c0.482,0.322,1.206,0.322,1.688,0
	c0.563-0.322,0.804-0.965,0.804-1.528v-13.749c0-0.643-0.241-1.206-0.804-1.528c-0.482-0.322-1.206-0.322-1.688,0
	c-0.563,0.322-0.804,0.965-0.804,1.528V134.704z"/>
<path class="st27" d="M185.103,129.558c0-0.322,0-0.643,0.08-0.965c0.161-0.884,0.884-1.608,1.769-1.688h0.241
	c0,0,2.01-0.241,2.09,2.251v5.628c0,0,0,1.769,1.608,1.769c0,0,1.608,0,1.608-1.769v-6.513c0,0-0.08-2.975-2.814-3.859
	c-2.412-0.643-4.02,0.161-4.663,1.126c-0.08-0.643-0.563-1.206-1.447-1.206s-1.528,0.643-1.608,1.608v8.925
	c0,0.965,0.724,1.688,1.608,1.688s1.608-0.724,1.608-1.688 M180.44,126.503v-0.322c-0.161-0.884-1.126-1.367-1.849-1.608
	c-0.724-0.241-1.447-0.402-2.171-0.402c-1.126,0-2.251,0.322-3.136,1.045c-0.804,0.643-1.206,1.689-1.206,2.734
	c0,0.563,0.08,0.965,0.322,1.367c0.402,0.804,1.126,1.286,1.93,1.689c0.724,0.322,1.528,0.643,2.251,0.965
	c0.482,0.241,1.206,0.563,1.126,1.206c-0.161,0.563-0.804,0.643-1.286,0.643c-0.563,0-1.206-0.241-1.688-0.482
	c-0.482-0.322-1.045-0.563-1.608-0.563c-0.724,0-1.367,0.724-1.367,1.447c0,0.322,0.08,0.563,0.322,0.804
	c0.884,1.206,2.814,1.688,4.181,1.688c0.724,0,1.286-0.08,1.849-0.322c1.608-0.563,2.814-2.01,2.653-3.779
	c-0.08-0.643-0.322-1.126-0.724-1.608c-0.402-0.402-0.884-0.804-1.447-1.045c-0.563-0.322-1.126-0.482-1.688-0.724
	c-0.482-0.161-0.965-0.322-1.447-0.724c-0.402-0.322-0.402-0.804,0-1.206c0.241-0.161,0.563-0.241,0.804-0.241
	c0.563,0,1.126,0.241,1.608,0.482c0.643,0.322,1.447,0.724,2.09,0.161C180.279,127.387,180.44,126.985,180.44,126.503
	L180.44,126.503z"/>
<path class="st28" d="M255.861,125.699c0-0.241-0.08-0.482-0.161-0.643c-0.402-1.045-2.09-0.965-2.653-0.08
	c-0.161,0.241-0.241,0.402-0.241,0.724c-1.126-1.608-3.457-1.849-5.146-0.965c-0.643,0.322-1.206,0.724-1.688,1.286
	c-0.482,0.563-0.884,1.206-1.126,2.01c-0.241,0.724-0.402,1.608-0.402,2.492c0,0.884,0.161,1.769,0.402,2.493
	c0.241,0.724,0.643,1.367,1.126,1.93c1.688,1.93,4.905,2.412,6.754,0.402l0.161-0.161c0.08,0.322,0.161,0.563,0.322,0.724
	c0.161,0.241,0.322,0.322,0.482,0.482c0.482,0.241,1.206,0.241,1.688-0.08c0.241-0.161,0.402-0.322,0.482-0.563
	c0.08-0.241,0.161-0.482,0.161-0.724v-8.684C255.941,126.181,255.941,125.94,255.861,125.699L255.861,125.699z M252.001,132.694
	c-0.482,0.643-1.126,1.045-1.93,0.965c-0.804-0.08-1.528-0.563-1.93-1.206c-0.402-0.563-0.563-1.286-0.563-2.01v-0.322
	c0.08-0.724,0.241-1.447,0.724-2.01c0.402-0.563,1.126-0.965,1.849-0.965s1.447,0.402,1.849,0.965
	c0.402,0.563,0.643,1.286,0.643,2.01C252.725,131.005,252.564,131.97,252.001,132.694L252.001,132.694z M231.417,120.955
	c0-0.322-0.08-0.643-0.241-0.965c-0.161-0.241-0.322-0.482-0.563-0.643c-0.241-0.161-0.482-0.241-0.804-0.241
	c-0.322,0-0.563,0.08-0.804,0.241c-0.241,0.161-0.402,0.322-0.563,0.643c-0.161,0.241-0.241,0.563-0.241,0.965v4.342
	c-0.322-0.241-0.563-0.482-0.884-0.643c-0.322-0.161-0.643-0.322-1.045-0.402c-0.322-0.08-0.724-0.161-1.045-0.161
	c-0.643,0-1.286,0.08-1.769,0.322c-0.563,0.241-1.045,0.563-1.447,0.884c-0.402,0.402-0.804,0.884-1.126,1.367
	c-0.322,0.482-0.563,1.045-0.724,1.688c-0.161,0.563-0.241,1.206-0.241,1.769c0,0.643,0.08,1.286,0.241,1.849
	c0.161,0.643,0.322,1.206,0.643,1.769c0.241,0.563,0.643,1.045,1.045,1.447c0.402,0.402,0.884,0.724,1.447,0.965
	c0.563,0.241,1.206,0.402,1.849,0.402c0.402,0,0.804-0.08,1.206-0.161c0.402-0.08,0.724-0.241,1.045-0.482
	c0.322-0.241,0.563-0.482,0.804-0.804c0.08,0.402,0.241,0.724,0.563,0.965c0.241,0.241,0.643,0.322,1.045,0.322
	c0.322,0,0.563-0.08,0.804-0.241c0.241-0.161,0.402-0.322,0.563-0.643c0.161-0.241,0.241-0.563,0.241-0.965L231.417,120.955
	L231.417,120.955z M228.201,130.523c0,0.965-0.322,2.09-1.126,2.734c-0.482,0.402-1.126,0.563-1.769,0.482
	c-0.724-0.161-1.286-0.643-1.688-1.286c-0.322-0.643-0.482-1.367-0.482-2.09c0-0.724,0.161-1.447,0.563-2.09
	c0.402-0.643,1.045-1.126,1.769-1.126c0.804-0.08,1.528,0.322,2.01,0.965C228.04,128.754,228.201,129.719,228.201,130.523"/>
</svg>
