<svg id="a7bcdd81-c610-4a3d-a94a-4269b4c5c74c" data-name="Layer 1" xmlns="http://www.w3.org/2000/svg" viewBox="0 0 75 75"><title>smw</title><g id="f9540a02-3123-423a-b11b-adf31af9cbd8" data-name="xMTur1.tif"><path d="M74.5,53.51a2.07,2.07,0,0,1-2.36,1.41c-.61-.05-1.23,0-1.84,0a9.54,9.54,0,0,0-19.07,0H35.87a9.77,9.77,0,0,0-3-6.72H51.62v-.89q0-10.81,0-21.62c0-1.88.83-2.72,2.69-2.72h7.16A3,3,0,0,1,64,24.09q3.5,4.39,7,8.77a5.23,5.23,0,0,1,1.19,3.43V48.1a2,2,0,0,1,2.33,1.4ZM61.12,34.36c1.4,0,2.81,0,4.21,0,.21,0,.53-.09.6-.23a.8.8,0,0,0-.2-.61c-1.46-1.86-2.91-3.71-4.42-5.52a1.81,1.81,0,0,0-1.15-.55c-1.09-.07-2.19,0-3.29,0-.56,0-.75.17-.74.74,0,1.81,0,3.62,0,5.43,0,.58.18.81.78.79C58.31,34.34,59.71,34.36,61.12,34.36Z" fill="#fff"/><path d="M1.33,29.47c.61-.55,1.24-1.08,1.84-1.65.76-.72,1.47-1.5,2.24-2.2a1.59,1.59,0,0,1,1-.4c2,0,4.1,0,6.24,0V22.9h6.85V20.55h-18l-.09-.18a36,36,0,0,0,2.77-2.75A4.11,4.11,0,0,1,8.06,16a40.07,40.07,0,0,0,4.65,0,1.23,1.23,0,0,0,.86-.42,4.71,4.71,0,0,1,3.79-1.85H44.63a4.53,4.53,0,0,1,4.62,4.49c0,9.05,0,18.09,0,27.14,0,.09,0,.18,0,.37H14.81c-1.52,0-2.13-.6-2.14-2.11V41.25h6.84V38.9H1.29l.81-.84C3.2,37,4.28,35.85,5.4,34.79a1.65,1.65,0,0,1,1-.41c1.81,0,3.62,0,5.44,0h.83V32.1h9.12V29.72H1.5Z" fill="#fff"/><path d="M26.35,61.78a6.84,6.84,0,1,1,6.87-6.87A6.88,6.88,0,0,1,26.35,61.78ZM23.93,55A2.48,2.48,0,0,0,26.4,57.4a2.46,2.46,0,1,0,0-4.91A2.46,2.46,0,0,0,23.93,55Z" fill="#fff"/><path d="M67.59,55a6.84,6.84,0,1,1-6.8-6.87A6.88,6.88,0,0,1,67.59,55Zm-9.29-.06a2.46,2.46,0,0,0,2.43,2.48,2.46,2.46,0,1,0,0-4.91A2.45,2.45,0,0,0,58.3,54.92Z" fill="#fff"/><path d="M16.9,54.9c-.92,0-1.76,0-2.59,0a1.65,1.65,0,0,1-1.62-1.67c0-1.15,0-2.3,0-3.44a1.64,1.64,0,0,1,1.63-1.67c1.8,0,3.61,0,5.59,0A9.8,9.8,0,0,0,16.9,54.9Z" fill="#fff"/></g></svg>