<svg id="4eeac1d7-9864-4422-bb30-ff8de72a8560" data-name="Layer 1" xmlns="http://www.w3.org/2000/svg" viewBox="0 0 75 75"><title>smw</title><path d="M34.81,12.72a8.53,8.53,0,0,0,1.8,1.8,4,4,0,0,0,1.21,1.2,8.82,8.82,0,0,0,1.8,1.81,3.93,3.93,0,0,0,1.2,1.2,9.13,9.13,0,0,0,1.81,1.81,3.82,3.82,0,0,0,1.2,1.2,8.82,8.82,0,0,0,1.81,1.8,42.9,42.9,0,0,0,4.21,4.21,8.87,8.87,0,0,0,1.81,1.81,3.82,3.82,0,0,0,1.2,1.2,8.87,8.87,0,0,0,1.81,1.81,4,4,0,0,0,1.2,1.2,9.13,9.13,0,0,0,1.81,1.81,3.89,3.89,0,0,0,1.2,1.19,8.87,8.87,0,0,0,1.81,1.81,3.82,3.82,0,0,0,1.2,1.2,8.87,8.87,0,0,0,1.81,1.81,3.82,3.82,0,0,0,1.2,1.2,8.87,8.87,0,0,0,1.81,1.81,4,4,0,0,0,1.19,1.2,5.13,5.13,0,0,1,1.37,2.47l-.07,1.46a4,4,0,0,1-2.5,2.48H64.89a6,6,0,0,1-2.1-1.3,4,4,0,0,0-1.2-1.21c-.28-.59-.71-.42-1.13-.23l-5.79,2.68c-1,.41-2,.83-3,1.23-.57.23-.83.5-.34,1.07a11.26,11.26,0,0,1,.65,1l1,3,.24,1.21a20.12,20.12,0,0,1-.64,5.12l-1.54,3-2.64,2.72-3.29,1.71a20.65,20.65,0,0,1-4.81.66,2.94,2.94,0,0,0-1.52-.23l-2.89-1-1.33-.79-2.36-2-.53-.54a15.25,15.25,0,0,0-2.48-2.47l-.53-.54a1.49,1.49,0,0,0-2.4-.63c-1.29.74-2.68,1.28-4,1.91a17.5,17.5,0,0,1-2.18.84c-1.59.41-2.18,1.21-1.28,2.75a3.61,3.61,0,0,1-2.48,3.65c-1.71.57-3-.15-4.1-1.34a7.45,7.45,0,0,0-.67-.57l-1-1-2-2-1-1a11.7,11.7,0,0,0-2.05-2l-1-1c-.57-.61-1.14-1.23-1.73-1.83-1.91-1.93-2.05-3.2-.59-5.53l.21-.18a3.67,3.67,0,0,1,3.81-.51c.6.28.79,0,1-.48,1-2.34,2-4.67,3-7a9.11,9.11,0,0,0,1.18-2.69A86.89,86.89,0,0,0,15,38.59a9.53,9.53,0,0,0,1.17-2.7,85.92,85.92,0,0,0,3.64-8.14A9.38,9.38,0,0,0,21,25.06a85.92,85.92,0,0,0,3.64-8.14,8.63,8.63,0,0,0,1.16-2.7c-.31-1.14-1.37-1.64-2.11-2.41l-.59-.91c-.91-3.24,1.52-5.7,4.78-4.79l.91.6,1.8,1.79A4.1,4.1,0,0,0,31.8,9.71a8.53,8.53,0,0,0,1.8,1.8A4.1,4.1,0,0,0,34.81,12.72ZM46,59.94c-.27-1.32-.42-2.71-2.15-3-1.92.82-3.87,1.57-5.76,2.46-1.18.56-3.28.79-3.31,1.8s1.68,2.05,2.75,2.94a3.81,3.81,0,0,0,3,1.47C44,66,46.67,63.24,46,59.94Z" fill="#fff"/><path d="M50.36,14.18a4.8,4.8,0,0,1-2.31,2.49l-1.81.08a4.56,4.56,0,0,1-2.11-1.33l-.58-1.21a5.34,5.34,0,0,1,.4-2.46c.52-1.17,1-2.37,1.48-3.56A9.66,9.66,0,0,0,46.56,5.5c.44-.94.93-1.86,1.32-2.82A3.52,3.52,0,0,1,51.22.13a3.32,3.32,0,0,1,3.24,2.44L54.63,4Q53,7.78,51.43,11.58C51.08,12.45,50.72,13.32,50.36,14.18Z" fill="#fff"/><path d="M52.67,17.58l7.46-7.42a6,6,0,0,1,2.35-1,5.13,5.13,0,0,1,2.68,1.18l.6.9a4.19,4.19,0,0,1-1.48,4.53c-2,1.86-4,3.81-5.83,5.81-1.33,1.42-2.79,2-4.68,1.33C51.74,21.13,51.5,20,52.67,17.58Z" fill="#fff"/><path d="M73.91,21.45a4,4,0,0,1,.92,3.9c-.74,1.51-2.3,1.87-3.61,2.57-2.64,1.08-5.3,2.14-7.83,3.45l-1.81.28A4.89,4.89,0,0,1,58.94,30l-.32-.71c-.15-2.58.39-3.45,2.71-4.47,1.3-.58,2.59-1.18,3.89-1.77L67.84,22c1.68-.57,3.23-1.76,5.17-1.09Z" fill="#fff"/></svg>