<svg id="5b952888-e668-4557-8f19-d43046cb531e" data-name="Layer 1" xmlns="http://www.w3.org/2000/svg" viewBox="0 0 75 75"><title>smw</title><path d="M37.49,71.49c-7.33,0-14.66,0-22,0A8.43,8.43,0,0,1,7,62.89C7,56.6,7,50.31,7,44c0-1.18.27-1.66,1.53-1.52a11.57,11.57,0,0,0,3.75-.19C14,41.93,14,42,14,43.72v16.4c0,.82,0,1.64,0,2.47,0,1.5.53,2,2,2,2.3,0,4.6,0,6.9,0H58.46c2.28,0,2.66-.38,2.66-2.64,0-6.16,0-12.32,0-18.47,0-1.14.35-1.5,1.43-1.27a14.72,14.72,0,0,0,4.39.26c.79-.08,1.12.15,1.11,1,0,1.07.09,2.15.09,3.23,0,5.29,0,10.59,0,15.88A8.64,8.64,0,0,1,64.36,70a8,8,0,0,1-4.62,1.46q-11.13,0-22.25,0Z" fill="#fff"/><path d="M75,30a19.63,19.63,0,0,0-1.26-5.26c-1.62-5.37-3.4-10.69-5.06-16C67.63,5.32,66,3.45,61.82,3.5c-8.07.09-16.13,0-24.2,0-8.42,0-16.83,0-25.24,0-2,0-4.93,1.64-5.54,3.75-1,3.22-2.23,6.35-3.16,9.57C2.79,19.87,1.86,22.9.82,25.89c-1.14,3.25-1.25,6.33.71,9.31a9.65,9.65,0,0,0,16.52-.69c.23-.38.2-1,.83-1s.54.69.88,1c.12.11.15.3.25.45,2.62,3.9,6.12,5.16,10.17,4.43a9.22,9.22,0,0,0,6.64-5.18c.54-1.06.9-.85,1.37,0,.15.26.3.52.46.78a8.79,8.79,0,0,0,6.13,4.43c4.75.81,8.54-1,10.82-5.48.15-.28,0-.83.49-.79s.51.54.67.88a9.57,9.57,0,0,0,11.8,5A10,10,0,0,0,75,30Z" fill="#fff"/></svg>