<svg id="cf42d3e8-6626-41bf-a6ad-8c2760d41c78" data-name="Layer 1" xmlns="http://www.w3.org/2000/svg" viewBox="0 0 75 75"><title>smw</title><g id="260100f4-1f73-46ae-9a49-8207aa6be687" data-name="0rr2NE.tif"><path d="M27.51,70H8.77l-2-.22L6,69.53l-1.55-.67a.82.82,0,0,0-.47-.3l-1.24-1-.27-.28-1-1.23a.76.76,0,0,0-.29-.47L.47,64l-.25-.79-.21-2V13.61A14.93,14.93,0,0,1,.51,10.8l.63-1.4A11,11,0,0,1,4.41,6.14l1.4-.64A14.81,14.81,0,0,1,8.61,5h57l2.19.14.78.18,1.38.5.64.32,1.28.91a.71.71,0,0,0,.4.34l1.08,1.26.31.46.7,1.38a1.87,1.87,0,0,0,.3.78L75,13.14l0,.79V60.77l-.24,2.5-.39,1.24a9.4,9.4,0,0,1-4.86,4.87l-1.25.38-2.5.24H27.51ZM67.45,12.52v-.78c0-1-.17-1.33-1-1.66a1.8,1.8,0,0,0-.8,0c-.59,0-1.19,0-1.78,0a1.34,1.34,0,0,0-1.33,1.33c0,.6,0,1.19,0,1.78a1.85,1.85,0,0,0,0,.81c.33.87.66,1.08,1.66,1H65c.26,0,.51,0,.77,0,1.26,0,1.72-.47,1.73-1.73C67.48,13,67.46,12.78,67.45,12.52ZM56.23,10.05c-.77,0-1.55,0-2.32,0a1.33,1.33,0,0,0-1.41,1.41c0,.78,0,1.55,0,2.33a.72.72,0,0,0,.25.63c.67.78,3.6.92,4.31.21l.05,0c.62-.7.49-3.59-.19-4.23l-.07,0A.74.74,0,0,0,56.23,10.05ZM8.77,20c-1.09,0-2.18,0-3.27,0-.37,0-.49.11-.48.48,0,1.09,0,2.18,0,3.27V61.23a1.09,1.09,0,0,0,.12.79,2.48,2.48,0,0,0,.77,1.57,1,1,0,0,0,.48.48A2.47,2.47,0,0,0,8,64.83a1,1,0,0,0,.78.12H65l1.16,0a3.82,3.82,0,0,0,3.65-2.62A6.58,6.58,0,0,0,70,60V21.73c0-.23,0-.47,0-.7C70,20,70,20,68.88,20H8.77Zm35.76-10c-1.63-.1-2.1.38-2,2a4.92,4.92,0,0,0,.14,2.19.88.88,0,0,0,.61.6,5,5,0,0,0,2.18.15c1.62.09,2.1-.38,2-2a5.07,5.07,0,0,0-.14-2.19.86.86,0,0,0-.61-.6A4.88,4.88,0,0,0,44.53,10.05Z" fill="#fff"/><path d="M40,52.1,40,51.71V39.22c.06-1.77,0-1.69,1.74-1.75h3.13l.76.07a4.29,4.29,0,0,1,1.25.75l.26.32a4.25,4.25,0,0,1,.41,2v3.91c-.15,2.2-1,3-3.21,3-.42,0-.84,0-1.25,0s-.59.09-.57.55c0,1.27,0,2.55,0,3.82a1,1,0,0,1-.64.65C41.25,52.4,40.54,52.72,40,52.1Zm2.49-9.61v.79c0,.23,0,.46,0,.7,0,1.05,0,1.05,1.09,1,1.3.08,1.45-.07,1.37-1.37V41.25c0-.27.1-.55-.09-.8,0-.09-.07-.22-.14-.26a2.76,2.76,0,0,0-2.05-.12c-.44.1-.14.77-.18,1.18A8.55,8.55,0,0,0,42.52,42.49Z" fill="#fff"/><path d="M34.67,35.08l.25.26A6.39,6.39,0,0,1,35,37c0,.36.08.55.48.44h.78c.52,0,1.08,0,1.27.64v.79c-.1,1-.22,1.09-1.28,1.09C35,40,35,40,35,41.26c0,.83,0,1.65,0,2.48a1.11,1.11,0,0,0,.08.8c.11.41.43.44.77.45a5,5,0,0,1,1.28.08l.26.26c.32,2,.16,2.14-1.8,2.16l-.46,0-.77-.07a4.64,4.64,0,0,1-1.25-.74l-.26-.33a4.21,4.21,0,0,1-.4-2V40.46c.12-.39-.07-.47-.43-.47a6.45,6.45,0,0,1-1.7-.07l-.26-.26c0-.13-.06-.26-.07-.38-.1-1.66,0-1.81,1.66-1.76.69,0,.95-.17.84-.86a4.26,4.26,0,0,1,0-.62c0-.84.21-1,1.08-1C33.94,35,34.3,35.06,34.67,35.08Z" fill="#fff"/><path d="M25,35.39l.06.39c0,.24,0,.47,0,.7,0,1.06,0,1.06,1.09,1h.78c.67.19.63.75.65,1.27l0,.78L27,40c-2.12,0-2.12,0-2,2v2.34a.6.6,0,0,0,.59.59c.61.14,1.34-.21,1.84.42l.06.4c-.07,1.76,0,1.68-1.75,1.74H25a3.64,3.64,0,0,1-1.53-.5L23,46.52a3.55,3.55,0,0,1-.5-1.52V41.09c.07-1.1.07-1.1-1-1.09l-.69,0L20.4,40c-.62-.51-.3-1.22-.4-1.83a1,1,0,0,1,.64-.65c1.92.07,1.92.07,1.85-1.85a1,1,0,0,1,.65-.65C23.76,35.09,24.47,34.77,25,35.39Z" fill="#fff"/><path d="M64.94,32.9l.06.39a10.52,10.52,0,0,1-.46,2.84c-.21,1.22-.39,2.44-.58,3.65-.43,2.78-.87,5.56-1.28,8.34a1.55,1.55,0,0,0,0,.23c-.3,1.87-.26,1.58-1.87,1.67L60.37,50c-1-.84.18-4.55.35-5.6.62-3.74,1.33-7.47,1.75-11.23a1,1,0,0,1,.64-.64C63.72,32.6,64.44,32.26,64.94,32.9Z" fill="#fff"/><path d="M59.83,34.53a11.54,11.54,0,0,1-.45,2.71l-.58,3.63c-.45,2.83-1,5.65-1.3,8.49a1.11,1.11,0,0,1-.64.65c-.62-.11-1.34.22-1.84-.42L55,49.21a12.73,12.73,0,0,1,.52-3.2l.63-4c.38-2.43.75-4.86,1.13-7.28.08-.5.07-1.62.47-2s1-.21,1.49-.24l.4.07C60.33,33.13,59.74,33.87,59.83,34.53Z" fill="#fff"/><path d="M50.77,47.52l-.4-.06c-.61-.51-.29-1.22-.4-1.84a1,1,0,0,1,.65-.64c.62.1,1.33-.21,1.84.4l.06.4C52.45,47.54,52.54,47.46,50.77,47.52Z" fill="#fff"/><path d="M10,45V35.63a1,1,0,0,1,.65-.65c.62.11,1.33-.21,1.84.41l.06.39v3.13c-.07,1.09-.07,1.09,1,1.09l.7,0H15a3.64,3.64,0,0,1,1.53.5L17,41a3.8,3.8,0,0,1,.51,1.53V46.4c0,.78-.34,1.15-1.12,1.12h-.78c-.66-.19-.62-.75-.65-1.27V43.12a.61.61,0,0,0-.59-.59c-1.92-.14-1.92-.14-1.86,1.76,0,0,0,.05,0,.08v.78c0,.44,0,.88,0,1.32,0,.72-.28,1.06-1,1a4.06,4.06,0,0,1-1.15-.08l-.26-.25A17.44,17.44,0,0,1,10,45Z" fill="#fff"/><path d="M51.08,37.47h.79c.66.19.62.75.64,1.27l0,.78L52,40l-.78,0c-.52,0-1.07,0-1.27-.65v-.78C49.93,37.81,50.3,37.44,51.08,37.47Z" fill="#fff"/></g></svg>