<?xml version="1.0" encoding="utf-8"?>
<!-- Generator: Adobe Illustrator 22.0.1, SVG Export Plug-In . SVG Version: 6.00 Build 0)  -->
<svg version="1.1" id="Layer_1" xmlns="http://www.w3.org/2000/svg" xmlns:xlink="http://www.w3.org/1999/xlink" x="0px" y="0px"
	 viewBox="0 0 317.255 178.001" style="enable-background:new 0 0 317.255 178.001;" xml:space="preserve">
<style type="text/css">
	.st0{fill:#CECECF;}
	.st1{fill:#FFFFFF;}
	.st2{fill:#231F20;}
	.st3{fill:#CCCCCC;}
	.st4{fill:#B7B7B7;}
	.st5{fill:#F3EFF0;}
	.st6{fill:#333333;}
	.st7{fill:none;stroke:#333333;stroke-width:2;stroke-miterlimit:10;}
	.st8{fill:#D70B8C;}
	.st9{fill:none;stroke:#FF6377;stroke-miterlimit:10;}
	.st10{fill:none;stroke:#FF6377;stroke-miterlimit:10;stroke-dasharray:6.5423,6.5423;}
	.st11{fill:none;stroke:#FF6377;stroke-miterlimit:10;stroke-dasharray:5.3575,5.3575;}
	.st12{fill:#FFFFFF;stroke:#FF6377;stroke-miterlimit:10;}
	.st13{fill:#F3F5F4;}
	.st14{fill:#FF6377;}
	.st15{fill:#F4D129;}
</style>
<g id="XMLID_2_">
	<path id="XMLID_12_" class="st0" d="M158.627,168.444H0v0c0,3.516,3.923,6.522,9.297,7.124l8.38,0.939
		c8.869,0.994,17.855,1.494,26.858,1.494h114.092h114.092c9.003,0,17.988-0.5,26.858-1.494l8.38-0.939
		c5.374-0.602,9.297-3.608,9.297-7.124v0H158.627z"/>
	<path id="XMLID_9_" class="st1" d="M18.424,168.963V14.829C18.424,6.652,25.076,0,33.253,0h250.748
		c8.176,0,14.829,6.652,14.829,14.829v154.134H18.424z"/>
	<path id="XMLID_8_" class="st2" d="M282.533,1.797H34.722c-8.008,0-14.5,6.492-14.5,14.5v150.868h276.812V16.297
		C297.033,8.289,290.541,1.797,282.533,1.797z"/>
	<rect id="XMLID_5_" x="31.006" y="16.987" class="st3" width="255.242" height="138.045"/>
	<path id="XMLID_4_" class="st4" d="M158.627,168.444H0v0c0,3.516,3.923,6.522,9.297,7.124l8.38,0.939
		c8.869,0.994,17.855,1.494,26.858,1.494h114.092h114.092c9.003,0,17.988-0.5,26.858-1.494l8.38-0.939
		c5.374-0.602,9.297-3.608,9.297-7.124v0H158.627z"/>
	<path id="XMLID_3_" class="st1" d="M2.186,172.725h312.882c1.377-1.207,2.186-2.69,2.186-4.281H158.627H0
		C0,170.035,0.809,171.518,2.186,172.725z"/>
</g>
<g>
	<rect x="39.791" y="28.321" class="st5" width="238.685" height="126.512"/>
	<rect x="39.791" y="16.303" class="st6" width="238.685" height="12.018"/>
	<line class="st7" x1="50.801" y1="125.063" x2="115.897" y2="125.063"/>
	<path class="st7" d="M50.801,132.274h18.473H50.801z"/>
	<path class="st7" d="M71.913,132.274h18.473H71.913z"/>
	<path class="st7" d="M106.22,132.274h9.676H106.22z"/>
	<path class="st7" d="M93.025,132.274h9.676H93.025z"/>
	<path class="st7" d="M50.801,139.485h65.096H50.801z"/>
	<line class="st7" x1="127.469" y1="125.063" x2="191.118" y2="125.063"/>
	<path class="st7" d="M127.469,132.274h18.063H127.469z"/>
	<path class="st7" d="M148.112,132.274h30.104H148.112z"/>
	<path class="st7" d="M180.797,132.274h9.461H180.797z"/>
	<path class="st7" d="M127.469,139.485h63.649H127.469z"/>
	<line class="st7" x1="202.691" y1="125.063" x2="266.34" y2="125.063"/>
	<path class="st7" d="M202.691,132.274h18.063H202.691z"/>
	<path class="st7" d="M223.334,132.274h18.063H223.334z"/>
	<path class="st7" d="M202.691,139.485h63.649H202.691z"/>
	<g>
		<rect x="51.122" y="60.769" class="st3" width="64.807" height="53.839"/>
		<rect x="127.45" y="60.769" class="st3" width="64.807" height="53.839"/>
		<rect x="202.337" y="60.769" class="st3" width="64.807" height="53.839"/>
	</g>
	<rect x="51.524" y="37.935" class="st6" width="215.54" height="9.614"/>
	<rect x="92.751" y="37.935" class="st8" width="36.164" height="9.614"/>
	<g>
		<g>
			<g>
				<polyline class="st9" points="266.434,111.858 266.434,114.858 263.434,114.858 				"/>
				<line class="st10" x1="256.892" y1="114.858" x2="207.824" y2="114.858"/>
				<polyline class="st9" points="204.553,114.858 201.553,114.858 201.553,111.858 				"/>
				<line class="st11" x1="201.553" y1="106.501" x2="201.553" y2="66.32"/>
				<polyline class="st9" points="201.553,63.641 201.553,60.641 204.553,60.641 				"/>
				<line class="st10" x1="211.095" y1="60.641" x2="260.163" y2="60.641"/>
				<polyline class="st9" points="263.434,60.641 266.434,60.641 266.434,63.641 				"/>
				<line class="st11" x1="266.434" y1="68.998" x2="266.434" y2="109.179"/>
			</g>
		</g>
		<rect x="199.327" y="111.678" class="st12" width="5.089" height="5.089"/>
		<rect x="263.572" y="57.751" class="st12" width="5.089" height="5.089"/>
		<rect x="263.572" y="111.678" class="st12" width="5.089" height="5.089"/>
		<rect x="199.327" y="57.751" class="st12" width="5.089" height="5.089"/>
		<g>
			<rect x="208.104" y="65.868" class="st13" width="27.114" height="31.015"/>
			<rect x="210.64" y="68.013" class="st14" width="22.042" height="22.042"/>
		</g>
		<g>
			
				<rect x="229.268" y="74.255" transform="matrix(0.9721 -0.2346 0.2346 0.9721 -14.2812 59.4682)" class="st13" width="27.114" height="31.015"/>
			
				<rect x="231.255" y="76.466" transform="matrix(0.9721 -0.2346 0.2346 0.9721 -13.7627 59.2759)" class="st14" width="22.042" height="22.042"/>
		</g>
	</g>
	<g>
		<g>
			<rect x="45.523" y="103.994" class="st3" width="12.8" height="31.419"/>
		</g>
		<g>
			<path class="st14" d="M57.642,103.994H46.204c-1.34,0-2.426-1.086-2.426-2.426v-1.547c0-1.34,1.086-2.426,2.426-2.426h11.438
				c1.34,0,2.426,1.086,2.426,2.426v1.547C60.069,102.908,58.982,103.994,57.642,103.994z"/>
		</g>
		<g>
			<path class="st14" d="M57.642,138.322H46.204c-1.34,0-2.426-1.086-2.426-2.426v-1.547c0-1.34,1.086-2.426,2.426-2.426h11.438
				c1.34,0,2.426,1.086,2.426,2.426v1.547C60.069,137.236,58.982,138.322,57.642,138.322z"/>
		</g>
		<g>
			<path class="st15" d="M52.505,67.834v10.957c0.676,0.24,1.164,0.88,1.164,1.639c0,0.964-0.781,1.746-1.746,1.746
				s-1.746-0.781-1.746-1.746c0-0.759,0.487-1.398,1.164-1.639V67.834L43.195,78.45l3.334,19.725h10.788L60.65,78.45L52.505,67.834z
				"/>
		</g>
		<g>
			<path class="st14" d="M77.815,85.957h-0.582c0-13.635-11.093-24.728-24.728-24.728S27.777,72.322,27.777,85.957h-0.582
				c0-13.956,11.354-25.31,25.31-25.31S77.815,72.001,77.815,85.957z"/>
		</g>
		<g>
			<rect x="54.614" y="60.696" class="st14" width="29.019" height="0.582"/>
		</g>
		<g>
			<rect x="21.377" y="60.696" class="st14" width="28.946" height="0.582"/>
		</g>
		<g>
			<circle class="st14" cx="83.27" cy="60.987" r="1.382"/>
		</g>
		<g>
			<circle class="st14" cx="22.759" cy="60.987" r="1.382"/>
		</g>
		<g>
			<path class="st14" d="M29.4,90.199h-4.242v-4.242H29.4V90.199z M25.74,89.617h3.078v-3.078H25.74V89.617z"/>
		</g>
		<g>
			<path class="st14" d="M50.185,59.194v4.24h4.24v-4.24H50.185z M53.845,62.854h-3.08v-3.07h3.08V62.854z"/>
			<g>
				<rect x="50.765" y="59.784" class="st1" width="3.08" height="3.07"/>
			</g>
		</g>
		<g>
			<path class="st14" d="M79.56,90.199h-4.242v-4.242h4.242V90.199z M75.9,89.617h3.078v-3.078H75.9V89.617z"/>
		</g>
	</g>
</g>
</svg>
