<?xml version="1.0" encoding="utf-8"?>
<!-- Generator: Adobe Illustrator 22.0.1, SVG Export Plug-In . SVG Version: 6.00 Build 0)  -->
<svg version="1.1" id="Layer_1" xmlns="http://www.w3.org/2000/svg" xmlns:xlink="http://www.w3.org/1999/xlink" x="0px" y="0px"
	 viewBox="0 0 48 48" style="enable-background:new 0 0 48 48;" xml:space="preserve">
<style type="text/css">
	.st0{fill-rule:evenodd;clip-rule:evenodd;fill:#FFFFFF;}
	.st1{fill:#FFFFFF;}
	.st2{fill:#FFFFFF;stroke:#000000;stroke-miterlimit:10;}
</style>
<g>
	<path class="st1" d="M48,31.1c0-7.5,0-15.1-0.1-22.6c0-0.8-0.8-2.2-1.4-2.3C42.6,5.6,38.6,4.9,34.7,5c-4.3,0-8.6,0.7-12.8,1.1
		c-1.5,0.1-1.5,1.2-1.5,2.3c0,5.3,0,10.7,0,16c0,5.4,0.1,10.8,0,16.2c0,1.8,0.6,2.5,2.3,2.5c7.7,0,15.4,0,23.1,0
		c1.6,0,2.3-0.7,2.3-2.3C47.9,37.5,48,34.3,48,31.1z M45.8,40.9c-7.9,0-15.5,0-23.4,0c0-10.9,0-21.8,0-33.1c7.8,1,15.5,2.2,23.4-0.3
		C45.8,19,45.8,29.9,45.8,40.9z"/>
	<path class="st1" d="M2.6,30.6c0-6.7,0-13.1,0-19.8c5.2,0,10.1,0,15.1,0c0-1,0-1.8,0-2.7C12.3,8.1,7.1,8,1.8,8.1
		c-0.6,0-1.7,1.1-1.7,1.7C0,17,0,24.2,0.1,31.4c0,0.6,0.9,1.8,1.4,1.8c5.4,0.1,10.8,0.1,16.3,0.1c-0.1-0.9-0.1-1.6-0.2-2.6
		C12.5,30.6,7.6,30.6,2.6,30.6z"/>
	<path class="st1" d="M9,19.8C8.6,17,6.4,15.9,3.9,15c0,4.8,0,9.4,0,14.1c4.7,0,9.2,0,13.7,0c0-1.5,0-2.7,0-4
		C13,26.2,9.8,24.7,9,19.8z"/>
	<path class="st1" d="M14.5,38.6c1.2,0,2.2,0,3.2,0c0-1.4,0-2.5,0-3.8c-1.3,0-2.3,0-3.2,0C14.5,36.2,14.5,37.4,14.5,38.6z"/>
	<path class="st1" d="M7.6,40.4c0,0.1,0,0.3,0,0.4c3.3,0,6.7,0,10,0c0-0.1,0-0.3,0-0.4C14.3,40.4,11,40.4,7.6,40.4z"/>
	<path class="st1" d="M30.2,21.9c-1.9,0-3.6,0-5.4,0c0,2,0,3.8,0,5.7c1.9,0,3.7,0,5.4,0C30.2,25.6,30.2,23.7,30.2,21.9z M29.3,26.7
		c-1.2,0-2.3,0-3.8,0c0-1.3,0-2.5,0-3.8c1.3,0,2.4,0,3.8,0C29.3,24.1,29.3,25.3,29.3,26.7z"/>
	<path class="st1" d="M30.3,12.8c-1.9,0-3.7,0-5.4,0c0,1.9,0,3.6,0,5.4c1.9,0,3.6,0,5.4,0C30.3,16.3,30.3,14.6,30.3,12.8z
		 M29.3,17.5c-1.2,0-2.3,0-3.7,0c0-1.3,0-2.5,0-3.8c1.1,0,2.3,0,3.7,0C29.3,14.8,29.3,16.1,29.3,17.5z"/>
	<path class="st1" d="M24.8,36.8c2,0,3.7,0,5.5,0c0-1.9,0-3.6,0-5.3c-1.9,0-3.7,0-5.5,0C24.8,33.4,24.8,35,24.8,36.8z M25.5,32.2
		c1.3,0,2.5,0,3.8,0c0,1.3,0,2.5,0,3.9c-1.4,0-2.6,0-3.8,0C25.5,34.7,25.5,33.5,25.5,32.2z"/>
	<path class="st1" d="M32.3,14.3c3.7,0,7.5,0,11.2,0c0-0.2,0-0.3,0-0.5c-3.7,0-7.5,0-11.2,0C32.3,14,32.3,14.2,32.3,14.3z"/>
	<path class="st1" d="M32.3,22c0,0.2,0,0.3,0,0.5c3.6,0,7.2,0,10.8,0c0-0.2,0-0.3,0-0.5C39.5,22,35.9,22,32.3,22z"/>
	<path class="st1" d="M32.3,26.6c0,0.2,0,0.3,0,0.5c3.3,0,6.7,0,10,0c0-0.2,0-0.3,0-0.5C39,26.6,35.7,26.6,32.3,26.6z"/>
	<path class="st1" d="M41.8,16.4c0-0.1,0-0.3,0-0.4c-3.1,0-6.3,0-9.4,0c0,0.1,0,0.3,0,0.4C35.5,16.4,38.6,16.4,41.8,16.4z"/>
	<path class="st1" d="M32.3,32.6c0,0.1,0,0.3,0,0.4c3,0,6,0,8.9,0c0-0.1,0-0.3,0-0.4C38.3,32.6,35.3,32.6,32.3,32.6z"/>
	<path class="st1" d="M40.8,24.7c0-0.1,0-0.3,0-0.4c-2.8,0-5.6,0-8.5,0c0,0.1,0,0.3,0,0.4C35.2,24.7,38,24.7,40.8,24.7z"/>
	<path class="st1" d="M32.3,34.9c0,0.1,0,0.3,0,0.4c1.9,0,3.8,0,5.7,0c0-0.1,0-0.3,0-0.4C36.1,34.9,34.2,34.9,32.3,34.9z"/>
</g>
</svg>
