<?xml version="1.0" encoding="utf-8"?>
<!-- Generator: Adobe Illustrator 22.0.1, SVG Export Plug-In . SVG Version: 6.00 Build 0)  -->
<svg version="1.1" id="Layer_1" xmlns="http://www.w3.org/2000/svg" xmlns:xlink="http://www.w3.org/1999/xlink" x="0px" y="0px"
	 viewBox="0 0 48 48" style="enable-background:new 0 0 48 48;" xml:space="preserve">
<style type="text/css">
	.st0{fill-rule:evenodd;clip-rule:evenodd;fill:#FFFFFF;}
	.st1{fill:#FFFFFF;}
	.st2{fill:#FFFFFF;stroke:#000000;stroke-miterlimit:10;}
</style>
<g>
	<path class="st1" d="M23.9,43c-6.7,0-13.5,0-20.2,0c-2,0-3.4-1.6-3.4-3.4c0.1-8.8,0-17.6,0-26.3c0-2,1.3-3.3,3.3-3.3
		c13.5,0,27,0,40.5,0c2.1,0,3.5,1.6,3.5,3.5c-0.1,8.8,0,17.6,0,26.4c0,1.4-0.6,2.3-1.8,2.9c-0.5,0.3-1,0.3-1.6,0.3
		c-4.9,0-9.8,0-14.7,0C27.6,43,25.7,43,23.9,43C23.9,43,23.9,43,23.9,43z M23.9,41.3c6.7,0,13.5,0,20.2,0c0.5,0,1-0.1,1.4-0.5
		c0.4-0.4,0.4-0.9,0.4-1.4c0-8.7,0-17.4,0-26c0-1.3-0.6-1.8-1.9-1.8c-10.9,0-21.8,0-32.6,0c-2.6,0-5.1,0-7.7,0c-0.3,0-0.7,0-1,0.2
		c-0.6,0.4-0.7,0.9-0.7,1.6c0,4.6,0,9.3,0,13.9c0,4.1,0,8.2,0,12.3c0,0.7,0.1,1.2,0.7,1.5c0.4,0.2,0.7,0.2,1.1,0.2
		C10.5,41.3,17.2,41.3,23.9,41.3z"/>
	<path class="st1" d="M47.5,10.2c-1.2-1.2-2.5-1.4-4-1.4c-13.1,0-26.2,0-39.2,0c-1.5,0-2.8,0.2-3.9,1.3C0.1,9.2,0.9,8,1.7,7.5
		C2.1,7.2,2.5,7,3,7c0.3,0,0.4-0.1,0.4-0.4c0.1-1.3,0.9-2,2.2-2c4.3,0,8.7,0,13,0c1.4,0,2.1,0.6,2.3,2C21,6.9,21.1,7,21.3,7
		c0.5,0,1,0,1.5,0c7,0,14.1,0,21.1,0c1.4,0,2.5,0.4,3.2,1.6C47.4,9,47.5,9.5,47.5,10.2z"/>
	<path class="st1" d="M19.9,28.8c0,0.7,0,1.4,0,2.1c0,0.2,0,0.4-0.3,0.5c-1.7,0.4-3.4,0.7-5.1,0.2c-1.5-0.4-2.5-1.4-3-2.9
		c-0.5-1.5-0.5-3.1,0-4.6c0.7-1.8,2.1-2.9,4.1-3.1c1.3-0.1,2.6,0,3.8,0.5c0.3,0.1,0.4,0.3,0.2,0.5c-0.1,0.2-0.1,0.3-0.2,0.5
		c-0.4,1.1-0.4,1.1-1.5,0.7c-0.9-0.4-1.9-0.3-2.8,0c-0.5,0.2-0.9,0.5-1.2,1.1c-0.6,1.4-0.7,2.7,0,4.1c0.5,1.1,2.2,1.7,3.3,1.3
		c0.2-0.1,0.2-0.3,0.2-0.4c0-0.9,0-1.8,0-2.7c0-0.3,0.1-0.5,0.4-0.5c0.5,0,1,0,1.5,0c0.4,0,0.5,0.1,0.5,0.5
		C19.9,27.4,19.9,28.1,19.9,28.8C19.9,28.8,19.9,28.8,19.9,28.8z"/>
	<path class="st1" d="M24.8,21.1c0.9,0,1.8,0.1,2.6,0.5c0.3,0.1,0.4,0.2,0.2,0.5c-0.2,0.5-0.2,1.1-0.6,1.4c-0.3,0.2-0.9-0.3-1.3-0.4
		c-0.6-0.1-1.2-0.1-1.8,0c-0.4,0.1-0.6,0.3-0.7,0.7c-0.1,0.4,0.1,0.7,0.4,0.9c0.6,0.4,1.3,0.6,2,0.9c0.5,0.2,1.1,0.5,1.6,0.8
		c1.5,1.1,1.5,4.4-1,5.1c-1.8,0.5-3.5,0.4-5.2-0.3c-0.3-0.1-0.4-0.3-0.2-0.6c0.2-0.4,0.2-1.1,0.5-1.3c0.3-0.3,0.8,0.2,1.3,0.3
		c0.7,0.1,1.4,0.2,2.1,0.1c0.6-0.1,1-0.3,1.1-0.8c0.1-0.6-0.2-0.9-0.7-1.1c-0.7-0.4-1.4-0.6-2.1-0.8c-0.6-0.2-1.1-0.5-1.5-1
		c-1.2-1.4-0.7-3.7,0.9-4.5C23.2,21.1,24,21,24.8,21.1z"/>
	<path class="st1" d="M32.4,21.3c1.3,0,2.5,0,3.8,0c0.3,0,0.5,0.1,0.4,0.4c0,0.5,0.2,1.1-0.1,1.5c-0.3,0.3-1,0.1-1.5,0.1
		c-0.5,0-1.1-0.2-1.5,0.1c-0.3,0.3-0.1,1-0.1,1.5c0,2.1,0,4.2,0,6.3c0,0.4-0.1,0.6-0.6,0.5c-0.4,0-0.8,0-1.3,0
		c-0.5,0-0.5-0.2-0.5-0.6c0-2.4,0-4.7,0-7.1c0-0.7,0-0.7-0.7-0.7c-0.7,0-1.4,0-2.1,0c-0.3,0-0.4-0.1-0.4-0.4c0-0.4,0-0.8,0-1.3
		c0-0.3,0.1-0.4,0.4-0.4C29.8,21.3,31.1,21.3,32.4,21.3z"/>
</g>
</svg>
