<?xml version="1.0" encoding="utf-8"?>
<!-- Generator: Adobe Illustrator 22.0.1, SVG Export Plug-In . SVG Version: 6.00 Build 0)  -->
<svg version="1.1" id="Layer_1" xmlns="http://www.w3.org/2000/svg" xmlns:xlink="http://www.w3.org/1999/xlink" x="0px" y="0px"
	 viewBox="0 0 48 48" style="enable-background:new 0 0 48 48;" xml:space="preserve">
<style type="text/css">
	.st0{fill-rule:evenodd;clip-rule:evenodd;fill:#FFFFFF;}
	.st1{fill:#FFFFFF;}
	.st2{fill:#FFFFFF;stroke:#000000;stroke-miterlimit:10;}
</style>
<g id="iAUX4p.tif">
	<g>
		<path class="st1" d="M6.4,48c-0.4,0-0.7,0-1.1,0c-0.2-0.3,0.1-0.3,0.2-0.5c1.2-1.3,2.4-2.5,3.6-3.8c0.2-0.2,0.4-0.4,0.6-0.6
			c1.6-1.6,3.2-3.3,4.8-4.9c0.1-0.1,0.3-0.3,0.4-0.4c2.7-2.7,5.3-5.4,8-8.1c0.3-0.3,0.5-0.5,0.9-0.4c0.4,0.2,0.7,0.2,1.1,0
			c1.5,0,2.9,0,4.4,0c0.1,0,0.1,0,0.2,0l0.1,0l0.1,0c1.3,0.2,2.6,0.2,3.9,0c2.3,0,4.7,0.1,7,0.1l0,0c1.4,0,2.9,0.1,4.3-0.1
			c0.8,0,1.6,0.1,2.4,0.1c0.6,0,0.8,0.2,0.8,0.8c0,5.9,0,11.9,0,17.8c-9,0-18,0-26.9,0c-0.2-0.2-0.5-0.1-0.8-0.1c-4.3,0-8.7,0-13,0
			C6.9,47.9,6.6,47.8,6.4,48z"/>
		<path class="st1" d="M43.4,2C44.2,2.5,45,3,45,4.1c0,1.1-0.7,2.1-1.7,2.3c-1.1,0.2-2.2-0.3-2.7-1.3c-0.4-1,0-2.2,1-2.8
			C41.7,2.2,41.8,2.1,42,2C42.5,2,42.9,2,43.4,2z"/>
		<path class="st1" d="M40.5,29.4c0.2-0.1,0.2-0.2,0-0.3c-0.7-0.4-0.7-1.1-0.7-1.7c0-5.3,0-10.6,0-15.9c0-0.3,0.2-0.8-0.2-0.8
			c-0.4,0-0.2,0.5-0.2,0.8c0,1.7,0,3.5,0,5.2c0,0.8-0.5,1.3-1.2,1.1c-0.5-0.1-0.8-0.4-0.8-0.9c0-2.4,0-4.8,0-7.2
			c0-1.5,1.2-2.6,2.7-2.6c1.6,0,3.1-0.1,4.7,0c1.9,0,3,1.2,3.1,3.1c0,2.2,0,4.3,0,6.5c0,0.9-0.4,1.3-1,1.3c-0.6,0-0.9-0.4-0.9-1.3
			c0-1.7,0-3.4,0-5.1c0-0.2,0-0.4,0-0.6c0-0.1-0.1-0.3-0.2-0.2c-0.1,0-0.2,0.1-0.2,0.2c0,0.2,0,0.4,0,0.6c0,5.4,0,10.7,0,16.1
			c0,0.7-0.1,1.3-0.7,1.6c-1.4,0.2-1.9-0.2-1.9-1.6c0-3,0-6,0-9c0-0.3,0.1-0.6-0.2-0.8c-0.2,0.3-0.1,0.6-0.1,0.8c0,3,0,6,0,9
			c0,1.2-0.5,1.7-1.7,1.6C40.5,29.1,40.3,29.1,40.5,29.4L40.5,29.4z"/>
		<path class="st1" d="M23.7,29.1c-0.3-0.2-0.5-0.5-0.7-0.8c-0.6-1.3-1.3-2.5-1.9-3.8c-0.2-0.4-0.3-0.8-0.1-1.2
			c0.2-0.6,0.3-1.3,0.5-2c0.5-1.2,0.3-2.4-0.3-3.5c-0.7-1.3-1.4-2.7-2.1-4.2c-1.2,2.7-3.7,3.2-5.9,4.3c-0.4-0.1-0.7-0.3-0.9-0.6
			c0-0.1,0-0.1-0.1-0.1c0-0.2,0-0.4,0-0.6c0.2-0.3,0.4-0.6,0.8-0.7c0.7-0.3,1.3-0.8,2-1c1.2-0.5,1.9-1.4,2.5-2.6
			c0.1-0.2,0.2-0.3,0.2-0.5C18.7,9.9,20,9.3,22,9.6c1.4,0.3,2.8,0.5,4.2,0.7c0.5,0.3,1.1,0.5,1.5,1c0.3,0.2,0.6,0.5,0.9,0.7
			c0.5,0.2,0.9,0.7,1.3,1c0.4,0.3,1.2,0.7,0.5,1.6c-0.5,0.6-0.9,0.7-1.5,0.4c-0.1-0.3-0.4-0.5-0.7-0.7c-0.7-0.5-1.2-1.2-2-1.5
			c-0.2-0.5-0.6-0.6-1.2-0.4c0.4,0.8,0.7,1.5,1.1,2.2c0.5,0.9,0.7,2,1.3,2.8c0.5,0.9,0.7,1.9,1.5,2.6c0.4,1.2,1,2.2,1.6,3.3
			c0.2,0.3,0.2,0.8,0.6,0.9c-0.2,0.8,0.3,1.2,0.7,1.7c0.3,1,1.4,2,0.1,3.1c-0.2,0.3-0.6,0.2-0.9,0.2c-0.5-0.1-1-0.1-1.5,0l-0.1,0
			c0,0-0.1,0-0.1,0c-0.1,0-0.1-0.1-0.2-0.1c-0.7-0.6-0.9-1.8-0.5-2.7c0,0.1,0,0.2,0.1,0.3c0,0,0.1-0.1,0.1-0.1c0-0.1,0-0.3-0.2-0.3
			c-0.9-2.3-2.1-4.4-3.2-6.6c-0.2-0.3-0.3-0.2-0.4,0.1c-0.3,0.6-0.6,1.2-0.8,1.8c-0.6,1.2-0.8,2.4,0.1,3.6c0.4,0.6,0.6,1.3,0.9,1.9
			c0.5,1,0.4,1.4-0.5,2.1C24.4,29.2,24.1,29.3,23.7,29.1z"/>
		<path class="st1" d="M12.3,17.3c0.2,0.3,0.5,0.5,0.9,0.6c-0.5,0.9-1.5,1.4-2.2,2c-0.8,0.8-1.7,1.5-2.6,2.2c-0.3,0.3-0.4,0.6-0.3,1
			c0.5,1.7,0.9,3.5,1.3,5.3c0.1,0.3,0.3,0.5,0.5,0.6c0.9,0.6,1.8,1.2,2.7,1.8c0.8,0.5,1.3,1.1,1.5,2.1c0.2,1.6,1,3.2,0.8,4.9
			c-0.1,0.1-0.3,0.3-0.4,0.4c-0.2,0-0.3,0-0.5,0c-1.3,0-1.5-0.2-1.8-1.4c-0.2-0.7-0.4-1.5-0.5-2.2c-0.2-1.7-1.5-2.3-2.8-2.8
			c-1-0.4-1.8,0.4-1.6,1.4c0.4,1.7,0.8,3.3,1.2,5c0.4,1.6,0.7,3.3,1.1,4.9c-0.2,0.2-0.4,0.4-0.6,0.6c-0.3,0-0.5,0-0.8,0
			c-0.7,0-1.1-0.3-1.3-1C5.8,37.8,4.6,32.9,3.4,28c-0.1-0.3-0.2-0.5-0.2-0.8c-0.4,0.1-0.4,0.4-0.4,0.6c0.1,0.9,0.2,1.8,0.4,2.6
			c0.1,0.8-0.1,1.4-0.7,1.5c-0.7,0.1-1.1-0.2-1.3-1.1c-0.1-1.1-0.3-2.1-0.4-3.2c0-0.3-0.1-0.7,0.1-1c0.9-1.4,1.9-2.7,2.8-4
			c0.5-0.7,1.3-1,2-1.4c2-1,3.7-2.5,5.4-4c0.3-0.3,0.7-0.6,1.1-0.7c0,0.2,0,0.4,0,0.6C12.2,17.2,12.3,17.2,12.3,17.3z"/>
		<path class="st1" d="M29.5,29.3c0.5-0.1,1-0.2,1.5,0c0.3,0.1,0.6,0.1,0.9-0.2c0.5,0.1,1,0.3,1.6,0.1c0,0.1,0,0.1,0,0.2
			C32.2,29.5,30.9,29.5,29.5,29.3z"/>
		<path class="st1" d="M24.8,29.1c0,0,0,0.1,0,0.1c-0.4,0.2-0.7,0.2-1.1,0c0,0,0-0.1,0-0.1C24.1,29.3,24.4,29.2,24.8,29.1z"/>
		<path class="st1" d="M29.2,29.3c0-0.1,0-0.1,0-0.2c0.1,0,0.1,0.1,0.2,0.1C29.4,29.3,29.3,29.3,29.2,29.3z"/>
		<path class="st1" d="M19.1,9.6c-1.2,0-2.2-1-2.2-2.2c0-1.3,1-2.3,2.3-2.3c1.2,0,2.3,1,2.3,2.2C21.5,8.5,20.4,9.6,19.1,9.6z"/>
		<path class="st1" d="M6.4,19.1c0.2,1.3-0.9,2.2-2.3,2.3C3,21.4,2,20.3,2,19.1c0-1.3,1-2.3,2.3-2.3C5.2,16.8,6.5,17.6,6.4,19.1z"/>
		<path class="st1" d="M28.8,26.4C28.7,26.3,28.7,26.3,28.8,26.4c0.2,0,0.2,0.1,0.2,0.2c0,0-0.1,0.1-0.1,0.1
			C28.8,26.6,28.8,26.5,28.8,26.4z"/>
		<path class="st1" d="M12.3,17.3c0,0,0-0.1-0.1-0.1C12.2,17.2,12.3,17.2,12.3,17.3z"/>
	</g>
</g>
</svg>
