<?xml version="1.0" encoding="utf-8"?>
<!-- Generator: Adobe Illustrator 22.0.1, SVG Export Plug-In . SVG Version: 6.00 Build 0)  -->
<svg version="1.1" id="Layer_1" xmlns="http://www.w3.org/2000/svg" xmlns:xlink="http://www.w3.org/1999/xlink" x="0px" y="0px"
	 viewBox="0 0 48 48" style="enable-background:new 0 0 48 48;" xml:space="preserve">
<style type="text/css">
	.st0{fill-rule:evenodd;clip-rule:evenodd;fill:#FFFFFF;}
	.st1{fill:#FFFFFF;}
	.st2{fill:#FFFFFF;stroke:#000000;stroke-miterlimit:10;}
</style>
<g>
	<path class="st1" d="M24.2,1c0,2.5,0,4.8,0,7.1c0,1.8,0.8,2.6,2.7,2.7c2.3,0,4.6,0,7,0c0,3.7,0,7.4,0,11.1c-9.9,0-19.8,0-29.8,0
		c0,0.6,0,1,0,1.6c4,0,8.1,0,12.1,0c-0.1,1-0.2,1.9-0.3,2.9c-3.9,0-7.8,0-11.8,0c0,0.6,0,1,0,1.6c3.9,0,7.9,0,11.9,0
		c0,1,0,1.9,0,2.9c-4,0-7.9,0-11.9,0c0,0.6,0,1,0,1.6c4,0,7.9,0,11.9,0c0,1,0,1.9,0,2.9c-4,0-7.9,0-11.8,0c0,0.5,0,1,0,1.5
		c3.9,0,7.8,0,11.8,0c0.1,1,0.3,2,0.4,3c-4,0-8.1,0-12.2,0c0,0.6,0,1,0,1.5c9.9,0,19.9,0,29.9,0c0,1.2,0.1,2.3,0,3.3
		C33.8,45.8,33,46,32.1,46c-3.5,0-7,0-10.4,0c-6.2,0-12.4,0-18.6,0C1.5,46,1,45.5,1,43.8C1,30.3,1,16.8,1,3.2C1,1.5,1.5,1,3.2,1
		c6.6,0,13.3,0,19.9,0C23.5,1,23.8,1,24.2,1z M4,19c9,0,18,0,26.9,0c0-0.5,0-1,0-1.5c-9,0-17.9,0-26.9,0C4,18,4,18.5,4,19z M31,13
		c-9.1,0-18,0-27,0c0,0.5,0,1,0,1.4c9,0,18,0,27,0C31,13.9,31,13.5,31,13z M4,5.4c5.8,0,11.5,0,17.2,0c0-0.5,0-0.9,0-1.4
		c-5.8,0-11.5,0-17.2,0C4,4.5,4,5,4,5.4z M21.2,8.5c-5.8,0-11.5,0-17.2,0c0,0.5,0,1,0,1.4c5.8,0,11.4,0,17.2,0
		C21.2,9.5,21.2,9,21.2,8.5z"/>
	<path class="st1" d="M31.8,23.6c4.1,0,8.2,0,12.4,0c1.3,0,1.9,0.5,1.9,1.9c0,4.2,0,8.5,0,12.7c0,1.3-0.5,1.9-1.9,1.9
		c-8.2,0-16.5,0-24.7,0c-1.3,0-1.8-0.5-1.8-1.8c0-4.3,0-8.6,0-12.9c0-1.3,0.4-1.7,1.7-1.7C23.4,23.6,27.6,23.6,31.8,23.6z M30.3,37
		c1.8,0,3.5,0.3,4.9-1.1c1.6-1.6,1.6-6.6,0.1-8.3c-1.4-1.5-3.2-1.2-5-1.2C30.3,30,30.3,33.5,30.3,37z M29,36.9
		c-1.5-3.5-3-7-4.5-10.5c-0.1,0-0.2,0.1-0.3,0.1c-1.5,3.5-3,6.9-4.5,10.4c0.1,0.1,0.1,0.2,0.2,0.3c0.5-0.2,1.5-0.3,1.6-0.7
		c0.4-1.7,1.6-1.9,3-1.8c0.2,0,0.5,0,0.7,0c0.9-0.1,1.4,0.2,1.6,1C27,37,27.8,37.3,29,36.9z M37.7,34c0.2,1.9,1.5,3,3.1,3
		c1.5-0.1,2.8-1.3,2.9-2.9c0.1-1.5-1-2.9-2.7-3.2c-0.2,0-0.4,0-0.6-0.1c-0.8-0.2-1.3-0.9-1.1-1.8c0.2-0.9,0.9-1.3,1.7-1
		c0.6,0.2,1,0.8,1.6,1.3c0.2,0,0.6,0,1.1,0c-0.2-1.8-1.3-2.9-2.8-3c-1.4-0.1-2.8,1-3.1,2.5c-0.4,1.8,0.9,3.3,3.1,3.5
		c0.8,0.1,1.3,0.5,1.4,1.2c0.1,0.8-0.2,1.3-0.9,1.6c-0.7,0.3-1.5,0.1-1.7-0.6C39.2,33.7,38.5,34,37.7,34z"/>
	<path class="st1" d="M25.7,1.9c2.5,2.5,4.8,4.8,7.2,7.3c-2.1,0-4.1,0-6.1,0c-0.8,0-1.2-0.7-1.2-1.4C25.7,5.8,25.7,3.9,25.7,1.9z"/>
	<path class="st1" d="M31.8,28.1c1.9-0.2,2.9,0.5,2.9,2.4c0,0.8,0,1.6,0,2.4c0,1.8-1,2.6-2.9,2.4C31.8,33,31.8,30.6,31.8,28.1z"/>
	<path class="st1" d="M24.2,29.9c0.5,1.2,0.9,2.2,1.4,3.2c-0.9,0-1.7,0-2.7,0C23.3,32.1,23.7,31.2,24.2,29.9z"/>
</g>
</svg>
