<?xml version="1.0" encoding="utf-8"?>
<!-- Generator: Adobe Illustrator 22.0.1, SVG Export Plug-In . SVG Version: 6.00 Build 0)  -->
<svg version="1.1" id="Layer_1" xmlns="http://www.w3.org/2000/svg" xmlns:xlink="http://www.w3.org/1999/xlink" x="0px" y="0px"
	 viewBox="0 0 100 100" style="enable-background:new 0 0 100 100;" xml:space="preserve">
<style type="text/css">
	.st0{fill:#FFFFFF;}
</style>
<g>
	<g>
		<path class="st0" d="M48.003,49.743c9.529,0.002,19.06-0.071,28.587,0.055c2.305,0.031,3.136-0.577,2.999-2.939
			c-0.347-5.983,0.553-12.021-0.689-17.967c-1.966-9.415-9.797-16.802-19.298-18.269c-9.001-1.389-18.614,3.132-23.237,11.168
			c-1.02,1.773-2.054,2.6-4.108,2.415c-1.952-0.177-3.936-0.116-5.9-0.018c-1.986,0.098-2.556-0.35-1.705-2.43
			C29.367,10.241,37.734,2.867,49.908,0.616C68.36-2.795,84.85,8.253,89.161,26.518c1.489,6.306,0.738,12.793,0.736,19.198
			c-0.001,2.765,0.224,4.335,3.729,4.17c3.492-0.165,4.646,1.494,4.652,5.098c0.013,8.804-0.32,17.624,0.095,26.409
			c0.472,9.983-5.782,14.872-13.023,17.305c-2.638,0.886-5.413,1.309-8.246,1.302c-14.19-0.035-28.381,0.035-42.571-0.044
			c-6.409-0.036-12.267-1.816-16.981-6.422c-2.624-2.563-4.051-5.627-4.023-9.402c0.072-9.529,0.023-19.058,0.028-28.588
			c0.003-4.686,1.021-5.734,5.858-5.772c6.836-0.053,13.672-0.025,20.508-0.031C42.617,49.739,45.31,49.741,48.003,49.743z
			 M53.297,78.745c0,2.077-0.025,3.937,0.007,5.796c0.03,1.738,0.628,3.086,2.648,3.098c2.038,0.013,2.616-1.316,2.619-3.078
			c0.006-2.789,0.024-5.578,0-8.367c-0.019-2.247-0.11-4.302,1.879-6.15c1.812-1.683,1.317-4.96-0.404-6.782
			c-1.825-1.932-4.57-2.3-6.779-0.909c-2.294,1.445-3.712,4.717-2.049,6.684C53.859,72.161,53.103,75.566,53.297,78.745z"/>
	</g>
	<g>
		<path class="st0" d="M68.499,27.631c0.012,0.947-0.649,1.368-1.107,1.905c-4.025,4.72-8.094,9.403-12.063,14.171
			c-1.242,1.493-2.133,1.858-3.647,0.247c-2.404-2.559-4.985-4.964-7.612-7.298c-1.71-1.519-0.332-2.343,0.555-3.201
			c0.9-0.87,1.564-2.852,3.381-1.107c1.119,1.074,2.354,2.04,3.383,3.191c1.355,1.514,2.278,1.151,3.44-0.276
			c2.61-3.207,5.325-6.329,8.069-9.423c0.599-0.675,1.07-2.169,2.373-1.319C66.537,25.346,67.837,26.259,68.499,27.631z"/>
	</g>
	<g>
		<path class="st0" d="M1.602,33.45c0-0.626,0.12-1.213,0.359-1.762c0.239-0.548,0.564-1.028,0.976-1.44
			c0.411-0.411,0.891-0.737,1.44-0.976c0.548-0.239,1.136-0.359,1.762-0.359h6.94v3.027h-6.94c-0.211,0-0.408,0.039-0.591,0.116
			c-0.183,0.077-0.343,0.185-0.48,0.322c-0.137,0.137-0.244,0.297-0.322,0.48c-0.077,0.183-0.116,0.38-0.116,0.591
			s0.039,0.41,0.116,0.596c0.077,0.186,0.185,0.348,0.322,0.485c0.137,0.137,0.297,0.244,0.48,0.322
			c0.183,0.077,0.38,0.116,0.591,0.116h3.027c0.626,0,1.215,0.118,1.767,0.353s1.034,0.559,1.445,0.97
			c0.411,0.411,0.735,0.893,0.971,1.445c0.235,0.552,0.353,1.141,0.353,1.767c0,0.626-0.118,1.213-0.353,1.761
			c-0.236,0.549-0.559,1.028-0.971,1.44c-0.411,0.411-0.893,0.737-1.445,0.976c-0.552,0.239-1.141,0.359-1.767,0.359H2.445v-3.027
			h6.719c0.211,0,0.408-0.039,0.591-0.116c0.183-0.077,0.343-0.185,0.48-0.322c0.137-0.137,0.244-0.297,0.322-0.48
			c0.077-0.183,0.116-0.38,0.116-0.591c0-0.211-0.039-0.408-0.116-0.591c-0.077-0.183-0.185-0.343-0.322-0.48
			c-0.137-0.137-0.297-0.244-0.48-0.322c-0.183-0.077-0.38-0.116-0.591-0.116H6.137c-0.626,0-1.213-0.12-1.762-0.359
			c-0.549-0.239-1.028-0.564-1.44-0.976s-0.737-0.893-0.976-1.445C1.721,34.665,1.602,34.076,1.602,33.45z"/>
		<path class="st0" d="M14.797,33.45c0-0.626,0.12-1.213,0.359-1.762c0.239-0.548,0.564-1.028,0.976-1.44
			c0.411-0.411,0.891-0.737,1.44-0.976c0.548-0.239,1.136-0.359,1.762-0.359h6.94v3.027h-6.94c-0.211,0-0.408,0.039-0.591,0.116
			c-0.183,0.077-0.343,0.185-0.48,0.322c-0.137,0.137-0.244,0.297-0.322,0.48c-0.077,0.183-0.116,0.38-0.116,0.591
			s0.039,0.41,0.116,0.596c0.077,0.186,0.185,0.348,0.322,0.485c0.137,0.137,0.297,0.244,0.48,0.322
			c0.183,0.077,0.38,0.116,0.591,0.116h3.027c0.626,0,1.215,0.118,1.767,0.353c0.552,0.236,1.034,0.559,1.445,0.97
			c0.411,0.411,0.735,0.893,0.971,1.445c0.235,0.552,0.353,1.141,0.353,1.767c0,0.626-0.118,1.213-0.353,1.761
			c-0.236,0.549-0.559,1.028-0.971,1.44c-0.411,0.411-0.893,0.737-1.445,0.976c-0.552,0.239-1.141,0.359-1.767,0.359h-6.719v-3.027
			h6.719c0.211,0,0.408-0.039,0.591-0.116c0.183-0.077,0.343-0.185,0.48-0.322c0.137-0.137,0.244-0.297,0.322-0.48
			c0.077-0.183,0.116-0.38,0.116-0.591c0-0.211-0.039-0.408-0.116-0.591c-0.077-0.183-0.185-0.343-0.322-0.48
			c-0.137-0.137-0.297-0.244-0.48-0.322c-0.183-0.077-0.38-0.116-0.591-0.116h-3.027c-0.626,0-1.213-0.12-1.762-0.359
			c-0.549-0.239-1.028-0.564-1.44-0.976s-0.737-0.893-0.976-1.445C14.916,34.665,14.797,34.076,14.797,33.45z"/>
		<path class="st0" d="M39.468,44.04h-10.59V28.915h3.027v12.098h7.563V44.04z"/>
	</g>
</g>
</svg>
