<?xml version="1.0" encoding="utf-8"?>
<!-- Generator: Adobe Illustrator 22.0.1, SVG Export Plug-In . SVG Version: 6.00 Build 0)  -->
<svg version="1.1" id="Layer_1" xmlns="http://www.w3.org/2000/svg" xmlns:xlink="http://www.w3.org/1999/xlink" x="0px" y="0px"
	 viewBox="0 0 100 100" style="enable-background:new 0 0 100 100;" xml:space="preserve">
<style type="text/css">
	.st0{fill:#FFFFFF;}
</style>
<g>
	<path class="st0" d="M50,12.441c0.158,0.15,0.368,0.095,0.55,0.122c4.052,0.609,7.631,3.793,8.668,8.294
		c0.164,0.712,0.264,1.435,0.264,2.168c0,6.416,0.04,12.832-0.015,19.247c-0.039,4.497-2.964,8.465-7.198,9.971
		c-0.951,0.338-1.939,0.497-2.945,0.561c-0.261,0.017-0.362-0.034-0.359-0.326c0.016-1.291,0.008-2.582,0.006-3.873
		c0-0.173-0.026-0.315,0.244-0.326c2.856-0.106,5.134-2.364,5.647-5.089c0.085-0.45,0.137-0.902,0.137-1.359
		c0-6.142,0.023-12.284-0.011-18.426c-0.014-2.602-1.154-4.61-3.484-5.863c-0.72-0.387-1.507-0.568-2.327-0.589
		c-0.248-0.006-0.495-0.008-0.743-0.008c-12.48,0-24.96,0.046-37.439-0.028c-3.928-0.023-6.48,3.15-6.467,6.466
		c0.023,6.168,0.001,12.336,0.009,18.504c0.004,2.724,1.533,5.026,3.966,6.014c0.646,0.263,1.32,0.386,2.02,0.385
		c2.738-0.004,5.477,0.006,8.215-0.011c0.353-0.002,0.428,0.092,0.426,0.432c-0.016,2.412-0.008,4.825-0.008,7.237
		c0,0.142,0,0.284,0,0.457c0.172-0.049,0.235-0.184,0.32-0.284c2.139-2.528,4.277-5.056,6.408-7.591
		c0.148-0.176,0.295-0.248,0.527-0.247c3.26,0.008,6.52,0.01,9.78-0.003c0.305-0.001,0.362,0.09,0.359,0.373
		c-0.015,1.265-0.016,2.53,0.001,3.795c0.004,0.291-0.068,0.369-0.364,0.367c-2.478-0.013-4.955,0.003-7.433-0.017
		c-0.416-0.003-0.686,0.117-0.954,0.437c-2.622,3.127-5.259,6.24-7.894,9.356c-0.996,1.177-2.391,1.485-3.679,0.777
		c-1.046-0.575-1.58-1.487-1.583-2.684c-0.007-2.491-0.008-4.981,0.005-7.472c0.002-0.314-0.06-0.412-0.397-0.413
		c-1.512-0.005-3.029,0.106-4.535-0.047c-3.872-0.393-6.658-2.407-8.477-5.806c-0.652-1.219-1.001-2.537-1.158-3.908
		C0.073,42.955,0.118,42.847,0,42.801c0-6.729,0-13.459,0-20.188c0.148-0.442,0.145-0.909,0.225-1.363
		c0.75-4.283,4.13-7.763,8.385-8.623c0.312-0.063,0.639-0.049,0.936-0.186C23.031,12.441,36.515,12.441,50,12.441z"/>
	<path class="st0" d="M80.751,87.559c-2.983-3.34-5.796-6.825-8.702-10.23c-0.173-0.202-0.348-0.262-0.6-0.262
		c-6.742,0.006-13.484-0.029-20.225,0.015c-5.025,0.033-9.329-3.512-10.448-8.443c-0.197-0.868-0.271-1.748-0.27-2.638
		c0.002-6.077-0.021-12.154,0.009-18.23c0.021-4.261,1.851-7.544,5.523-9.743c1.422-0.852,2.997-1.236,4.651-1.319
		c0.282-0.014,0.347,0.07,0.344,0.341c-0.014,1.278-0.007,2.556-0.005,3.834c0,0.186,0.029,0.342-0.262,0.352
		c-2.677,0.091-4.987,2.136-5.606,4.946c-0.107,0.484-0.16,0.977-0.16,1.474c0.001,6.168-0.025,12.336,0.013,18.504
		c0.016,2.538,1.141,4.507,3.393,5.761c0.823,0.458,1.723,0.643,2.667,0.642c7.472-0.004,14.944,0,22.416-0.009
		c0.304,0,0.499,0.093,0.693,0.324c2.062,2.456,4.134,4.903,6.204,7.353c0.125,0.148,0.254,0.295,0.395,0.459
		c0.109-0.143,0.061-0.289,0.061-0.42c0.004-2.386,0.001-4.773,0.004-7.159c0.001-0.619-0.088-0.547,0.529-0.548
		c2.634-0.003,5.269-0.041,7.902,0.009c3.06,0.058,5.657-2.312,6.109-5.395c0.04-0.27,0.074-0.544,0.074-0.816
		c0.004-6.311,0.037-12.623-0.014-18.934c-0.019-2.368-1.127-4.217-3.175-5.452c-0.805-0.485-1.695-0.735-2.639-0.745
		c-1.16-0.012-2.321-0.011-3.482-0.011c-7.42-0.001-14.84-0.003-22.26,0.007c-0.347,0-0.463-0.072-0.455-0.442
		c0.025-1.251,0.016-2.504,0.004-3.755c-0.002-0.251,0.059-0.33,0.322-0.329c8.567,0.008,17.135-0.009,25.702,0.014
		c5.362,0.014,9.436,4.064,10.314,8.835c0.081,0.44,0.069,0.896,0.222,1.323c0,6.677,0,13.354,0,20.031
		c-0.098,0.039-0.068,0.129-0.074,0.2c-0.134,1.647-0.592,3.2-1.439,4.616c-1.839,3.074-4.506,4.92-8.106,5.293
		c-1.544,0.16-3.099,0.042-4.648,0.051c-0.311,0.002-0.381,0.087-0.38,0.387c0.012,2.397-0.017,4.795,0.017,7.192
		c0.017,1.232-0.405,2.203-1.41,2.917C82.89,87.559,81.821,87.559,80.751,87.559z"/>
	<path class="st0" d="M70.638,64.364c1.316-0.171,2.539-0.404,3.696-0.903c0.847-0.366,1.618-0.838,2.192-1.584
		c1.297-1.688,0.818-3.969-1.041-4.989c-0.211-0.116-0.313-0.123-0.444,0.12c-1.128,2.093-2.536,4.003-4.297,5.582
		c-1.967,1.765-4.315,2.816-7.019,2.815c-1.848-0.001-3.183-1.143-3.512-2.94c-0.159-0.869-0.078-1.741,0.157-2.594
		c0.54-1.957,1.788-3.381,3.413-4.518c0.631-0.441,1.302-0.816,2.011-1.115c0.199-0.084,0.267-0.185,0.263-0.402
		c-0.021-1.108-0.033-2.216-0.027-3.325c0.002-0.289-0.1-0.338-0.364-0.329c-1.277,0.045-2.554,0.062-3.831,0.106
		c-0.268,0.009-0.361-0.069-0.37-0.34c-0.03-0.912-0.071-1.824-0.134-2.734c-0.021-0.307,0.055-0.4,0.372-0.396
		c1.316,0.017,2.633-0.004,3.95,0.015c0.319,0.005,0.423-0.079,0.427-0.403c0.013-0.821,0.071-1.641,0.094-2.462
		c0.006-0.228,0.076-0.273,0.299-0.254c1.078,0.094,2.156,0.174,3.236,0.242c0.237,0.015,0.302,0.077,0.28,0.325
		c-0.061,0.688-0.068,1.38-0.133,2.068c-0.029,0.309,0.052,0.368,0.351,0.347c2.523-0.176,5.033-0.452,7.516-0.941
		c0.252-0.05,0.318,0.005,0.337,0.24c0.081,1,0.167,2,0.268,2.998c0.025,0.251-0.073,0.29-0.295,0.322
		c-2.491,0.366-4.995,0.581-7.509,0.693c-0.882,0.039-0.883,0.032-0.902,0.892c-0.014,0.639-0.022,1.278-0.045,1.916
		c-0.008,0.223,0.049,0.293,0.288,0.254c0.889-0.145,1.786-0.221,2.688-0.171c0.279,0.015,0.296-0.161,0.313-0.338
		c0.036-0.365,0.16-0.482,0.567-0.39c0.926,0.208,1.867,0.349,2.805,0.502c0.266,0.044,0.372,0.146,0.255,0.407
		c-0.138,0.306-0.028,0.431,0.284,0.551c2.16,0.832,3.76,2.245,4.195,4.601c0.681,3.693-0.743,6.583-4.49,7.959
		c-1.142,0.419-2.324,0.667-3.521,0.861c-0.237,0.038-0.401,0.002-0.556-0.223C71.845,66.012,71.256,65.219,70.638,64.364z
		 M64.9,61.953c0.556-0.009,1.128-0.214,1.689-0.467c0.133-0.06,0.154-0.143,0.128-0.278c-0.21-1.126-0.329-2.265-0.434-3.404
		c-0.022-0.238-0.082-0.264-0.276-0.143c-0.736,0.46-1.4,0.993-1.862,1.745c-0.257,0.418-0.409,0.87-0.438,1.359
		C63.659,61.574,64.02,61.951,64.9,61.953z M71.58,56.106c-0.607-0.006-1.193,0.105-1.782,0.184c-0.1,0.013-0.164,0.064-0.157,0.182
		c0.05,0.757,0.074,1.517,0.191,2.291C70.356,58.317,71.384,56.749,71.58,56.106z"/>
	<path class="st0" d="M39.026,40.854c-1.532,0-3.043-0.003-4.555,0.004c-0.226,0.001-0.235-0.156-0.284-0.299
		c-0.457-1.342-0.921-2.682-1.366-4.028c-0.083-0.25-0.188-0.344-0.462-0.342c-2.386,0.012-4.772,0.013-7.158-0.001
		c-0.292-0.002-0.4,0.104-0.489,0.362c-0.458,1.342-0.935,2.677-1.408,4.014c-0.049,0.138-0.061,0.297-0.289,0.296
		c-1.472-0.009-2.944-0.005-4.465-0.005c0.379-1.006,0.743-1.976,1.111-2.944c2.235-5.886,4.472-11.77,6.698-17.659
		c0.104-0.275,0.224-0.375,0.524-0.371c1.343,0.018,2.686,0.011,4.029,0.004c0.204-0.001,0.321,0.034,0.404,0.254
		c2.558,6.862,5.124,13.721,7.689,20.581C39.012,40.742,39.012,40.769,39.026,40.854z M26.041,32.776
		c1.726,0,3.394-0.007,5.062,0.006c0.331,0.003,0.395-0.063,0.281-0.389c-0.82-2.346-1.621-4.698-2.43-7.047
		c-0.032-0.092-0.076-0.179-0.151-0.353C27.869,27.627,26.962,30.182,26.041,32.776z"/>
</g>
</svg>
