<?xml version="1.0" encoding="utf-8"?>
<!-- Generator: Adobe Illustrator 22.0.1, SVG Export Plug-In . SVG Version: 6.00 Build 0)  -->
<svg version="1.1" id="Layer_1" xmlns="http://www.w3.org/2000/svg" xmlns:xlink="http://www.w3.org/1999/xlink" x="0px" y="0px"
	 viewBox="0 0 48 48" style="enable-background:new 0 0 48 48;" xml:space="preserve">
<style type="text/css">
	.st0{fill-rule:evenodd;clip-rule:evenodd;fill:#FFFFFF;}
	.st1{fill:#FFFFFF;}
	.st2{fill:#FFFFFF;stroke:#000000;stroke-miterlimit:10;}
</style>
<g>
	<path class="st1" d="M47.9,11.5c0-2-1.2-3.3-3.3-3.3c-1.3,0-2.7,0-4,0c-0.3,0-0.4,0-0.6-0.3c-0.3-0.5-1-0.5-1.2,0
		c-0.2,0.3-0.4,0.4-0.7,0.4c-1.7,0-3.5,0-5.2,0c-1.1,0-0.9-0.1-1,0.9c0,0.5,0.1,0.6,0.6,0.6c4,0,8.1,0,12.1,0c1.2,0,1.7,0.5,1.7,1.7
		c0,7,0,13.9,0,20.9c0,0.7,0,0.7-0.7,0.7c-7.2,0-14.4,0-21.6,0c-7.2,0-14.4,0-21.6,0c-0.7,0-0.7,0-0.7-0.7c0-7,0-13.9,0-20.9
		c0-1.3,0.5-1.8,1.8-1.8c2.3,0,4.6,0,7,0c1.2,0,1.1,0.3,1.1-1.1c0-0.3-0.1-0.4-0.4-0.4c-0.4,0-0.9,0-1.3,0C9.6,8.3,9.4,8.2,9.3,8
		C9,7.4,8.3,7.4,8,8C7.8,8.2,7.7,8.3,7.4,8.3c-1.3,0-2.6,0-3.8,0c-2-0.1-3.5,1.3-3.5,3.4c0.1,8.2,0,16.4,0,24.6
		c0,2.2,1.3,3.5,3.4,3.5c8.5,0,17.1,0,25.6,0c5.1,0,10.3,0,15.4,0c0.9,0,1.7-0.3,2.3-1c0.6-0.7,0.8-1.5,0.8-2.4
		C47.8,28.1,47.8,19.8,47.9,11.5z M23.8,37.9c-0.8,0-1.5-0.6-1.5-1.5c0-0.8,0.7-1.5,1.5-1.5c0.8,0,1.5,0.6,1.5,1.5
		C25.3,37.2,24.7,37.9,23.8,37.9z"/>
	<path class="st1" d="M16.1,21.3c2.8,0,5.6,0,8.5,0c0.3,0,0.4-0.1,0.4-0.4c0-0.9,0-1.8,0-2.8c0-0.5-0.1-0.6-0.6-0.6
		c-3.1,0-6.1,0-9.2,0c-0.5,0-0.6-0.1-0.6-0.6c0-4.5,0-9.1,0-13.6c0-1.2,0.5-1.8,1.7-1.8c3.6,0,7.3,0,10.9,0c1.1,0,1.6,0.5,1.7,1.7
		c0,1.8,0,3.7,0,5.5c0,1.1,0,1.1,1.1,1.1c0.4,0,0.5-0.1,0.5-0.5c0-2.1,0-4.1,0-6.2c0-1.9-1.2-3.1-3.1-3.1C23.6,0,20,0,16.4,0
		c-2.1,0-3.3,1.2-3.3,3.3c0,2.4,0,4.8,0,7.3c0,2.5,0,5,0,7.5C13.1,19.9,14.3,21.3,16.1,21.3z M21.7,18.5c0.4,0,0.7,0.4,0.7,0.7
		c0,0.4-0.3,0.7-0.7,0.7c-0.4,0-0.8-0.4-0.8-0.8C21,18.8,21.4,18.5,21.7,18.5z"/>
	<path class="st1" d="M26.5,12.6c0,1.6,0,3.3,0,4.9c0,1.7,0,3.4,0,5c0,0.9,0.4,1.3,1.3,1.3c1.8,0,3.6,0,5.4,0c0.9,0,1.2-0.4,1.3-1.3
		c0-3.3,0-6.6,0-10c0-0.9-0.4-1.3-1.3-1.3c-1.8,0-3.5,0-5.3,0C26.8,11.3,26.5,11.7,26.5,12.6z M28.5,12.8c1.3,0,2.6,0,3.9,0
		c0.3,0,0.4,0.1,0.4,0.4c0,2.6,0,5.3,0,7.9c0,0.3-0.1,0.4-0.4,0.4c-1.3,0-2.6,0-3.9,0c-0.4,0-0.4-0.1-0.4-0.5c0-1.3,0-2.6,0-3.9
		c0,0,0,0,0,0c0-1.3,0-2.5,0-3.8C28,13,28.1,12.8,28.5,12.8z"/>
	<path class="st1" d="M30,46.5c-1.4,0-2.8,0-4.2,0c-0.4,0-0.5-0.1-0.5-0.5c0-1.4,0-2.8,0-4.1c0-0.4-0.1-0.6-0.6-0.6
		c-0.7,0-1.3,0-2,0c-0.4,0-0.5,0.1-0.5,0.5c0,1.4,0,2.9,0,4.3c0,0.3-0.1,0.5-0.5,0.5c-1.2,0-2.4,0-3.6,0c-1,0-1,0-1,1
		c0,0.4,0.2,0.5,0.6,0.5c2,0,4,0,6,0c0,0,0,0,0,0c1.9,0,3.7,0,5.6,0c1.1,0,1.1,0,1.1-1.1C30.4,46.6,30.3,46.5,30,46.5z"/>
</g>
</svg>
