<?xml version="1.0" encoding="utf-8"?>
<!-- Generator: Adobe Illustrator 22.0.1, SVG Export Plug-In . SVG Version: 6.00 Build 0)  -->
<svg version="1.1" id="Layer_1" xmlns="http://www.w3.org/2000/svg" xmlns:xlink="http://www.w3.org/1999/xlink" x="0px" y="0px"
	 viewBox="0 0 48 48" style="enable-background:new 0 0 48 48;" xml:space="preserve">
<style type="text/css">
	.st0{fill-rule:evenodd;clip-rule:evenodd;fill:#FFFFFF;}
	.st1{fill:#FFFFFF;}
	.st2{fill:#FFFFFF;stroke:#000000;stroke-miterlimit:10;}
</style>
<g id="T5gCmx_1_">
	<g>
		<path class="st1" d="M46.5,23.6c-1.8-0.1-1.8-1.1-1.8-2.4c0-2.8,0-5.5,0-8.3c0-1.1-0.1-2.1-0.8-3c-0.7-0.8-1.5-1.3-2.6-1.1
			c-1,0.2-1.5,1-1.7,2.2c2.6-0.4,2.8,1,2.7,2.9c-0.1,2.2,0,4.3,0,6.5c0,3,0,3-2.9,3c-2.1,0-3,0.9-2.9,3c0.1,2.3-0.1,4.6,0,7
			c0.1,1.8-0.6,2.3-2.3,2.3c-9.8-0.1-19.6-0.1-29.4,0c-1.9,0-2.4-0.6-2.4-2.5c0.1-6.6,0.1-13.2,0-19.8c0-1.9,0.5-2.4,2.4-2.4
			c6.8,0.1,13.6,0,20.4,0.1c1.6,0,2.6-0.6,3.4-2.3c-8.7,0-17.1-0.1-25.6,0c-2.1,0-3,1.5-3,3.5c0,8.2,0,16.3,0,24.5
			c0,2.4,1.2,3.5,3.6,3.6c4.4,0,8.8,0,13.2,0c0,0,0,0,0,0c0.2,0.3,0.4,0.6,0.6,0.8c-0.6,0.8-0.4,1.7-0.2,2.6
			c-0.1,0.3-0.3,0.6-0.4,0.9c-0.7,0-1.4,0.1-2.1,0.1c-0.3,0.2-0.3,0.3,0.1,0.4c5.2,0,10.4,0,15.7,0c0.4-0.1,0.4-0.2,0.1-0.4
			c-1,0-2-0.1-3.1-0.1c-0.1-0.3-0.2-0.6-0.4-0.9c0.2-0.9,0.4-1.8-0.3-2.6c0-0.3-0.1-0.6-0.1-0.9c2.5,0,5.1,0.2,7.6,0.1
			c1.6,0,2.4,0.5,2.2,2.2C36.4,44.3,37.4,45,39,45c2.2,0,4.5,0,6.7,0c1.4,0,2.2-0.7,2.2-2.2c0-5.7,0-11.4,0-17.1
			C48,24.7,47.6,23.7,46.5,23.6z M22.3,39.4c-0.7,0-1.2-0.3-1.2-1c0-0.7,0.4-1.1,1.1-1.1c0.7,0.1,1.1,0.5,1,1.2
			C23.2,39,22.9,39.3,22.3,39.4z M42.5,44.1c-0.6,0-0.9-0.2-1-0.7c-0.1-0.6,0.2-1,0.8-1.1c0.6-0.1,1,0.3,1,0.9
			C43.2,43.7,42.9,44,42.5,44.1z M45.8,38.7c0,0.6-0.5,1.1-1.1,1.1h-4.9c-0.6,0-1.1-0.5-1.1-1.1V27.5c0-0.6,0.5-1.1,1.1-1.1h4.9
			c0.6,0,1.1,0.5,1.1,1.1V38.7z"/>
		<path class="st1" d="M18.4,24.1c-2.3,0.6-4.3,1.8-5.4,4c0.2,0,0.5,0,0.7,0c1.3-1.5,3-2.4,4.7-3.2c0.5-0.1,1-0.2,1.1,0.5
			c-0.2,0.9-0.2,1.8-0.8,2.6h0c-1,0.3-2.1,0.7-3.1,0.9c-0.7,0.1-1.7,0.5-1.9-0.8c-0.2,0-0.5,0-0.7,0c-1.4,1.9-2.4,4.4-5,5.2
			c-1.3-0.1-2.6-0.5-4.1,0.4C5.5,34.4,6.7,34.2,8,34c1.1,0,2.1,0,3.2,0c4.7,0.5,9.3,0.2,13.9-0.3c-2.2-0.5-4.5-0.4-6.7-0.5
			c-1.2-0.1-2.5,0.5-3.6-0.5c2.3-0.7,3.6-2.5,4.7-4.4c0.8-0.7,0.8-1.8,1.2-2.6c8.1-4.9,14.1-12,19.4-19.6c0.6-0.9,1.8-2.2,1.1-2.9
			c-0.9-0.8-2.1,0.5-3,1.2C30.5,9.8,23.8,16.3,18.4,24.1z"/>
	</g>
</g>
</svg>
