<?xml version="1.0" encoding="utf-8"?>
<!-- Generator: Adobe Illustrator 22.0.1, SVG Export Plug-In . SVG Version: 6.00 Build 0)  -->
<svg version="1.1" id="Layer_1" xmlns="http://www.w3.org/2000/svg" xmlns:xlink="http://www.w3.org/1999/xlink" x="0px" y="0px"
	 viewBox="0 0 48 48" style="enable-background:new 0 0 48 48;" xml:space="preserve">
<style type="text/css">
	.st0{fill-rule:evenodd;clip-rule:evenodd;fill:#FFFFFF;}
	.st1{fill:#FFFFFF;}
	.st2{fill:#FFFFFF;stroke:#000000;stroke-miterlimit:10;}
</style>
<g>
	<path class="st1" d="M22.1,23.2c4.3,0,8.7,0,13,0c1,0,1.4-0.3,1.4-1.3c-0.2-2.7,0.3-5.5-0.3-8.2c-0.9-4.3-4.5-7.6-8.8-8.3
		c-4.1-0.6-8.5,1.4-10.6,5.1c-0.5,0.8-0.9,1.2-1.9,1.1c-0.9-0.1-1.8-0.1-2.7,0c-0.9,0-1.2-0.2-0.8-1.1c2.1-5.2,5.9-8.6,11.5-9.6
		c8.4-1.6,15.9,3.5,17.8,11.8c0.7,2.9,0.3,5.8,0.3,8.7c0,1.3,0.1,2,1.7,1.9c1.6-0.1,2.1,0.7,2.1,2.3c0,4-0.1,8,0,12
		c0.2,4.5-2.6,6.8-5.9,7.9c-1.2,0.4-2.5,0.6-3.7,0.6c-6.5,0-12.9,0-19.4,0c-2.9,0-5.6-0.8-7.7-2.9c-1.2-1.2-1.8-2.6-1.8-4.3
		c0-4.3,0-8.7,0-13c0-2.1,0.5-2.6,2.7-2.6c3.1,0,6.2,0,9.3,0C19.6,23.2,20.9,23.2,22.1,23.2z M24.5,36.3c0,0.9,0,1.8,0,2.6
		c0,0.8,0.3,1.4,1.2,1.4c0.9,0,1.2-0.6,1.2-1.4c0-1.3,0-2.5,0-3.8c0-1-0.1-2,0.9-2.8c0.8-0.8,0.6-2.3-0.2-3.1
		c-0.8-0.9-2.1-1-3.1-0.4c-1,0.7-1.7,2.1-0.9,3C24.8,33.3,24.4,34.9,24.5,36.3z"/>
</g>
<g>
	<path class="st1" d="M31.4,13.1c0,0.4-0.3,0.6-0.5,0.9c-1.8,2.1-3.7,4.3-5.5,6.4c-0.6,0.7-1,0.8-1.7,0.1c-1.1-1.2-2.3-2.3-3.5-3.3
		c-0.8-0.7-0.2-1.1,0.3-1.5c0.4-0.4,0.7-1.3,1.5-0.5c0.5,0.5,1.1,0.9,1.5,1.5c0.6,0.7,1,0.5,1.6-0.1c1.2-1.5,2.4-2.9,3.7-4.3
		c0.3-0.3,0.5-1,1.1-0.6C30.5,12.1,31.1,12.5,31.4,13.1z"/>
</g>
<g>
	<path class="st1" d="M1,15.7c0-0.3,0.1-0.6,0.2-0.8c0.1-0.2,0.3-0.5,0.4-0.7C1.8,14.1,2,14,2.3,13.9c0.2-0.1,0.5-0.2,0.8-0.2h3.2
		v1.4H3.1c-0.1,0-0.2,0-0.3,0.1c-0.1,0-0.2,0.1-0.2,0.1c-0.1,0.1-0.1,0.1-0.1,0.2c0,0.1-0.1,0.2-0.1,0.3s0,0.2,0.1,0.3
		c0,0.1,0.1,0.2,0.1,0.2c0.1,0.1,0.1,0.1,0.2,0.1c0.1,0,0.2,0.1,0.3,0.1h1.4c0.3,0,0.6,0.1,0.8,0.2c0.3,0.1,0.5,0.3,0.7,0.4
		c0.2,0.2,0.3,0.4,0.4,0.7c0.1,0.3,0.2,0.5,0.2,0.8c0,0.3-0.1,0.6-0.2,0.8c-0.1,0.2-0.3,0.5-0.4,0.7c-0.2,0.2-0.4,0.3-0.7,0.4
		c-0.3,0.1-0.5,0.2-0.8,0.2H1.4v-1.4h3.1c0.1,0,0.2,0,0.3-0.1c0.1,0,0.2-0.1,0.2-0.1C5,18.9,5,18.9,5.1,18.8c0-0.1,0.1-0.2,0.1-0.3
		c0-0.1,0-0.2-0.1-0.3C5,18.1,5,18.1,4.9,18c-0.1-0.1-0.1-0.1-0.2-0.1c-0.1,0-0.2-0.1-0.3-0.1H3.1c-0.3,0-0.6-0.1-0.8-0.2
		c-0.2-0.1-0.5-0.3-0.7-0.4c-0.2-0.2-0.3-0.4-0.4-0.7C1.1,16.3,1,16,1,15.7z"/>
	<path class="st1" d="M7,15.7c0-0.3,0.1-0.6,0.2-0.8c0.1-0.2,0.3-0.5,0.4-0.7C7.8,14.1,8,14,8.3,13.9c0.2-0.1,0.5-0.2,0.8-0.2h3.2
		v1.4H9.1c-0.1,0-0.2,0-0.3,0.1c-0.1,0-0.2,0.1-0.2,0.1c-0.1,0.1-0.1,0.1-0.1,0.2c0,0.1-0.1,0.2-0.1,0.3s0,0.2,0.1,0.3
		c0,0.1,0.1,0.2,0.1,0.2c0.1,0.1,0.1,0.1,0.2,0.1c0.1,0,0.2,0.1,0.3,0.1h1.4c0.3,0,0.6,0.1,0.8,0.2s0.5,0.3,0.7,0.4
		c0.2,0.2,0.3,0.4,0.4,0.7c0.1,0.3,0.2,0.5,0.2,0.8c0,0.3-0.1,0.6-0.2,0.8c-0.1,0.2-0.3,0.5-0.4,0.7c-0.2,0.2-0.4,0.3-0.7,0.4
		s-0.5,0.2-0.8,0.2H7.4v-1.4h3.1c0.1,0,0.2,0,0.3-0.1c0.1,0,0.2-0.1,0.2-0.1c0.1-0.1,0.1-0.1,0.1-0.2c0-0.1,0.1-0.2,0.1-0.3
		c0-0.1,0-0.2-0.1-0.3c0-0.1-0.1-0.2-0.1-0.2c-0.1-0.1-0.1-0.1-0.2-0.1s-0.2-0.1-0.3-0.1H9.1c-0.3,0-0.6-0.1-0.8-0.2
		c-0.2-0.1-0.5-0.3-0.7-0.4c-0.2-0.2-0.3-0.4-0.4-0.7C7.1,16.3,7,16,7,15.7z"/>
	<path class="st1" d="M18.2,20.6h-4.8v-6.9h1.4v5.5h3.4V20.6z"/>
</g>
</svg>
