<?xml version="1.0" encoding="utf-8"?>
<!-- Generator: Adobe Illustrator 22.0.1, SVG Export Plug-In . SVG Version: 6.00 Build 0)  -->
<svg version="1.1" id="Layer_1" xmlns="http://www.w3.org/2000/svg" xmlns:xlink="http://www.w3.org/1999/xlink" x="0px" y="0px"
	 viewBox="0 0 48 48" style="enable-background:new 0 0 48 48;" xml:space="preserve">
<style type="text/css">
	.st0{fill-rule:evenodd;clip-rule:evenodd;fill:#FFFFFF;}
	.st1{fill:#FFFFFF;}
	.st2{fill:#FFFFFF;stroke:#000000;stroke-miterlimit:10;}
</style>
<g>
	<path class="st1" d="M24.5,7C24.6,7,24.7,7,24.7,7c1.8,0.3,3.4,1.7,3.9,3.7c0.1,0.3,0.1,0.6,0.1,1c0,2.9,0,5.8,0,8.7
		c0,2-1.3,3.8-3.2,4.5c-0.4,0.2-0.9,0.2-1.3,0.3c-0.1,0-0.2,0-0.2-0.1c0-0.6,0-1.2,0-1.7c0-0.1,0-0.1,0.1-0.1c1.3,0,2.3-1.1,2.5-2.3
		c0-0.2,0.1-0.4,0.1-0.6c0-2.8,0-5.5,0-8.3c0-1.2-0.5-2.1-1.6-2.6c-0.3-0.2-0.7-0.3-1-0.3c-0.1,0-0.2,0-0.3,0C18.2,9,12.6,9,6.9,9
		C5.2,9,4,10.4,4,11.9c0,2.8,0,5.6,0,8.3c0,1.2,0.7,2.3,1.8,2.7c0.3,0.1,0.6,0.2,0.9,0.2c1.2,0,2.5,0,3.7,0c0.2,0,0.2,0,0.2,0.2
		c0,1.1,0,2.2,0,3.3c0,0.1,0,0.1,0,0.2c0.1,0,0.1-0.1,0.1-0.1c1-1.1,1.9-2.3,2.9-3.4c0.1-0.1,0.1-0.1,0.2-0.1c1.5,0,2.9,0,4.4,0
		c0.1,0,0.2,0,0.2,0.2c0,0.6,0,1.1,0,1.7c0,0.1,0,0.2-0.2,0.2c-1.1,0-2.2,0-3.3,0c-0.2,0-0.3,0.1-0.4,0.2c-1.2,1.4-2.4,2.8-3.6,4.2
		c-0.4,0.5-1.1,0.7-1.7,0.3c-0.5-0.3-0.7-0.7-0.7-1.2c0-1.1,0-2.2,0-3.4c0-0.1,0-0.2-0.2-0.2c-0.7,0-1.4,0-2,0
		c-1.7-0.2-3-1.1-3.8-2.6c-0.3-0.5-0.5-1.1-0.5-1.8c0,0,0-0.1,0-0.1c0-3,0-6.1,0-9.1c0.1-0.2,0.1-0.4,0.1-0.6C2.4,9,4,7.4,5.9,7.1
		C6,7,6.2,7,6.3,7C12.4,7,18.4,7,24.5,7z"/>
	<path class="st1" d="M38.3,40.8c-1.3-1.5-2.6-3.1-3.9-4.6c-0.1-0.1-0.2-0.1-0.3-0.1c-3,0-6.1,0-9.1,0c-2.3,0-4.2-1.6-4.7-3.8
		c-0.1-0.4-0.1-0.8-0.1-1.2c0-2.7,0-5.5,0-8.2c0-1.9,0.8-3.4,2.5-4.4c0.6-0.4,1.3-0.6,2.1-0.6c0.1,0,0.2,0,0.2,0.2
		c0,0.6,0,1.2,0,1.7c0,0.1,0,0.2-0.1,0.2c-1.2,0-2.2,1-2.5,2.2c0,0.2-0.1,0.4-0.1,0.7c0,2.8,0,5.6,0,8.3c0,1.1,0.5,2,1.5,2.6
		c0.4,0.2,0.8,0.3,1.2,0.3c3.4,0,6.7,0,10.1,0c0.1,0,0.2,0,0.3,0.1c0.9,1.1,1.9,2.2,2.8,3.3c0.1,0.1,0.1,0.1,0.2,0.2
		c0-0.1,0-0.1,0-0.2c0-1.1,0-2.1,0-3.2c0-0.3,0-0.2,0.2-0.2c1.2,0,2.4,0,3.6,0c1.4,0,2.5-1,2.7-2.4c0-0.1,0-0.2,0-0.4
		c0-2.8,0-5.7,0-8.5c0-1.1-0.5-1.9-1.4-2.5c-0.4-0.2-0.8-0.3-1.2-0.3c-0.5,0-1,0-1.6,0c-3.3,0-6.7,0-10,0c-0.2,0-0.2,0-0.2-0.2
		c0-0.6,0-1.1,0-1.7c0-0.1,0-0.1,0.1-0.1c3.9,0,7.7,0,11.6,0c2.4,0,4.2,1.8,4.6,4c0,0.2,0,0.4,0.1,0.6c0,3,0,6,0,9c0,0,0,0.1,0,0.1
		c-0.1,0.7-0.3,1.4-0.6,2.1c-0.8,1.4-2,2.2-3.6,2.4c-0.7,0.1-1.4,0-2.1,0c-0.1,0-0.2,0-0.2,0.2c0,1.1,0,2.2,0,3.2
		c0,0.6-0.2,1-0.6,1.3C39.3,40.8,38.8,40.8,38.3,40.8z"/>
	<path class="st1" d="M33.8,30.3c0.6-0.1,1.1-0.2,1.7-0.4c0.4-0.2,0.7-0.4,1-0.7c0.6-0.8,0.4-1.8-0.5-2.2c-0.1-0.1-0.1-0.1-0.2,0.1
		c-0.5,0.9-1.1,1.8-1.9,2.5c-0.9,0.8-1.9,1.3-3.2,1.3c-0.8,0-1.4-0.5-1.6-1.3c-0.1-0.4,0-0.8,0.1-1.2c0.2-0.9,0.8-1.5,1.5-2
		c0.3-0.2,0.6-0.4,0.9-0.5c0.1,0,0.1-0.1,0.1-0.2c0-0.5,0-1,0-1.5c0-0.1,0-0.2-0.2-0.1c-0.6,0-1.1,0-1.7,0c-0.1,0-0.2,0-0.2-0.2
		c0-0.4,0-0.8-0.1-1.2c0-0.1,0-0.2,0.2-0.2c0.6,0,1.2,0,1.8,0c0.1,0,0.2,0,0.2-0.2c0-0.4,0-0.7,0-1.1c0-0.1,0-0.1,0.1-0.1
		c0.5,0,1,0.1,1.5,0.1c0.1,0,0.1,0,0.1,0.1c0,0.3,0,0.6-0.1,0.9c0,0.1,0,0.2,0.2,0.2c1.1-0.1,2.3-0.2,3.4-0.4c0.1,0,0.1,0,0.2,0.1
		c0,0.5,0.1,0.9,0.1,1.3c0,0.1,0,0.1-0.1,0.1c-1.1,0.2-2.2,0.3-3.4,0.3c-0.4,0-0.4,0-0.4,0.4c0,0.3,0,0.6,0,0.9c0,0.1,0,0.1,0.1,0.1
		c0.4-0.1,0.8-0.1,1.2-0.1c0.1,0,0.1-0.1,0.1-0.2c0-0.2,0.1-0.2,0.3-0.2c0.4,0.1,0.8,0.2,1.3,0.2c0.1,0,0.2,0.1,0.1,0.2
		c-0.1,0.1,0,0.2,0.1,0.2c1,0.4,1.7,1,1.9,2.1c0.3,1.7-0.3,3-2,3.6c-0.5,0.2-1,0.3-1.6,0.4c-0.1,0-0.2,0-0.3-0.1
		C34.3,31.1,34.1,30.7,33.8,30.3z M31.2,29.3c0.3,0,0.5-0.1,0.8-0.2C32,29,32,29,32,28.9c-0.1-0.5-0.1-1-0.2-1.5
		c0-0.1,0-0.1-0.1-0.1c-0.3,0.2-0.6,0.4-0.8,0.8c-0.1,0.2-0.2,0.4-0.2,0.6C30.6,29.1,30.8,29.3,31.2,29.3z M34.2,26.6
		c-0.3,0-0.5,0-0.8,0.1c0,0-0.1,0-0.1,0.1c0,0.3,0,0.7,0.1,1C33.7,27.6,34.1,26.9,34.2,26.6z"/>
	<path class="st1" d="M19.6,19.8c-0.7,0-1.4,0-2,0c-0.1,0-0.1-0.1-0.1-0.1c-0.2-0.6-0.4-1.2-0.6-1.8c0-0.1-0.1-0.2-0.2-0.2
		c-1.1,0-2.1,0-3.2,0c-0.1,0-0.2,0-0.2,0.2c-0.2,0.6-0.4,1.2-0.6,1.8c0,0.1,0,0.1-0.1,0.1c-0.7,0-1.3,0-2,0c0.2-0.5,0.3-0.9,0.5-1.3
		c1-2.6,2-5.3,3-7.9c0-0.1,0.1-0.2,0.2-0.2c0.6,0,1.2,0,1.8,0c0.1,0,0.1,0,0.2,0.1C17.2,13.5,18.4,16.6,19.6,19.8
		C19.6,19.7,19.6,19.7,19.6,19.8z M13.7,16.1c0.8,0,1.5,0,2.3,0c0.1,0,0.2,0,0.1-0.2c-0.4-1.1-0.7-2.1-1.1-3.2c0,0,0-0.1-0.1-0.2
		C14.5,13.8,14.1,15,13.7,16.1z"/>
</g>
</svg>
