<?xml version="1.0" encoding="utf-8"?>
<!-- Generator: Adobe Illustrator 22.0.1, SVG Export Plug-In . SVG Version: 6.00 Build 0)  -->
<svg version="1.1" id="Layer_1" xmlns="http://www.w3.org/2000/svg" xmlns:xlink="http://www.w3.org/1999/xlink" x="0px" y="0px"
	 viewBox="0 0 48 48" style="enable-background:new 0 0 48 48;" xml:space="preserve">
<style type="text/css">
	.st0{fill-rule:evenodd;clip-rule:evenodd;fill:#FFFFFF;}
	.st1{fill:#FFFFFF;}
	.st2{fill:#FFFFFF;stroke:#000000;stroke-miterlimit:10;}
</style>
<g>
	<path class="st1" d="M24.8,0c0,2.6,0,5.1,0,7.6c0,1.9,0.9,2.8,2.9,2.8c2.5,0,4.9,0,7.4,0c0,4,0,7.9,0,11.9c-10.6,0-21.2,0-31.8,0
		c0,0.6,0,1.1,0,1.7c4.3,0,8.6,0,12.9,0c-0.1,1.1-0.2,2-0.4,3.1c-4.2,0-8.4,0-12.6,0c0,0.6,0,1.1,0,1.7c4.2,0,8.4,0,12.6,0
		c0,1.1,0,2.1,0,3.1c-4.2,0-8.4,0-12.6,0c0,0.6,0,1.1,0,1.7c4.2,0,8.4,0,12.7,0c0,1.1,0,2.1,0,3.1c-4.2,0-8.4,0-12.6,0
		c0,0.6,0,1,0,1.6c4.1,0,8.3,0,12.5,0c0.1,1.1,0.3,2.1,0.4,3.2c-4.3,0-8.6,0-13,0c0,0.6,0,1.1,0,1.6c10.6,0,21.2,0,31.9,0
		c0,1.2,0.1,2.4,0,3.5c-0.1,1-0.9,1.3-1.9,1.3c-3.7,0-7.4,0-11.1,0c-6.6,0-13.2,0-19.8,0C0.5,48,0,47.5,0,45.7C0,31.2,0,16.8,0,2.4
		C0,0.5,0.5,0,2.3,0c7.1,0,14.2,0,21.3,0C23.9,0,24.3,0,24.8,0z M3.2,19.2c9.6,0,19.2,0,28.7,0c0-0.6,0-1.1,0-1.6
		c-9.6,0-19.1,0-28.7,0C3.2,18.1,3.2,18.6,3.2,19.2z M32,12.8c-9.7,0-19.2,0-28.7,0c0,0.5,0,1,0,1.5c9.6,0,19.2,0,28.7,0
		C32,13.8,32,13.4,32,12.8z M3.2,4.7c6.2,0,12.3,0,18.3,0c0-0.5,0-1,0-1.5c-6.1,0-12.2,0-18.3,0C3.2,3.8,3.2,4.2,3.2,4.7z M21.6,8
		C15.4,8,9.3,8,3.3,8c0,0.5,0,1,0,1.5c6.1,0,12.2,0,18.3,0C21.6,9,21.6,8.6,21.6,8z"/>
	<path class="st1" d="M32.8,24.1c4.4,0,8.8,0,13.2,0c1.4,0,2,0.5,2,2c0,4.5,0,9,0,13.5c0,1.4-0.6,2-2,2c-8.8,0-17.6,0-26.4,0
		c-1.4,0-1.9-0.5-1.9-1.9c0-4.6,0-9.2,0-13.8c0-1.4,0.5-1.8,1.8-1.8C23.9,24.1,28.4,24.1,32.8,24.1z M31.2,38.4
		c1.9,0,3.8,0.3,5.2-1.2c1.7-1.7,1.7-7.1,0.1-8.8c-1.5-1.6-3.4-1.3-5.3-1.2C31.2,31,31.2,34.6,31.2,38.4z M29.8,38.3
		c-1.6-3.8-3.2-7.5-4.8-11.2c-0.1,0-0.2,0.1-0.4,0.1c-1.6,3.7-3.2,7.4-4.8,11.1c0.1,0.1,0.1,0.2,0.2,0.3c0.6-0.2,1.6-0.4,1.7-0.7
		c0.5-1.9,1.7-2.1,3.2-1.9c0.3,0,0.5,0,0.8,0c0.9-0.1,1.5,0.2,1.7,1.1C27.8,38.4,28.5,38.7,29.8,38.3z M39.2,35.2
		c0.3,2,1.6,3.2,3.3,3.2c1.6-0.1,3-1.4,3.1-3c0.1-1.6-1.1-3.1-2.9-3.4c-0.2,0-0.5,0-0.7-0.1c-0.9-0.2-1.4-1-1.2-1.9
		c0.2-0.9,0.9-1.4,1.8-1.1c0.6,0.2,1.1,0.9,1.7,1.4c0.2,0,0.7,0,1.2,0c-0.2-1.9-1.4-3.1-3-3.2c-1.5-0.1-3,1.1-3.3,2.7
		c-0.4,1.9,1,3.5,3.3,3.8c0.8,0.1,1.3,0.5,1.5,1.3c0.1,0.8-0.2,1.4-1,1.7c-0.8,0.3-1.6,0.1-1.8-0.7C40.7,34.9,40,35.2,39.2,35.2z"/>
	<path class="st1" d="M26.4,1c2.6,2.6,5.1,5.1,7.7,7.7c-2.2,0-4.3,0.1-6.5,0c-0.8,0-1.2-0.7-1.3-1.5C26.4,5.1,26.4,3.1,26.4,1z"/>
	<path class="st1" d="M32.9,29c2.1-0.3,3.1,0.6,3.1,2.6c0,0.9,0,1.7,0,2.6c0,1.9-1,2.8-3.1,2.5C32.9,34.1,32.9,31.5,32.9,29z"/>
	<path class="st1" d="M24.8,30.9c0.5,1.3,1,2.3,1.4,3.4c-1,0-1.8,0-2.9,0C23.8,33.2,24.2,32.2,24.8,30.9z"/>
</g>
</svg>
