<?xml version="1.0" encoding="utf-8"?>
<!-- Generator: Adobe Illustrator 22.0.1, SVG Export Plug-In . SVG Version: 6.00 Build 0)  -->
<svg version="1.1" id="Layer_1" xmlns="http://www.w3.org/2000/svg" xmlns:xlink="http://www.w3.org/1999/xlink" x="0px" y="0px"
	 viewBox="0 0 48 48" style="enable-background:new 0 0 48 48;" xml:space="preserve">
<style type="text/css">
	.st0{fill-rule:evenodd;clip-rule:evenodd;fill:#FFFFFF;}
	.st1{fill:#FFFFFF;}
	.st2{fill:#FFFFFF;stroke:#000000;stroke-miterlimit:10;}
</style>
<g>
	<path class="st1" d="M3.7,24c0-6.2,0-12.3,0-18.5c0-2.4,1-3.9,2.8-4.7C7.3,0.6,8,0.5,8.7,0.5c5.5,0,10.9,0,16.4,0
		c2.5,0,4.1,1.1,4.7,3.1c0.2,0.5,0.2,1,0.2,1.5c0,2.2,0,4.5,0,6.7c0,0.9-0.1,1.5-1.1,1.7c-0.2,0.1-0.4,0.2-0.6,0.3
		c-0.4,0.3-0.5,0.1-0.5-0.3c0-1.5,0-3,0-4.5c0-0.4,0-0.6-0.6-0.6c-7,0-14,0-21,0C6,8.4,5.9,8.5,5.9,8.8c0,0.2,0,0.3,0,0.5
		c0,9.8,0,19.6,0,29.4c0,0.7,0.1,0.9,0.9,0.9c6.7,0,13.5,0,20.2,0c0.7,0,0.9-0.2,0.8-0.8c0-2.6,0-5.2,0-7.8c0-1.1,0.1-1.1,1.2-1
		c0.9,0.1,1,0.4,1,1.3c0,3.9,0,7.7,0,11.6c0,2.9-1.8,4.7-4.7,4.7c-5.6,0-11.2-0.1-16.7,0c-2.8,0-4.9-1.8-4.9-4.9
		C3.8,36.4,3.7,30.2,3.7,24z M19.5,43.4c0-1.5-1.2-2.6-2.6-2.6c-1.4,0-2.6,1.2-2.6,2.7c0,1.5,1.2,2.7,2.6,2.7
		C18.3,46.2,19.5,44.9,19.5,43.4z M16.9,5.3c0.7,0,1.4,0,2,0c0.3,0,0.6-0.1,0.6-0.4c0-0.4-0.2-0.5-0.6-0.5c-1.4,0-2.7,0-4.1,0
		c-0.3,0-0.6,0.1-0.6,0.5c0,0.4,0.3,0.4,0.6,0.4C15.5,5.3,16.2,5.3,16.9,5.3z M13.7,4.8c-0.1-0.2-0.1-0.4-0.4-0.4
		c-0.3,0-0.6,0.1-0.6,0.4c0,0.3,0.2,0.5,0.5,0.6C13.5,5.3,13.6,5.1,13.7,4.8z"/>
	<path class="st1" d="M37.6,29.3c0,0.6-0.3,0.9-0.8,1c-0.5,0.1-0.9-0.2-0.9-0.7c0-1-0.6-1.2-1.5-1.3c-2.4-0.3-4.9-0.6-7.3-1
		c-0.5-0.1-0.4,0.3-0.5,0.5C25.6,30.2,23,31,21,29.6c-0.9-0.6-1.3-1.6-1.4-2.6c0-0.5-0.2-0.7-0.7-0.7c-0.2,0-0.5-0.1-0.7-0.1
		c-0.5-0.1-0.8-0.1-0.8,0.6c0,0.7-0.7,1-1.3,0.6c-1.1-0.7-2.1-1.5-3.2-2.3c-0.3-0.2-0.2-0.4,0-0.7c0.7-0.9,1.3-1.9,2-2.8
		c0.6-0.8,1.4-0.7,1.7,0.3c0.2,0.5,0.3,0.4,0.7,0.2c3.6-1.8,7.2-3.6,10.9-5.5c1.5-0.7,3-1.5,4.5-2.2c0.5-0.2,0.8-0.5,0.5-1.1
		c-0.2-0.6,0.1-1.3,0.7-1.3c0.7-0.1,1,0.3,1.1,0.9c0.4,2.5,0.9,5.1,1.3,7.6c0.4,2.5,0.8,5,1.2,7.4C37.5,28.4,37.5,28.8,37.6,29.3z
		 M18.3,24c0.1,0,0.2-0.1,0.3-0.1c1.4-0.3,2.8-0.6,4.3-0.9c3.3-0.7,6.6-1.4,9.9-2.1c0.4-0.1,0.6-0.2,0.5-0.8
		c-0.2-0.8-0.3-1.6-0.4-2.5c-0.1-0.5-0.1-0.7-0.7-0.4c-4,1.7-8.1,3.3-12.1,5c-0.6,0.3-1.3,0.6-1.9,0.8c-0.4,0.1-0.3,0.4-0.3,0.7
		C17.9,24,18.1,24,18.3,24z M23.4,28.4c0.4,0,0.9-0.4,1.2-1c0.1-0.3,0.1-0.4-0.3-0.5c-0.9-0.1-1.7-0.2-2.6-0.3
		c-0.4-0.1-0.4,0.1-0.4,0.5C21.5,27.8,22.3,28.4,23.4,28.4z"/>
	<path class="st1" d="M39.3,20.9c-0.3,0-0.6,0-0.6-0.4c0-0.3,0.2-0.4,0.5-0.5c1.5-0.2,3-0.5,4.5-0.8c0.3,0,0.5,0,0.6,0.3
		c0.1,0.3-0.1,0.5-0.4,0.6C42.3,20.4,40.8,20.7,39.3,20.9z"/>
	<path class="st1" d="M38.2,14.9c-0.2,0-0.4-0.1-0.5-0.3c-0.1-0.2,0-0.4,0.1-0.5c1.1-0.8,2.1-1.7,3.2-2.5c0.2-0.1,0.4-0.1,0.6,0.1
		c0.2,0.2,0.2,0.4,0,0.6c-1.1,0.9-2.2,1.7-3.3,2.5C38.3,14.9,38.2,14.9,38.2,14.9z"/>
	<path class="st1" d="M40.2,26.1c0.7,0.2,1.4,0.5,2.2,0.7c0.5,0.2,1,0.4,1.5,0.6c0.2,0.1,0.4,0.2,0.3,0.5c-0.1,0.3-0.3,0.4-0.6,0.3
		c-1.2-0.4-2.5-0.9-3.7-1.3c-0.2-0.1-0.3-0.3-0.3-0.5C39.7,26.2,39.9,26.1,40.2,26.1z"/>
</g>
</svg>
