<?xml version="1.0" encoding="utf-8"?>
<!-- Generator: Adobe Illustrator 22.0.1, SVG Export Plug-In . SVG Version: 6.00 Build 0)  -->
<svg version="1.1" id="Layer_1" xmlns="http://www.w3.org/2000/svg" xmlns:xlink="http://www.w3.org/1999/xlink" x="0px" y="0px"
	 viewBox="0 0 48 48" style="enable-background:new 0 0 48 48;" xml:space="preserve">
<style type="text/css">
	.st0{fill-rule:evenodd;clip-rule:evenodd;fill:#FFFFFF;}
	.st1{fill:#FFFFFF;}
	.st2{fill:#FFFFFF;stroke:#000000;stroke-miterlimit:10;}
</style>
<g>
	<path class="st1" d="M0,38c0.2-0.6,0.2-1.2,0.3-1.8c0.5-3,0.9-6,1.4-9c0.4-2.7,0.8-5.4,1.3-8.1c0.4-2.4,0.7-4.8,1.1-7.1
		c0.2-1.2,1.2-1.9,2.4-1.7c3.1,0.5,6.3,1,9.4,1.5c0.8,0.1,1.7,0.3,2.5,0.4c1.1,0.2,1.9,1.2,1.7,2.4c-0.4,2.7-0.8,5.4-1.3,8
		c-0.4,2.7-0.8,5.4-1.3,8c-0.4,2.7-0.9,5.4-1.3,8.2c-0.1,0.6-0.2,1.1-0.3,1.7c-0.2,1-0.7,1.5-1.7,1.7c0,0-0.1,0-0.1,0.1
		c-0.2,0-0.4,0-0.6,0c0-0.1-0.1-0.1-0.2-0.1c-2.3-0.4-4.7-0.7-7-1.1c-1.6-0.3-3.2-0.5-4.8-0.8c-0.8-0.1-1.4-0.6-1.6-1.4
		c0-0.1,0-0.2-0.1-0.2C0,38.5,0,38.3,0,38z M5.2,15.1c-0.1,0-0.2,0-0.2,0.2c-0.3,1.6-0.5,3.3-0.8,4.9c-0.4,2.6-0.8,5.1-1.2,7.7
		C2.7,30.3,2.3,32.7,2,35c0,0.2,0,0.2,0.2,0.3c1,0.1,2,0.3,3,0.5c3.2,0.5,6.5,1,9.7,1.5c0.2,0,0.3,0,0.3-0.2c0-0.2,0.1-0.4,0.1-0.7
		c0.5-3,0.9-6,1.4-8.9c0.5-3.4,1.1-6.7,1.6-10.1c0-0.2,0-0.3-0.2-0.3c-0.8-0.1-1.5-0.2-2.3-0.4c-2.3-0.4-4.6-0.7-6.9-1.1
		C7.7,15.5,6.5,15.3,5.2,15.1z M10.1,12.8c-0.4,0-0.7,0.2-0.7,0.6c0,0.3,0.2,0.7,0.6,0.7c1.4,0.2,2.7,0.4,4.1,0.6
		c0.4,0.1,0.7-0.2,0.8-0.6c0.1-0.3-0.2-0.7-0.5-0.7c-0.6-0.1-1.2-0.2-1.9-0.3C11.6,13.1,10.8,12.9,10.1,12.8z M8.2,37.5
		c-0.7,0-1.3,0.5-1.4,1.2c0,0.8,0.5,1.4,1.3,1.4c0.7,0,1.3-0.6,1.4-1.3C9.5,38.1,8.9,37.5,8.2,37.5z"/>
	<path class="st1" d="M20.1,5.7c0.3,0.1,0.5,0.1,0.8,0.1c3.2,0.6,5.6,3.1,6.1,6.3c0.2,1.3,0,2.6-0.5,3.9c-0.1,0.4-0.4,0.5-0.6,0.4
		c-0.3-0.1-0.3-0.4-0.2-0.7c1-2.6,0.6-5-1.3-7c-1.1-1.2-2.5-1.8-4.1-2c-0.2,0-0.3,0-0.5,0c-0.2,0-0.4-0.1-0.5-0.3
		c-0.1-0.2,0-0.4,0.2-0.5c0,0,0.1-0.1,0.1-0.1C19.7,5.7,19.9,5.7,20.1,5.7z"/>
	<path class="st1" d="M37.5,35.9c-2.9,0-5.8,0-8.7,0c-1.1,0-1.8-0.7-1.8-1.8c0-3.6,0-7.3,0-10.9c0-0.4,0-0.4,0.4-0.2
		c3.2,1.3,6.5,2.5,9.7,3.8c0.3,0.1,0.5,0.1,0.8,0c3.3-1.3,6.5-2.6,9.8-4c0.3-0.1,0.3,0,0.3,0.2c0,3.7,0,7.4,0,11.1
		c0,1-0.7,1.7-1.7,1.7C43.4,35.9,40.4,35.9,37.5,35.9C37.5,35.9,37.5,35.9,37.5,35.9z M39,30.1c-0.4-0.4-0.5-0.5-0.8-0.5
		c-1,0-1.8,0.9-1.8,2.1c0,0.6,0.5,1,1.1,1c0.4,0,0.7-0.2,0.9-0.4c0.2,0.4,0.4,0.4,0.8,0.4c1.4-0.3,2.1-2,1.3-3.2
		c-0.6-0.9-1.5-1.2-2.5-1.2c-1.8,0-3.1,1.8-2.6,3.5c0.5,1.9,2.9,2.8,4.8,1.3c0.2-0.1,0.4-0.3,0.2-0.5c-0.2-0.2-0.4,0-0.6,0.1
		c0,0-0.1,0.1-0.1,0.1c-0.5,0.4-1.1,0.6-1.7,0.5c-1-0.1-1.8-0.7-2-1.6c-0.3-0.9,0-1.9,0.8-2.5c0.8-0.6,1.9-0.6,2.7-0.1
		c1,0.6,1.1,2.2,0.2,2.9c-0.1,0.1-0.3,0.2-0.5,0.1c-0.2-0.1-0.1-0.3,0-0.5c0.2-0.6,0.3-1.2,0.5-1.7c0-0.1,0.1-0.3-0.1-0.3
		c-0.2-0.1-0.3,0-0.4,0.1C39,29.9,39,30,39,30.1z"/>
	<path class="st1" d="M47.6,21.4c0,0.2-0.2,0.1-0.2,0.2c-1.4,0.6-2.8,1.1-4.2,1.7c-1.8,0.7-3.5,1.4-5.3,2.2c-0.2,0.1-0.4,0.1-0.6,0
		c-3.2-1.2-6.4-2.5-9.6-3.7c-0.3-0.1-0.3-0.2-0.1-0.4c0.3-0.3,0.7-0.4,1.2-0.4c3.6,0,7.1,0,10.7,0c2.2,0,4.5,0,6.7,0
		c0.4,0,0.9,0.1,1.2,0.4C47.5,21.3,47.5,21.4,47.6,21.4z"/>
	<path class="st1" d="M25.3,13c0,0.9-0.1,1.6-0.4,2.3c-0.1,0.3-0.4,0.4-0.6,0.3c-0.3-0.1-0.3-0.4-0.2-0.7c1.1-2.9-0.5-5.9-3.6-6.5
		c-0.2,0-0.5-0.1-0.7-0.1c-0.3,0-0.5-0.2-0.4-0.5c0-0.3,0.2-0.4,0.5-0.4c1.7,0.1,3.1,0.7,4.1,2C24.8,10.5,25.3,11.8,25.3,13z"/>
	<path class="st1" d="M23.5,13.5c0,0.5-0.1,1-0.3,1.5c-0.1,0.4-0.4,0.5-0.6,0.4c-0.3-0.1-0.3-0.4-0.2-0.7c0.8-2.2-0.5-4.3-2.8-4.7
		c-0.1,0-0.2,0-0.4,0c-0.3,0-0.5-0.2-0.5-0.5c0-0.3,0.2-0.4,0.5-0.4c1.5,0.1,2.7,0.7,3.5,2C23.2,11.8,23.5,12.6,23.5,13.5z"/>
	<path class="st1" d="M13.9,25c-0.1,0.7-0.2,1.5-0.3,2.3c-0.1,0.6-0.2,1.2-0.3,1.9c-0.1,0.8-0.9,1.4-1.8,1.3c-1.3-0.2-2.6-0.4-4-0.6
		c-0.9-0.1-1.5-0.9-1.3-1.8c0.2-1.3,0.4-2.6,0.6-3.9c0.1-0.9,0.9-1.5,1.8-1.4c1.3,0.2,2.6,0.4,4,0.6C13.4,23.5,13.9,24.1,13.9,25z
		 M7.9,27.5c0,0.2,0.1,0.2,0.2,0.2c1.2,0.2,2.3,0.4,3.5,0.5c0.2,0,0.3,0,0.3-0.2c0.1-0.9,0.3-1.7,0.4-2.6c0-0.2,0-0.3-0.2-0.3
		c-1.2-0.2-2.3-0.4-3.5-0.6c-0.2,0-0.2,0-0.3,0.2C8.1,25.7,8,26.6,7.9,27.5z"/>
	<path class="st1" d="M38.7,30.9c0,0.3-0.1,0.7-0.4,1.1c-0.2,0.2-0.5,0.3-0.8,0.2c-0.3-0.1-0.4-0.4-0.4-0.8c0.1-0.6,0.4-1.1,0.9-1.2
		C38.4,30.1,38.7,30.4,38.7,30.9z"/>
	<path class="st1" d="M11.5,28.1c-1.1-0.2-2.2-0.4-3.3-0.5c-0.2,0-0.2-0.1-0.2-0.2c0.1-0.8,0.3-1.6,0.4-2.3c0-0.2,0.1-0.2,0.2-0.2
		c1.1,0.2,2.1,0.3,3.2,0.5c0.2,0,0.2,0.1,0.2,0.3c-0.1,0.8-0.2,1.5-0.4,2.3C11.7,28,11.6,28.1,11.5,28.1z M9,26.5
		c0,0.4,0.2,0.6,0.5,0.7c0.4,0.1,0.6-0.1,0.7-0.4c0.1-0.3,0.1-0.6,0.1-0.9c0-0.1,0-0.2-0.1-0.2c-0.1,0-0.1,0.1-0.1,0.1
		c0,0.2-0.1,0.5-0.1,0.7C10,26.9,9.8,27,9.6,26.9c-0.3,0-0.4-0.2-0.3-0.5c0-0.2,0.1-0.5,0.1-0.7c0-0.1,0-0.1-0.1-0.2
		c-0.1,0-0.1,0.1-0.1,0.1C9.1,25.9,9.1,26.2,9,26.5z M10.8,25.9c0-0.1,0.1-0.2-0.1-0.2c-0.1,0-0.1,0.1-0.1,0.2
		c0,0.3-0.1,0.6-0.1,0.9c-0.1,0.6,0,0.4,0.4,0.5c0.1,0,0.2,0,0.2-0.1c0-0.1-0.1-0.1-0.2-0.1c-0.3,0-0.3-0.2-0.3-0.4
		C10.7,26.5,10.7,26.2,10.8,25.9z"/>
</g>
</svg>
