<?xml version="1.0" encoding="utf-8"?>
<!-- Generator: Adobe Illustrator 22.0.1, SVG Export Plug-In . SVG Version: 6.00 Build 0)  -->
<svg version="1.1" id="Layer_1" xmlns="http://www.w3.org/2000/svg" xmlns:xlink="http://www.w3.org/1999/xlink" x="0px" y="0px"
	 viewBox="0 0 48 48" style="enable-background:new 0 0 48 48;" xml:space="preserve">
<style type="text/css">
	.st0{fill-rule:evenodd;clip-rule:evenodd;fill:#FFFFFF;}
	.st1{fill:#FFFFFF;}
	.st2{fill:#FFFFFF;stroke:#000000;stroke-miterlimit:10;}
</style>
<g>
	<path class="st1" d="M48,19.1c-0.1,0.4-0.2,1-0.4,1.6c-0.9,3.1-1.7,6.2-2.6,9.3c-0.5,1.8-1.6,3.1-3.4,3.8
		c-10.1,4-20.2,8.1-30.3,12.2c-1.7,0.7-3.1,0.1-3.8-1.6c-0.6-1.5-1.3-3.1-1.9-4.6c-1.8-4.5-3.6-9-5.4-13.6C0.1,25.7,0,25.2,0,24.7
		c0-1.3,0.5-2,1.7-2.5c7.7-3.1,15.5-6.2,23.2-9.4c2.4-1,4.8-1.9,7.2-2.9c1.8-0.7,3.5-0.6,5.1,0.4c3.1,1.8,6.1,3.6,9.1,5.4
		C47.5,16.4,48,17.5,48,19.1z M25.3,24.3c0.1,1.7,0.8,3.5,2,5c0.7,0.8,1.5,1.4,2.5,1.6c2.3,0.5,5.5-0.7,6.7-2.6
		c0.4-0.5,0.6-1.2,0.7-1.9c0.3-2.6-0.7-4.8-2.4-6.6c-0.6-0.7-1.4-1.1-2.3-1.2c-2.5-0.3-4.6,0.6-6.3,2.5C25.6,21.9,25.3,23,25.3,24.3
		z M9.5,36.4c0.3,0.7,0.6,1.5,0.9,2.2c0.1,0.2,0.4,0.4,0.6,0.4c1.8,0,3.5-0.6,5-1.6c0.3-0.3,0.6-0.6,0.9-0.9
		c1.5-1.9,0.3-5.2-2.2-5.4c-1.1-0.1-2.2-0.2-3.2-0.3c-0.4,0-0.7-0.1-0.8-0.6c-0.1-0.4,0.2-0.7,0.6-0.9c0.3-0.1,0.6-0.3,0.9-0.3
		c0.6-0.1,1.3-0.1,1.9-0.2c0.2,0,0.4,0,0.4-0.4c0-0.8,0-1.5,0-2.3c-0.5,0-1,0-1.5,0c-1.7,0.2-3.2,0.7-4.4,1.8
		c-0.8,0.7-1.2,1.6-1.1,2.6c0.2,2,1.5,3.2,3.5,3.3c0.9,0.1,1.8,0.1,2.7,0.2c0.3,0,0.7,0.4,0.7,0.6c0,0.3-0.2,0.7-0.4,0.9
		C13.4,35.8,13,36,12.6,36C11.6,36.2,10.6,36.3,9.5,36.4z M15.7,24.7c1.5,3.7,3,7.4,4.5,11.1c2.2-0.9,4.4-1.8,6.6-2.6
		c-0.3-0.9-0.7-1.7-1-2.5c-1.2,0.5-2.4,0.9-3.6,1.4c-0.3-0.7-0.5-1.3-0.8-2c1.1-0.5,2.2-0.9,3.3-1.3c-0.3-0.8-0.7-1.6-1-2.4
		c-1.1,0.4-2.2,0.9-3.3,1.3c-0.2-0.6-0.4-1.1-0.7-1.7c1.2-0.5,2.4-1,3.5-1.4c-0.3-0.9-0.7-1.6-1-2.4C20.1,22.9,17.9,23.8,15.7,24.7z
		 M39.8,19.7c0,1.4,1.1,2.5,2.5,2.5c1.3,0,2.5-1.2,2.5-2.5c0-1.3-1.1-2.5-2.5-2.5C40.9,17.2,39.7,18.3,39.8,19.7z"/>
	<path class="st1" d="M20.4,12.6c0-2.3-1.1-3.9-3-4.5c-1.8-0.5-3.7,0.2-4.7,1.8c-0.9,1.5-1,3.6,0.8,5.5c-0.1,0.1-0.2,0.1-0.4,0.2
		c-1.6,0.6-3.2,1.3-4.7,1.9c-0.8,0.3-1.7,0.1-2-0.7c-0.2-0.5-0.4-1.1-0.4-1.6c0-0.8,0.6-1.2,1.3-1.4c0.5-0.1,0.6-0.4,0.5-0.8
		c-0.1-0.5-0.1-1,0-1.5c0.1-0.4,0-0.6-0.4-0.7C6.6,10.5,6,10,5.9,9.2C5.8,8.4,6.1,7.6,6.7,7.1C7.2,6.6,7.9,6.6,8.6,7
		c0.6,0.3,0.9,0.2,1.3-0.3c0.3-0.4,0.7-0.7,1.1-1.1c0.3-0.2,0.4-0.4,0.2-0.8c0-0.1-0.1-0.2-0.1-0.3c-0.5-1.6,0.5-2.9,2.3-2.8
		C14,1.9,14.5,2.3,14.7,3c0.2,0.7,0.5,0.9,1.2,0.8c0.4-0.1,0.9,0,1.3,0c0.3,0.1,0.5-0.1,0.6-0.3c0.7-1.6,2.3-1.9,3.6-0.6
		c0.5,0.5,0.5,1.1,0.3,1.7C21.3,5.4,21.3,5.4,22,6c0.3,0.3,0.6,0.7,0.9,0.9c0.1,0.1,0.4,0.2,0.6,0.2c0.3,0,0.6-0.2,0.8-0.3
		c0.4,0,0.7-0.1,1.1,0c0.9,0.2,1.7,2.1,1.1,2.9c-0.2,0.2-0.4,0.5-0.6,0.6c-1.8,0.7-3.5,1.4-5.3,2.1C20.5,12.6,20.5,12.6,20.4,12.6z"
		/>
	<path class="st1" d="M34,25.8c0,1.2-0.5,1.8-1.3,2.2c-0.8,0.4-1.7,0.3-2.3-0.3c-1.1-1.1-1.6-2.5-1.7-4c0-0.9,0.5-1.6,1.5-2
		c0.9-0.3,1.7-0.2,2.3,0.6C33.4,23.3,33.9,24.6,34,25.8z"/>
</g>
</svg>
