<?xml version="1.0" encoding="utf-8"?>
<!-- Generator: Adobe Illustrator 22.0.1, SVG Export Plug-In . SVG Version: 6.00 Build 0)  -->
<svg version="1.1" id="Layer_1" xmlns="http://www.w3.org/2000/svg" xmlns:xlink="http://www.w3.org/1999/xlink" x="0px" y="0px"
	 viewBox="0 0 48 48" style="enable-background:new 0 0 48 48;" xml:space="preserve">
<style type="text/css">
	.st0{fill-rule:evenodd;clip-rule:evenodd;fill:#FFFFFF;}
	.st1{fill:#FFFFFF;}
	.st2{fill:#FFFFFF;stroke:#000000;stroke-miterlimit:10;}
</style>
<g>
	<path class="st1" d="M47.6,33.4c-2.9-4.9-5.8-9.9-8.7-14.9c-0.1-0.2-0.3-0.3-0.5-0.4c-0.5-0.2-1.1-0.3-1.6-0.5
		c-0.3-0.1-0.4,0-0.6,0.2c-3,5.1-6,10.3-9,15.4c-0.3,0.6-0.4,1.1-0.4,1.8c0.3,5.6,4.9,10,10.6,10c5.2,0,9.7-3.8,10.5-8.9
		C48,35.3,48.2,34.4,47.6,33.4z M29.4,33.9c2.7-4.5,5.3-9,8-13.6c2.7,4.6,5.3,9.1,8,13.6C40,33.9,34.8,33.9,29.4,33.9z"/>
	<path class="st1" d="M13,13c-0.8-1.4-1.7-2.3-3.3-2.4c0,0-0.1,0-0.2,0c-0.1,0.1-0.1,0.2-0.2,0.3c-2.9,4.9-5.7,9.8-8.6,14.7
		C0,26.8-0.1,28,0.1,29.3c0.9,5,5.2,8.7,10.2,8.8c5.1,0.1,9.5-3.4,10.6-8.4c0.3-1.5,0.3-2.8-0.6-4.2C17.8,21.4,15.3,17.2,13,13z
		 M2.6,26.8c2.7-4.6,5.3-9,8-13.6c2.7,4.6,5.3,9.1,8,13.6C13.2,26.8,7.9,26.8,2.6,26.8z"/>
	<path class="st1" d="M30.1,14.5c3.2,0.9,6.3,1.7,9.5,2.5c1,0.3,1.5-0.1,1.8-1c0.2-0.9,0.5-1.7,0.7-2.6c0.3-1.1,0-1.6-1.1-1.9
		c-3.1-0.8-6.3-1.7-9.4-2.5c-0.4-0.1-0.6-0.3-0.7-0.7c-0.7-2.7-2.3-4.5-5-5.2c-2.7-0.7-5,0-7,2c-0.3,0.3-0.6,0.4-1,0.3
		c-3.2-0.9-6.4-1.7-9.5-2.6C7.4,2.6,6.8,3,6.6,3.8C6.5,4.4,6.3,4.9,6.2,5.5C6,6,5.9,6.5,5.8,6.9c0,0.8,0.4,1.2,1.1,1.4
		c3.2,0.9,6.4,1.7,9.6,2.6c0.3,0.1,0.6,0.2,0.6,0.6c0.7,2.7,2.4,4.6,5.1,5.3c2.7,0.7,5,0,6.9-2C29.4,14.4,29.7,14.4,30.1,14.5z
		 M23.9,12.3c-1.3,0-2.3-1.2-2.3-2.5c0.1-1.3,1.2-2.3,2.5-2.2c1.3,0.1,2.3,1.1,2.2,2.4C26.3,11.3,25.2,12.4,23.9,12.3z"/>
</g>
</svg>
