<?xml version="1.0" encoding="utf-8"?>
<!-- Generator: Adobe Illustrator 22.0.1, SVG Export Plug-In . SVG Version: 6.00 Build 0)  -->
<svg version="1.1" id="Layer_1" xmlns="http://www.w3.org/2000/svg" xmlns:xlink="http://www.w3.org/1999/xlink" x="0px" y="0px"
	 viewBox="0 0 48 48" style="enable-background:new 0 0 48 48;" xml:space="preserve">
<style type="text/css">
	.st0{fill-rule:evenodd;clip-rule:evenodd;fill:#FFFFFF;}
	.st1{fill:#FFFFFF;}
	.st2{fill:#FFFFFF;stroke:#000000;stroke-miterlimit:10;}
</style>
<g>
	<path class="st1" d="M47.9,38.6c-1.4-2.4-3.4-3.6-6.2-3.5c-0.8,0-1.5,0.3-2.2,0.4c-1.8,0.4-3.6,0.9-5.4,1.3c0-0.1-0.1-0.1-0.1-0.1
		c0-0.1-0.1-0.3-0.1-0.4c-0.3-1.4-1-2.5-2.2-3.2c-0.8-0.4-1.7-0.8-2.6-1c-4.3-1-8.6-1.9-12.9-2.9c-1.4-0.3-2.9-0.6-4.3-1
		c0-0.2,0-0.4,0.1-0.6c0.1-0.9,0-1.3-0.8-1.6c-0.8-0.4-1.6-0.7-2.4-0.9c-2.4-0.6-4.9-0.8-7.3-1c-0.7-0.1-1.1,0.1-1.4,0.7
		C0,31,0,37.2,0,43.4c0.3,0.6,0.7,0.7,1.3,0.7c1.8,0,3.6,0,5.3,0c0.8,0,1.1-0.2,1.4-1c0.1-0.3,0.2-0.5,0.3-0.9
		c0.9,0.3,1.8,0.6,2.7,0.9c4.3,1.4,8.6,2.8,12.8,4.3c2.2,0.8,4.3,0.6,6.4-0.1c3.5-1.2,6.9-2.7,10.2-4.2c2.2-1,4.4-2,6.6-3
		c0.3-0.2,0.6-0.5,0.9-0.8c0-0.2,0-0.4,0-0.6C48,38.7,47.9,38.7,47.9,38.6z M7.5,38.2c-0.3,1.2-0.7,2.4-1.1,3.6
		c0,0.1-0.2,0.3-0.3,0.3c-1.3,0-2.7,0-4,0c0-5.3,0-10.6,0-15.9c0.6,0.1,1.1,0.1,1.6,0.2c1.9,0.3,3.8,0.6,5.7,1
		c0.7,0.1,0.7,0.2,0.6,0.8C9.3,31.6,8.4,34.9,7.5,38.2z M44.1,39.3c-4.4,2-8.7,4.1-13.2,5.7c-1,0.3-2,0.6-3,0.9
		c-1.1,0.3-2.2,0.1-3.3-0.3c-5.1-1.7-10.2-3.4-15.3-5.2c-0.1,0-0.2-0.1-0.3-0.1c0.9-3.4,1.8-6.7,2.6-10.1c0.8,0.2,1.7,0.4,2.5,0.6
		c4.9,1.1,9.8,2.2,14.7,3.3c0.6,0.1,1.2,0.4,1.8,0.7c0.9,0.5,1.3,1.4,1.3,2.5c-1.7,0.6-3.3,0.8-5.1,0.4c-2.5-0.6-5-1-7.5-1.5
		c-0.7-0.1-1.2,0.1-1.3,0.7c-0.1,0.6,0.2,1.1,0.9,1.3c2.6,0.5,5.1,1,7.7,1.6c2,0.5,3.8,0.2,5.7-0.3c2.9-0.8,5.7-1.5,8.6-2.2
		c1.8-0.4,3.7,0.2,4.6,1.5C45,38.9,44.6,39.1,44.1,39.3z"/>
	<path class="st1" d="M14.8,24.4c3.8,1.8,7.6,3.7,11.4,5.5c0.5,0.2,0.9,0.2,1.4,0c3.8-1.9,7.6-3.7,11.5-5.5c0.6-0.3,0.8-0.7,0.8-1.3
		c0-2.6,0-5.2,0-7.8c0,0,0,0,0,0c0-2.6,0-5.3,0-7.9c0-0.6-0.2-1-0.8-1.2c-3.9-1.9-7.8-3.7-11.6-5.6c-0.4-0.2-0.8-0.2-1.3,0
		c-3.8,1.9-7.7,3.7-11.5,5.6C14.2,6.4,14,6.8,14,7.4c0,5.2,0,10.4,0,15.7C14,23.7,14.2,24.1,14.8,24.4z M38,9c0,0.2,0,0.3,0,0.4
		c0,4.3,0,8.6,0,12.9c0,0.2-0.1,0.4-0.3,0.5c-3.2,1.5-6.3,3.1-9.5,4.6c-0.1,0-0.1,0-0.2,0.1c0-0.2,0-0.3,0-0.4c0-4.2,0-8.4,0-12.6
		c0-0.3,0.1-0.5,0.4-0.6c1.1-0.5,2.2-1.1,3.3-1.6c0.1-0.1,0.2-0.1,0.4-0.2c0,0.4,0,0.7,0,1.1c0,1.4,0,2.7,0,4.1c0,0.7,0.4,1.2,1,1.2
		c0.6,0,1-0.4,1-1.1c0-1.9,0-3.9,0-5.8c0-0.3,0.1-0.5,0.4-0.6c1-0.5,2.1-1,3.1-1.5C37.6,9.1,37.8,9.1,38,9z M26.8,2.5
		c0.1,0,0.2,0,0.3,0c3.2,1.5,6.4,3.1,9.6,4.6c0,0,0,0,0.1,0.1c-1.2,0.6-2.4,1.2-3.7,1.8c-0.1,0.1-0.3,0-0.4,0
		c-3-1.6-6.1-3.3-9.1-4.9c0,0,0,0-0.1-0.1C24.7,3.5,25.8,3,26.8,2.5z M21.3,5.2c0.1,0,0.2,0,0.3,0.1c3,1.6,6,3.3,9,4.9
		c0,0,0.1,0.1,0.1,0.1c-1,0.5-2,1-3,1.5c-0.6,0.3-1.1,0.3-1.7,0c-2.8-1.5-5.7-2.8-8.5-4.3c-0.2-0.1-0.3-0.2-0.6-0.3
		C18.5,6.5,19.9,5.9,21.3,5.2z M16,9.3c0-0.1,0-0.2,0-0.3c1.6,0.8,3,1.5,4.5,2.3c1.7,0.8,3.4,1.7,5.1,2.5c0.2,0.1,0.3,0.2,0.3,0.5
		c0,4.3,0,8.6,0,12.8c0,0.1,0,0.2,0,0.4c-0.7-0.3-1.3-0.6-1.9-0.9c-2.6-1.2-5.1-2.5-7.7-3.7c-0.2-0.1-0.4-0.2-0.4-0.5
		C16,18,16,13.6,16,9.3z"/>
</g>
</svg>
